if (_typeface_js && _typeface_js.loadFace) _typeface_js.loadFace({"glyphs":{"\u0000":{"x_min":0,"x_max":0,"ha":0},"":{"x_min":32,"x_max":357,"ha":389,"o":"m 32 872 q 43 1001 32 948 q 75 1088 54 1055 q 125 1135 95 1120 q 193 1150 155 1150 q 262 1135 232 1150 q 313 1088 293 1120 q 345 1001 334 1055 q 357 872 357 948 q 345 741 357 794 q 313 655 334 688 q 262 608 293 623 q 193 594 232 594 q 125 608 155 594 q 75 655 95 623 q 43 741 54 688 q 32 872 32 794 m 256 871 q 242 1016 256 971 q 193 1062 229 1062 q 146 1016 159 1062 q 133 871 133 971 q 146 727 133 771 q 193 683 159 683 q 242 727 229 683 q 256 871 256 771 "},"₅":{"x_min":38,"x_max":339,"ha":389,"o":"m 339 164 q 327 98 339 130 q 294 43 316 67 q 239 4 272 18 q 162 -9 205 -9 q 95 0 128 -9 q 38 20 62 7 l 53 101 q 142 81 100 81 q 210 103 183 81 q 238 171 238 125 q 206 241 238 213 q 95 270 174 270 q 80 269 88 270 q 66 269 72 269 q 77 405 72 334 q 84 539 81 476 l 322 539 l 322 453 l 164 453 q 162 398 163 426 q 158 343 160 369 q 291 288 243 334 q 339 164 339 242 "},"Ҿ":{"x_min":7,"x_max":807,"ha":882,"o":"m 113 660 q 221 552 113 560 q 315 876 235 767 q 523 985 396 985 q 655 953 601 985 q 743 862 709 921 q 791 718 776 803 q 807 529 807 633 q 807 489 807 508 q 805 446 807 469 l 351 446 q 362 304 352 369 q 396 191 371 239 q 463 116 421 143 q 572 89 506 89 q 654 100 618 89 q 730 139 691 112 l 765 40 q 679 -3 724 10 q 583 -21 634 -18 l 583 -257 l 464 -257 l 464 -8 q 353 47 398 8 q 278 146 307 87 q 235 281 249 205 q 220 446 221 357 q 134 459 174 447 q 66 496 94 472 q 23 558 39 521 q 7 647 7 594 q 9 686 7 667 q 15 716 12 706 l 115 703 q 113 683 114 695 q 113 660 113 671 m 525 874 q 450 849 481 874 q 399 780 420 824 q 367 678 378 736 q 352 552 356 620 l 671 552 q 664 676 671 618 q 640 778 657 735 q 596 848 623 822 q 525 874 568 874 "},"ǻ":{"x_min":57,"x_max":503,"ha":603,"o":"m 120 713 q 196 737 156 728 q 283 747 236 747 q 441 686 380 747 q 503 498 503 626 l 503 15 q 400 -6 452 1 q 298 -15 348 -15 q 204 -2 248 -15 q 128 37 161 9 q 76 107 95 65 q 57 211 57 150 q 74 310 57 268 q 122 381 91 352 q 194 424 152 409 q 284 439 236 439 q 386 427 330 439 l 386 494 q 354 607 386 575 q 265 639 323 639 q 205 632 233 639 q 144 612 176 626 l 120 713 m 176 212 q 209 118 176 148 q 303 88 242 88 q 386 97 341 88 l 386 328 q 303 340 344 340 q 253 333 277 340 q 212 313 230 327 q 185 274 195 298 q 176 212 176 250 m 430 1141 l 212 1062 l 183 1131 l 392 1240 l 430 1141 m 420 919 q 385 832 420 864 q 301 801 350 801 q 217 832 252 801 q 183 919 183 864 q 217 1005 183 973 q 301 1037 252 1037 q 385 1005 350 1037 q 420 919 420 973 m 357 919 q 341 961 357 946 q 301 976 325 976 q 261 961 277 976 q 246 919 246 946 q 261 876 246 891 q 301 862 277 862 q 341 876 325 862 q 357 919 357 891 "},"ȋ":{"x_min":7,"x_max":327,"ha":336,"o":"m 227 0 l 108 0 l 108 729 l 227 729 l 227 0 m 167 1055 q 285 1004 243 1055 q 327 861 327 953 l 246 861 q 227 940 243 907 q 167 974 211 974 q 106 940 122 974 q 88 861 90 907 l 7 861 q 48 1004 7 953 q 167 1055 89 1055 "},"`":{"x_min":19,"x_max":319,"ha":436,"o":"m 85 1068 l 319 874 l 270 810 l 19 980 l 85 1068 "},"ǆ":{"x_min":67,"x_max":1123,"ha":1164,"o":"m 423 618 q 336 641 382 641 q 275 627 301 641 q 230 581 249 613 q 201 496 211 549 q 192 366 192 444 q 231 152 192 216 q 352 88 271 88 q 385 90 367 88 q 423 97 403 92 l 423 618 m 423 1057 l 542 1078 l 542 19 q 453 -7 503 2 q 351 -18 403 -18 q 134 77 201 -18 q 67 366 67 173 q 81 524 67 454 q 127 643 96 594 q 207 719 158 692 q 322 747 256 747 q 377 740 354 747 q 423 723 400 734 l 423 1057 m 1113 639 q 1043 517 1082 588 q 967 372 1005 447 q 895 227 929 298 q 840 103 861 155 l 1123 103 l 1123 0 l 716 0 l 716 86 q 772 222 738 147 q 845 372 807 297 q 920 514 883 447 q 983 626 957 581 l 733 626 l 733 729 l 1113 729 l 1113 639 m 1019 1067 l 1078 1018 l 918 807 l 759 1018 l 817 1067 l 918 948 l 1019 1067 "},"Ƹ":{"x_min":49,"x_max":532,"ha":560,"o":"m 411 463 l 379 463 q 233 413 288 463 q 178 268 178 364 q 191 187 178 222 q 229 130 205 153 q 284 96 252 107 q 350 85 315 85 q 432 95 389 85 q 509 123 475 105 l 532 20 q 448 -8 495 4 q 350 -21 400 -21 q 221 1 278 -21 q 127 62 165 23 q 69 154 89 101 q 49 266 49 207 q 109 460 49 385 q 276 559 169 535 q 172 723 222 640 q 78 893 122 806 l 78 963 l 510 963 l 510 856 l 215 856 q 309 693 259 772 q 411 535 358 614 l 411 463 "},"ƃ":{"x_min":107,"x_max":582,"ha":649,"o":"m 226 968 l 226 723 q 271 740 248 734 q 326 747 294 747 q 442 719 394 747 q 522 643 491 692 q 567 524 552 594 q 582 366 582 454 q 513 77 582 173 q 297 -18 444 -18 q 195 -7 245 -18 q 107 19 145 2 l 107 1071 l 496 1071 l 496 968 l 226 968 m 226 97 q 263 90 245 92 q 296 88 281 88 q 417 152 377 88 q 457 366 457 216 q 447 496 457 444 q 418 581 437 549 q 373 627 399 613 q 312 641 347 641 q 226 618 266 641 l 226 97 "},"ἂ":{"x_min":67,"x_max":629,"ha":654,"o":"m 541 181 q 560 114 541 137 q 629 86 580 91 l 613 -14 q 560 -9 581 -12 q 522 0 538 -5 q 494 15 506 6 q 470 36 483 25 q 402 -3 438 11 q 324 -18 366 -18 q 130 81 194 -18 q 67 361 67 180 q 139 647 67 547 q 362 747 212 747 q 455 735 406 747 q 541 709 504 724 l 541 181 m 343 88 q 391 97 370 88 q 427 121 412 107 q 423 153 424 136 q 422 189 422 169 l 422 631 q 391 638 406 635 q 361 641 376 641 q 235 577 279 641 q 192 362 192 513 q 230 155 192 222 q 343 88 268 88 m 132 845 q 176 896 155 869 q 210 947 197 923 q 174 974 186 955 q 163 1016 163 992 q 183 1068 163 1048 q 233 1089 203 1089 q 287 1068 265 1089 q 310 1007 310 1047 q 297 947 310 976 q 265 891 284 918 q 221 841 246 865 q 175 800 197 818 l 132 845 m 446 1086 l 563 834 l 498 797 l 353 1038 l 446 1086 "},"ᾉ":{"x_min":-46,"x_max":1009,"ha":1033,"o":"m 419 963 q 485 752 452 858 q 549 529 518 645 q 612 282 580 412 q 675 0 643 151 l 549 0 q 527 123 539 62 q 503 246 515 184 l 199 246 q 174 123 185 184 q 152 0 163 62 l 32 0 q 94 281 62 151 q 157 529 126 412 q 221 752 188 645 q 287 963 254 858 l 419 963 m 351 821 q 284 588 316 705 q 223 350 252 472 l 478 350 q 418 589 450 472 q 351 821 386 705 m 102 700 q 50 741 77 718 q 3 791 24 765 q -32 847 -18 818 q -46 907 -46 876 q -22 968 -46 947 q 34 989 1 989 q 87 968 66 989 q 108 916 108 948 q 95 874 108 892 q 60 847 83 855 q 100 796 76 823 q 152 745 124 769 l 102 700 m 993 -14 q 846 33 890 -11 q 802 183 802 79 l 802 729 l 921 729 l 921 181 q 938 111 921 133 q 1009 82 955 90 l 993 -14 "},"ў":{"x_min":2,"x_max":532,"ha":550,"o":"m 276 151 q 350 430 316 290 q 413 729 383 570 l 532 729 q 486 528 511 627 q 436 338 462 430 q 385 165 410 247 q 337 17 359 84 q 286 -113 310 -59 q 233 -199 262 -166 q 172 -246 205 -231 q 93 -261 139 -261 q 43 -254 68 -261 q 2 -241 18 -248 l 24 -144 q 92 -160 60 -160 q 157 -130 132 -160 q 206 -43 182 -101 l 219 -8 q 166 151 193 63 q 113 335 139 240 q 64 532 87 431 q 21 729 40 633 l 147 729 q 173 585 158 663 q 206 430 189 508 q 241 279 223 352 q 276 151 259 206 "},"ţ":{"x_min":100,"x_max":425,"ha":446,"o":"m 219 729 l 403 729 l 403 626 l 219 626 l 219 225 q 246 120 219 150 q 319 91 273 91 q 364 97 342 91 q 401 114 386 104 l 425 18 q 309 -15 370 -12 q 298 -35 303 -26 q 291 -55 293 -45 q 348 -94 331 -70 q 365 -151 365 -119 q 323 -233 365 -204 q 220 -263 281 -263 q 174 -259 199 -263 q 126 -247 149 -256 l 139 -171 q 169 -177 153 -174 q 200 -181 184 -181 q 243 -173 225 -181 q 262 -143 262 -165 q 246 -116 262 -127 q 190 -97 231 -105 q 206 -50 196 -74 q 227 -5 216 -26 q 131 69 162 12 q 100 233 100 126 l 100 925 l 219 946 l 219 729 "},"ȡ":{"x_min":68,"x_max":782,"ha":768,"o":"m 424 1057 l 543 1078 l 543 114 q 631 141 581 141 q 697 125 669 141 q 743 81 725 109 q 772 18 762 54 q 782 -56 782 -17 q 772 -126 782 -91 q 741 -191 762 -162 q 687 -238 720 -220 q 607 -257 654 -257 q 514 -232 557 -257 q 447 -158 471 -207 l 380 -261 l 314 -215 l 424 -36 l 424 -12 q 388 -16 405 -15 q 353 -18 371 -18 q 135 77 202 -18 q 68 366 68 173 q 82 524 68 454 q 128 643 97 594 q 208 719 159 692 q 323 747 257 747 q 378 740 355 747 q 424 723 401 734 l 424 1057 m 424 618 q 337 641 383 641 q 276 627 302 641 q 231 581 250 613 q 202 496 212 549 q 193 366 193 444 q 232 152 193 216 q 353 88 272 88 q 386 90 368 88 q 424 97 404 92 l 424 618 m 616 58 q 543 13 573 58 l 543 -49 q 561 -140 543 -106 q 614 -174 580 -174 q 666 -146 648 -174 q 685 -60 685 -119 q 668 25 685 -6 q 616 58 652 58 "},"í":{"x_min":85,"x_max":334,"ha":336,"o":"m 227 0 l 108 0 l 108 729 l 227 729 l 227 0 m 334 1007 l 144 808 l 85 859 l 249 1080 l 334 1007 "},"ң":{"x_min":108,"x_max":660,"ha":674,"o":"m 571 729 l 571 97 l 660 97 l 660 -201 l 543 -201 l 543 0 l 452 0 l 452 325 l 227 325 l 227 0 l 108 0 l 108 729 l 227 729 l 227 428 l 452 428 l 452 729 l 571 729 "},"ņ":{"x_min":108,"x_max":570,"ha":670,"o":"m 108 708 q 219 734 159 724 q 329 745 279 745 q 428 730 383 745 q 503 681 472 715 q 552 587 535 646 q 570 440 570 528 l 570 0 l 451 0 l 451 430 q 423 588 451 538 q 318 639 395 639 q 227 625 277 639 l 227 0 l 108 0 l 108 708 m 295 -69 l 398 -69 q 399 -85 399 -75 q 399 -98 399 -94 q 357 -223 399 -185 q 254 -261 315 -261 q 226 -259 239 -261 q 207 -255 213 -258 l 207 -183 q 223 -184 212 -184 q 276 -163 258 -184 q 295 -87 295 -142 l 295 -69 "},"ǜ":{"x_min":99,"x_max":560,"ha":667,"o":"m 560 21 q 516 7 541 14 q 462 -3 490 1 q 405 -11 433 -8 q 353 -15 376 -15 q 248 -1 296 -15 q 168 44 201 11 q 117 135 135 78 q 99 280 99 193 l 99 729 l 218 729 l 218 285 q 250 134 218 178 q 350 91 283 91 q 395 93 372 91 q 441 102 417 95 l 441 729 l 560 729 l 560 21 m 450 822 q 398 842 419 822 q 378 895 378 862 q 398 948 378 928 q 450 969 419 969 q 501 948 480 969 q 522 895 522 928 q 501 842 522 862 q 450 822 480 822 m 220 822 q 168 842 189 822 q 148 895 148 862 q 168 948 148 928 q 220 969 189 969 q 271 948 250 969 q 292 895 292 928 q 271 842 292 862 q 220 822 250 822 m 258 1219 l 391 1023 l 331 976 l 178 1150 l 258 1219 "},"ỳ":{"x_min":2,"x_max":532,"ha":550,"o":"m 276 151 q 350 430 316 290 q 413 729 383 570 l 532 729 q 486 528 511 627 q 436 338 462 430 q 385 165 410 247 q 337 17 359 84 q 286 -113 310 -59 q 233 -199 262 -166 q 172 -246 205 -231 q 93 -261 139 -261 q 43 -254 68 -261 q 2 -241 18 -248 l 24 -144 q 92 -160 60 -160 q 157 -130 132 -160 q 206 -43 182 -101 l 219 -8 q 166 151 193 63 q 113 335 139 240 q 64 532 87 431 q 21 729 40 633 l 147 729 q 173 585 158 663 q 206 430 189 508 q 241 279 223 352 q 276 151 259 206 m 179 1080 l 344 859 l 284 808 l 95 1007 l 179 1080 "},"Ҫ":{"x_min":76,"x_max":630,"ha":651,"o":"m 410 -56 q 467 -95 450 -71 q 484 -151 484 -119 q 442 -233 484 -204 q 339 -263 400 -263 q 293 -259 318 -263 q 245 -247 268 -256 l 258 -171 q 288 -177 272 -174 q 319 -181 303 -181 q 362 -173 344 -181 q 381 -143 381 -165 q 365 -117 381 -128 q 309 -98 350 -106 q 324 -55 315 -78 q 343 -12 334 -32 q 144 140 213 15 q 76 495 76 265 q 101 723 76 630 q 173 875 127 816 q 281 959 219 933 q 417 985 344 985 q 531 969 479 985 q 618 929 584 953 l 580 825 q 508 861 547 847 q 420 875 470 875 q 259 782 309 875 q 209 495 209 690 q 261 194 209 300 q 434 89 314 89 q 526 102 491 89 q 595 139 561 116 l 630 40 q 545 -2 597 15 q 425 -21 493 -21 l 410 -56 "},"қ":{"x_min":108,"x_max":632,"ha":646,"o":"m 560 729 q 447 546 501 629 q 341 392 394 464 q 445 255 392 333 q 538 97 497 176 l 632 97 l 632 -201 l 515 -201 l 515 0 l 453 0 q 404 95 432 45 q 345 193 376 145 q 284 284 314 241 q 227 356 253 327 l 227 0 l 108 0 l 108 729 l 227 729 l 227 415 q 280 490 252 448 q 337 574 309 531 q 390 656 364 616 q 431 729 415 697 l 560 729 "},"Ύ":{"x_min":-43,"x_max":789,"ha":793,"o":"m 789 963 q 737 824 765 897 q 676 674 708 750 q 611 523 644 598 q 545 380 578 448 l 545 0 l 420 0 l 420 372 q 351 516 386 440 q 285 669 317 593 q 223 821 253 746 q 171 963 194 896 l 305 963 q 387 731 341 853 q 482 504 433 610 q 576 731 531 610 q 658 963 622 853 l 789 963 m 139 953 l 45 682 l -43 708 l 21 988 l 139 953 "},"":{"x_min":69,"x_max":514,"ha":567,"o":"m 464 868 q 367 845 411 861 q 289 795 323 829 q 231 705 254 760 q 197 566 208 649 q 253 584 226 578 q 304 590 280 590 q 459 511 404 590 q 514 295 514 433 q 462 63 514 148 q 297 -21 410 -21 q 197 1 240 -21 q 126 74 154 23 q 83 207 98 124 q 69 409 69 290 q 89 612 69 514 q 154 788 109 711 q 272 914 199 865 q 451 967 344 962 l 464 868 m 275 493 q 230 485 253 493 q 189 466 208 477 q 188 432 188 449 q 188 397 188 415 q 191 275 188 333 q 206 174 194 217 q 238 104 217 130 q 296 79 260 79 q 371 136 350 79 q 393 290 393 194 q 364 443 393 394 q 275 493 336 493 "},"ѕ":{"x_min":50,"x_max":438,"ha":474,"o":"m 209 85 q 289 114 262 85 q 317 193 317 144 q 305 245 317 223 q 276 283 294 266 q 234 313 258 300 q 187 341 211 326 q 141 374 164 355 q 102 417 119 393 q 74 472 84 441 q 64 545 64 504 q 120 691 64 635 q 272 747 176 747 q 349 736 313 747 q 409 713 385 726 l 382 618 q 332 639 357 632 q 278 646 307 646 q 207 620 233 646 q 181 545 181 594 q 190 498 181 518 q 216 461 200 477 q 252 431 232 445 q 294 405 272 418 q 347 372 321 390 q 392 329 372 354 q 425 272 413 305 q 438 194 438 240 q 381 40 438 98 q 216 -18 325 -18 q 116 -2 161 -18 q 50 25 72 12 l 75 123 q 131 98 95 112 q 209 85 166 85 "},"Ш":{"x_min":117,"x_max":957,"ha":1074,"o":"m 117 0 l 117 963 l 242 963 l 242 107 l 475 107 l 475 963 l 600 963 l 600 107 l 832 107 l 832 963 l 957 963 l 957 0 l 117 0 "},"Ψ":{"x_min":87,"x_max":772,"ha":860,"o":"m 372 249 q 162 339 237 260 q 87 581 87 419 l 87 963 l 202 963 l 202 591 q 239 426 202 486 q 372 357 277 366 l 372 963 l 487 963 l 487 357 q 619 426 581 366 q 657 591 657 486 l 657 963 l 772 963 l 772 581 q 695 341 772 422 q 487 249 619 260 l 487 0 l 372 0 l 372 249 "},"ӊ":{"x_min":107,"x_max":661,"ha":676,"o":"m 576 729 l 576 99 l 661 99 l 661 86 q 626 -77 661 4 q 527 -217 591 -158 l 443 -162 q 499 -88 474 -129 q 536 0 523 -47 l 457 0 l 457 325 l 226 325 l 226 0 l 107 0 l 107 729 l 226 729 l 226 428 l 457 428 l 457 729 l 576 729 "},"Ἴ":{"x_min":-59,"x_max":514,"ha":631,"o":"m 389 963 l 514 963 l 514 0 l 389 0 l 389 963 m -59 745 q -14 796 -35 769 q 19 847 6 823 q -16 874 -4 855 q -28 916 -28 892 q -7 968 -28 948 q 42 989 12 989 q 96 968 74 989 q 119 907 119 947 q 106 847 119 876 q 74 791 93 818 q 30 741 55 765 q -15 700 6 718 l -59 745 m 333 938 l 188 697 l 123 734 l 240 986 l 333 938 "},"ŭ":{"x_min":99,"x_max":560,"ha":667,"o":"m 560 21 q 516 7 541 14 q 462 -3 490 1 q 405 -11 433 -8 q 353 -15 376 -15 q 248 -1 296 -15 q 168 44 201 11 q 117 135 135 78 q 99 280 99 193 l 99 729 l 218 729 l 218 285 q 250 134 218 178 q 350 91 283 91 q 395 93 372 91 q 441 102 417 95 l 441 729 l 560 729 l 560 21 m 335 854 q 216 904 257 854 q 176 1048 176 955 l 257 1048 q 275 968 259 1001 q 335 935 291 935 q 395 968 379 935 q 414 1048 411 1001 l 495 1048 q 453 904 495 955 q 335 854 411 854 "},"―":{"x_min":-6,"x_max":1036,"ha":1031,"o":"m -6 468 l 1036 468 l 1036 367 l -6 367 l -6 468 "},"{":{"x_min":52,"x_max":362,"ha":369,"o":"m 52 461 q 119 510 97 466 q 142 632 142 554 l 142 871 q 198 1039 142 990 q 362 1088 254 1088 l 362 995 q 279 965 303 995 q 256 872 256 935 l 256 634 q 160 415 256 472 q 256 195 256 358 l 256 -41 q 279 -134 256 -104 q 362 -164 303 -164 l 362 -257 q 198 -208 254 -257 q 142 -40 142 -159 l 142 198 q 119 319 142 276 q 52 369 97 363 l 52 461 "},"Ӄ":{"x_min":117,"x_max":667,"ha":729,"o":"m 310 -147 q 325 -149 317 -149 q 340 -149 333 -149 q 482 -71 436 -149 q 528 161 528 5 q 464 385 528 318 q 287 451 400 451 q 264 451 276 451 q 242 449 253 450 l 242 0 l 117 0 l 117 963 l 242 963 l 242 537 q 318 641 278 583 q 398 758 358 700 q 472 870 437 816 q 530 963 507 924 l 667 963 q 603 866 637 918 q 530 758 568 814 q 454 647 493 702 q 381 543 416 591 q 588 424 516 527 q 661 149 661 322 q 640 -16 661 58 q 583 -145 620 -91 q 491 -227 545 -198 q 368 -257 437 -257 q 338 -255 354 -257 q 309 -251 321 -254 l 310 -147 "},"Ĳ":{"x_min":117,"x_max":797,"ha":907,"o":"m 117 963 l 242 963 l 242 0 l 117 0 l 117 963 m 797 255 q 783 140 797 191 q 742 54 770 90 q 667 -1 713 17 q 553 -21 620 -21 q 452 -5 501 -21 q 365 40 403 10 l 406 139 q 469 104 430 120 q 546 89 509 89 q 599 95 576 89 q 638 121 621 102 q 663 173 655 140 q 672 255 672 205 l 672 963 l 797 963 l 797 255 "},"ǭ":{"x_min":67,"x_max":576,"ha":643,"o":"m 576 363 q 564 224 576 281 q 535 126 553 166 q 489 57 516 85 q 434 5 463 28 q 405 -19 420 -7 q 378 -44 391 -30 q 358 -72 366 -57 q 351 -107 351 -87 q 368 -153 351 -139 q 410 -167 385 -167 q 461 -157 437 -167 l 468 -244 q 381 -260 429 -260 q 281 -227 320 -260 q 243 -136 243 -194 q 293 -17 243 -71 q 192 19 234 -11 q 121 98 150 49 q 80 215 93 148 q 67 363 67 283 q 82 519 67 448 q 128 640 97 590 q 208 719 159 691 q 322 747 257 747 q 435 719 387 747 q 514 640 483 691 q 560 519 545 590 q 576 363 576 448 m 451 363 q 444 475 451 424 q 421 562 437 526 q 381 619 406 599 q 322 640 356 640 q 261 619 286 640 q 221 562 237 599 q 198 475 205 526 q 192 363 192 424 q 198 252 192 302 q 221 165 205 201 q 261 109 237 129 q 322 89 286 89 q 381 109 356 89 q 421 165 406 129 q 444 252 437 201 q 451 363 451 302 m 174 987 l 470 987 l 470 893 l 174 893 l 174 987 "},"ἣ":{"x_min":108,"x_max":570,"ha":670,"o":"m 108 710 q 219 736 159 726 q 329 747 279 747 q 428 732 383 747 q 503 683 472 717 q 552 589 535 648 q 570 442 570 530 l 570 -257 l 451 -257 l 451 432 q 423 591 451 541 q 318 641 395 641 q 227 627 277 641 l 227 0 l 108 0 l 108 710 m 252 800 q 205 841 229 818 q 162 891 181 865 q 130 947 143 918 q 118 1007 118 976 q 140 1068 118 1047 q 194 1089 162 1089 q 244 1068 224 1089 q 265 1016 265 1048 q 252 974 265 992 q 217 947 240 955 q 250 896 229 923 q 296 845 272 869 l 252 800 m 391 1086 l 508 834 l 443 797 l 298 1038 l 391 1086 "},"ᾨ":{"x_min":-58,"x_max":1212,"ha":1236,"o":"m -58 745 q -6 796 -30 769 q 31 847 17 823 q -2 874 9 855 q -14 916 -14 892 q 6 968 -14 948 q 59 989 27 989 q 116 968 92 989 q 140 907 140 947 q 126 847 140 876 q 90 791 112 818 q 43 741 69 765 q -8 700 16 718 l -58 745 m 475 878 q 393 858 430 878 q 327 796 355 839 q 283 687 299 754 q 268 525 268 619 q 311 277 268 387 q 418 82 354 167 l 418 0 l 119 0 l 119 106 l 276 106 q 226 186 251 140 q 181 286 201 232 q 148 403 161 340 q 136 532 136 465 q 160 727 136 642 q 229 870 184 812 q 336 958 273 928 q 475 988 398 988 q 612 958 550 988 q 719 870 675 928 q 788 727 764 812 q 813 532 813 642 q 800 403 813 465 q 767 286 787 340 q 722 186 747 232 q 672 106 697 140 l 830 106 l 830 0 l 531 0 l 531 82 q 588 173 561 124 q 636 278 615 222 q 669 395 657 333 q 681 525 681 457 q 665 687 681 619 q 621 796 649 754 q 556 858 594 839 q 475 878 518 878 m 1196 -14 q 1049 33 1093 -11 q 1005 183 1005 79 l 1005 729 l 1124 729 l 1124 181 q 1141 111 1124 133 q 1212 82 1158 90 l 1196 -14 "},"Я":{"x_min":42,"x_max":597,"ha":714,"o":"m 597 0 l 475 0 l 475 375 l 440 375 q 393 376 416 375 q 347 380 369 377 q 303 298 328 347 q 253 197 278 250 q 205 93 228 145 q 167 0 182 41 l 42 0 q 84 114 58 54 q 137 231 109 175 q 189 335 164 287 q 230 412 214 383 q 129 506 166 444 q 92 672 92 568 q 114 803 92 747 q 179 897 137 859 q 279 953 221 934 q 409 972 337 972 q 597 948 499 972 l 597 0 m 475 857 q 408 862 443 862 q 332 852 366 862 q 274 821 298 842 q 237 762 250 799 q 224 672 224 726 q 275 521 224 565 q 422 478 326 478 l 475 478 l 475 857 "},"Ɲ":{"x_min":-26,"x_max":690,"ha":807,"o":"m 588 0 q 512 177 554 82 q 424 368 470 272 q 329 560 377 465 q 234 737 281 655 l 234 -35 q 186 -206 234 -155 q 54 -258 138 -258 q -26 -244 7 -258 l -7 -143 q 39 -150 17 -150 q 71 -145 57 -150 q 95 -126 85 -140 q 111 -88 105 -112 q 117 -29 117 -65 l 117 963 l 221 963 q 323 786 274 876 q 416 607 372 696 q 500 434 460 519 q 573 272 539 348 l 573 963 l 690 963 l 690 0 l 588 0 "},"ὤ":{"x_min":76,"x_max":825,"ha":901,"o":"m 608 -14 q 519 7 559 -14 q 450 73 478 29 q 293 -14 394 -14 q 190 15 231 -14 q 123 93 148 44 q 87 207 98 143 q 76 344 76 272 q 106 553 76 450 q 190 745 137 657 l 301 707 q 225 535 253 626 q 198 347 198 443 q 202 251 198 297 q 219 171 207 205 q 252 117 231 137 q 305 97 273 97 q 392 220 392 97 l 392 567 l 510 567 l 510 220 q 596 97 510 97 q 648 117 628 97 q 681 171 669 137 q 698 251 693 205 q 703 347 703 297 q 675 535 703 443 q 600 707 647 626 l 711 745 q 794 553 763 657 q 825 344 825 450 q 813 207 825 272 q 777 93 802 143 q 711 15 752 44 q 608 -14 669 -14 m 311 845 q 355 896 334 869 q 389 947 376 923 q 353 974 365 955 q 342 1016 342 992 q 362 1068 342 1048 q 412 1089 382 1089 q 466 1068 444 1089 q 489 1007 489 1047 q 476 947 489 976 q 444 891 463 918 q 400 841 425 865 q 354 800 376 818 l 311 845 m 703 1038 l 558 797 l 493 834 l 610 1086 l 703 1038 "},"Ȓ":{"x_min":117,"x_max":672,"ha":714,"o":"m 117 948 q 304 972 214 972 q 434 955 376 972 q 534 902 492 938 q 599 809 576 866 q 622 672 622 752 q 583 510 622 572 q 480 416 545 448 q 522 340 496 388 q 575 235 548 293 q 628 116 602 177 q 672 0 653 55 l 547 0 q 508 94 531 41 q 460 199 485 147 q 410 299 435 251 q 366 380 385 347 q 320 376 344 377 q 273 375 297 375 l 239 375 l 239 0 l 117 0 l 117 948 m 239 478 l 291 478 q 438 521 387 478 q 490 672 490 565 q 476 762 490 726 q 439 821 463 799 q 381 852 415 842 q 305 862 347 862 q 239 857 269 862 l 239 478 m 349 1244 q 467 1193 425 1244 q 509 1050 509 1142 l 428 1050 q 409 1129 425 1096 q 349 1163 393 1163 q 288 1129 304 1163 q 270 1050 272 1096 l 189 1050 q 230 1193 189 1142 q 349 1244 271 1244 "},"ɏ":{"x_min":2,"x_max":549,"ha":550,"o":"m 2 464 l 79 464 q 48 597 62 530 q 21 729 33 663 l 147 729 q 170 602 157 669 q 198 464 183 534 l 357 464 q 386 593 372 527 q 413 729 399 658 l 532 729 q 503 595 518 661 q 471 464 487 529 l 549 464 l 549 386 l 450 386 q 362 85 400 208 q 285 -114 323 -37 q 201 -226 246 -191 q 93 -261 156 -261 q 43 -254 68 -261 q 2 -241 18 -248 l 24 -144 q 57 -155 39 -151 q 91 -160 76 -160 q 156 -130 131 -160 q 205 -43 181 -101 l 219 -8 q 159 174 190 73 q 100 386 128 274 l 2 386 l 2 464 m 276 151 q 308 268 293 209 q 338 386 323 326 l 217 386 q 247 259 232 319 q 276 151 261 200 "},"⁸":{"x_min":35,"x_max":353,"ha":389,"o":"m 339 832 q 316 754 339 787 q 265 698 294 722 q 325 645 298 677 q 353 560 353 612 q 340 501 353 527 q 305 455 328 474 q 254 425 283 435 q 191 415 225 415 q 78 456 121 415 q 35 559 35 498 q 114 697 35 640 q 64 750 86 718 q 42 829 42 783 q 83 930 42 890 q 191 971 125 971 q 299 930 259 971 q 339 832 339 890 m 261 562 q 234 622 261 598 q 173 662 208 645 q 138 615 149 638 q 127 569 127 593 q 146 518 127 537 q 194 500 165 500 q 241 515 222 500 q 261 562 261 530 m 134 830 q 153 777 134 800 q 200 736 172 754 q 235 776 221 755 q 249 825 249 797 q 235 869 249 850 q 192 888 221 888 q 150 873 167 888 q 134 830 134 858 "},"k":{"x_min":108,"x_max":583,"ha":593,"o":"m 559 729 q 447 546 500 628 q 340 391 393 463 q 408 303 374 352 q 475 203 443 255 q 535 99 507 151 q 583 0 563 47 l 452 0 q 403 95 431 45 q 345 193 375 145 q 284 284 314 241 q 227 356 253 327 l 227 0 l 108 0 l 108 1057 l 227 1078 l 227 415 q 280 490 251 448 q 336 574 308 531 q 389 656 364 616 q 430 729 414 697 l 559 729 "},"Ά":{"x_min":-58,"x_max":663,"ha":675,"o":"m 407 963 q 473 752 440 858 q 537 529 506 645 q 600 282 568 412 q 663 0 631 151 l 537 0 q 515 123 527 62 q 491 246 503 184 l 187 246 q 162 123 173 184 q 140 0 151 62 l 20 0 q 82 281 50 151 q 145 529 114 412 q 209 752 176 645 q 275 963 242 858 l 407 963 m 339 821 q 272 588 304 705 q 211 350 240 472 l 466 350 q 406 589 438 472 q 339 821 374 705 m 191 907 l 1 708 l -58 759 l 106 980 l 191 907 "},"ȇ":{"x_min":68,"x_max":538,"ha":606,"o":"m 190 330 q 199 233 191 277 q 226 156 208 189 q 276 106 245 124 q 356 88 308 88 q 431 99 397 88 q 480 119 465 111 l 503 23 q 442 -3 484 11 q 341 -18 400 -18 q 213 9 265 -18 q 128 87 161 37 q 81 206 95 137 q 68 359 68 276 q 134 653 68 560 q 311 747 201 747 q 486 654 435 747 q 538 393 538 561 q 538 362 538 378 q 536 330 538 346 l 190 330 m 311 646 q 224 586 251 646 q 191 427 196 526 l 413 427 q 392 587 413 528 q 311 646 371 646 m 309 1055 q 427 1004 385 1055 q 469 861 469 953 l 388 861 q 369 940 385 907 q 309 974 353 974 q 248 940 264 974 q 230 861 232 907 l 149 861 q 190 1004 149 953 q 309 1055 231 1055 "},"ί":{"x_min":53,"x_max":353,"ha":338,"o":"m 297 -14 q 150 33 194 -11 q 106 183 106 79 l 106 729 l 225 729 l 225 181 q 242 111 225 133 q 313 82 259 90 l 297 -14 m 353 980 l 101 810 l 53 874 l 286 1068 l 353 980 "},"Ù":{"x_min":108,"x_max":655,"ha":763,"o":"m 378 -21 q 175 55 243 -21 q 108 297 108 131 l 108 963 l 233 963 l 233 308 q 265 143 233 198 q 380 89 297 89 q 498 145 467 89 q 530 308 530 201 l 530 963 l 655 963 l 655 297 q 585 56 655 134 q 378 -21 515 -21 m 287 1288 l 452 1067 l 392 1016 l 203 1215 l 287 1288 "},"ὓ":{"x_min":100,"x_max":574,"ha":674,"o":"m 219 729 l 219 244 q 246 131 219 171 q 336 91 273 91 q 427 131 400 91 q 455 246 455 171 l 455 729 l 574 729 l 574 245 q 514 54 574 123 q 337 -15 455 -15 q 159 50 219 -15 q 100 245 100 115 l 100 729 l 219 729 m 247 800 q 200 841 224 818 q 157 891 176 865 q 125 947 138 918 q 113 1007 113 976 q 135 1068 113 1047 q 189 1089 157 1089 q 239 1068 219 1089 q 260 1016 260 1048 q 247 974 260 992 q 212 947 235 955 q 245 896 224 923 q 291 845 267 869 l 247 800 m 386 1086 l 503 834 l 438 797 l 293 1038 l 386 1086 "},"Ҷ":{"x_min":78,"x_max":685,"ha":706,"o":"m 566 -257 l 566 0 l 468 0 l 468 353 q 402 339 437 345 q 329 334 366 334 q 231 347 276 334 q 151 393 186 361 q 97 478 116 425 q 78 610 78 531 l 78 963 l 197 963 l 197 631 q 231 487 197 535 q 358 440 265 440 q 468 453 406 440 l 468 963 l 593 963 l 593 107 l 685 107 l 685 -257 l 566 -257 "},"В":{"x_min":117,"x_max":663,"ha":724,"o":"m 242 553 l 328 553 q 501 708 501 553 q 486 788 501 756 q 448 836 471 819 q 393 861 424 854 q 326 868 361 868 q 284 866 306 868 q 242 862 262 865 l 242 553 m 242 453 l 242 105 q 294 98 268 101 q 344 96 319 96 q 418 104 383 96 q 479 132 453 112 q 519 185 504 151 q 534 269 534 219 q 487 404 534 355 q 342 453 440 453 l 242 453 m 117 948 q 216 965 165 959 q 317 972 267 972 q 436 960 379 972 q 535 919 492 948 q 604 845 578 891 q 630 729 630 798 q 593 588 630 643 q 501 507 557 533 q 617 422 571 479 q 663 265 663 365 q 638 138 663 190 q 569 54 614 87 q 463 7 525 22 q 328 -7 401 -7 q 226 -1 279 -7 q 117 15 173 4 l 117 948 "},"ᾗ":{"x_min":108,"x_max":570,"ha":670,"o":"m 108 710 q 219 736 159 726 q 329 747 279 747 q 428 732 383 747 q 503 683 472 717 q 552 589 535 648 q 570 442 570 530 l 570 -257 l 451 -257 l 451 432 q 423 591 451 541 q 318 641 395 641 q 227 627 277 641 l 227 0 l 108 0 l 108 710 m 324 1224 q 397 1212 363 1224 q 455 1178 430 1200 q 495 1124 480 1157 q 510 1051 510 1092 l 432 1051 q 399 1113 426 1087 q 324 1139 373 1139 q 250 1113 276 1139 q 219 1051 224 1087 l 141 1051 q 154 1124 141 1092 q 193 1178 168 1157 q 252 1212 218 1200 q 324 1224 285 1224 m 388 800 q 341 832 365 813 q 298 872 317 851 q 267 918 280 894 q 255 967 255 942 q 276 1023 255 1002 q 327 1044 298 1044 q 374 1026 355 1044 q 394 978 394 1008 q 383 941 394 958 q 353 918 373 924 q 386 879 366 899 q 432 841 406 859 l 388 800 m 219 -87 q 237 -163 219 -142 q 289 -184 255 -184 q 306 -182 301 -184 l 306 -254 q 287 -258 299 -257 q 259 -260 274 -260 q 156 -222 198 -260 q 115 -98 115 -185 q 115 -84 115 -93 q 116 -69 115 -75 l 219 -69 l 219 -87 "},"β":{"x_min":108,"x_max":621,"ha":688,"o":"m 342 -11 q 286 -5 316 -11 q 227 14 256 0 l 227 -257 l 108 -257 l 108 815 q 171 1012 108 947 q 340 1078 235 1078 q 512 1009 452 1078 q 572 827 572 940 q 536 688 572 748 q 445 599 501 629 q 573 498 526 572 q 621 312 621 425 q 600 177 621 237 q 544 75 580 118 q 456 11 508 33 q 342 -11 405 -11 m 227 117 q 274 100 249 106 q 318 95 299 95 q 451 150 406 95 q 497 312 497 205 q 487 402 497 361 q 455 474 477 444 q 398 522 432 505 q 316 540 364 540 l 316 639 q 411 682 371 639 q 451 821 451 726 q 423 934 451 892 q 339 977 396 977 q 256 938 286 977 q 227 815 227 899 l 227 117 "},"Ό":{"x_min":-58,"x_max":827,"ha":906,"o":"m 191 907 l 1 708 l -58 759 l 106 980 l 191 907 m 827 480 q 806 275 827 368 q 744 117 786 183 q 637 15 702 51 q 485 -21 573 -21 q 333 15 398 -21 q 226 117 269 51 q 163 275 184 183 q 143 480 143 368 q 163 686 143 593 q 226 845 184 779 q 333 948 269 911 q 485 985 398 985 q 637 948 573 985 q 744 845 702 911 q 806 686 786 779 q 827 480 827 593 m 694 480 q 682 640 694 568 q 646 764 671 712 q 582 845 621 816 q 485 875 542 875 q 389 845 428 875 q 324 764 349 816 q 287 640 299 712 q 276 480 276 568 q 287 320 276 393 q 324 197 299 248 q 389 117 349 145 q 485 89 428 89 q 582 117 542 89 q 646 197 621 145 q 682 320 671 248 q 694 480 694 393 "},"≠":{"x_min":60,"x_max":537,"ha":597,"o":"m 60 600 l 312 600 l 372 761 l 470 725 l 422 600 l 537 600 l 537 499 l 384 499 l 321 332 l 537 332 l 537 231 l 282 231 l 220 67 l 125 103 l 172 231 l 60 231 l 60 332 l 211 332 l 273 499 l 60 499 l 60 600 "},"Ғ":{"x_min":24,"x_max":538,"ha":557,"o":"m 24 549 l 118 549 l 118 963 l 538 963 l 538 856 l 243 856 l 243 549 l 421 549 l 421 452 l 243 452 l 243 0 l 118 0 l 118 452 l 24 452 l 24 549 "},"ƀ":{"x_min":21,"x_max":582,"ha":649,"o":"m 226 949 l 405 949 l 405 857 l 226 857 l 226 723 q 271 740 248 734 q 326 747 294 747 q 442 719 394 747 q 522 643 491 692 q 567 524 552 594 q 582 366 582 454 q 513 77 582 173 q 297 -18 444 -18 q 195 -7 245 -18 q 107 19 145 2 l 107 857 l 21 857 l 21 949 l 107 949 l 107 1057 l 226 1078 l 226 949 m 226 97 q 263 90 245 92 q 296 88 281 88 q 417 152 377 88 q 457 366 457 216 q 447 496 457 444 q 418 581 437 549 q 373 627 399 613 q 312 641 347 641 q 226 618 266 641 l 226 97 "},"Ĥ":{"x_min":117,"x_max":683,"ha":800,"o":"m 558 963 l 683 963 l 683 0 l 558 0 l 558 448 l 242 448 l 242 0 l 117 0 l 117 963 l 242 963 l 242 556 l 558 556 l 558 963 m 297 1015 l 239 1063 l 398 1275 l 558 1063 l 499 1015 l 398 1133 l 297 1015 "},"U":{"x_min":108,"x_max":655,"ha":763,"o":"m 378 -21 q 175 55 243 -21 q 108 297 108 131 l 108 963 l 233 963 l 233 308 q 265 143 233 198 q 380 89 297 89 q 498 145 467 89 q 530 308 530 201 l 530 963 l 655 963 l 655 297 q 585 56 655 134 q 378 -21 515 -21 "},"ᾞ":{"x_min":-54,"x_max":1369,"ha":1393,"o":"m 814 963 l 939 963 l 939 0 l 814 0 l 814 448 l 498 448 l 498 0 l 373 0 l 373 963 l 498 963 l 498 556 l 814 556 l 814 963 m 129 1074 q 202 1062 168 1074 q 260 1028 235 1050 q 300 974 285 1007 q 315 901 315 942 l 237 901 q 204 963 231 937 q 129 989 178 989 q 55 963 81 989 q 24 901 29 937 l -54 901 q -40 974 -54 942 q -1 1028 -26 1007 q 57 1062 23 1050 q 129 1074 90 1074 m 26 691 q 70 729 49 709 q 104 768 90 749 q 74 791 84 774 q 64 828 64 808 q 83 876 64 858 q 130 894 102 894 q 181 873 159 894 q 203 817 203 852 q 190 768 203 792 q 159 722 177 744 q 115 682 140 701 q 69 650 91 663 l 26 691 m 1353 -14 q 1206 33 1250 -11 q 1162 183 1162 79 l 1162 729 l 1281 729 l 1281 181 q 1298 111 1281 133 q 1369 82 1315 90 l 1353 -14 "},"∕":{"x_min":-157,"x_max":340,"ha":189,"o":"m 340 963 l -52 0 l -157 0 l 235 963 l 340 963 "},"Ᾰ":{"x_min":28,"x_max":671,"ha":699,"o":"m 415 963 q 481 752 448 858 q 545 529 514 645 q 608 282 576 412 q 671 0 639 151 l 545 0 q 523 123 535 62 q 499 246 511 184 l 195 246 q 170 123 181 184 q 148 0 159 62 l 28 0 q 90 281 58 151 q 153 529 122 412 q 217 752 184 645 q 283 963 250 858 l 415 963 m 347 821 q 280 588 312 705 q 219 350 248 472 l 474 350 q 414 589 446 472 q 347 821 382 705 m 348 1071 q 229 1121 270 1071 q 189 1265 189 1172 l 270 1265 q 288 1185 272 1218 q 348 1152 304 1152 q 408 1185 392 1152 q 427 1265 424 1218 l 508 1265 q 466 1121 508 1172 q 348 1071 424 1071 "},"Ϋ":{"x_min":4,"x_max":622,"ha":626,"o":"m 622 963 q 570 824 598 897 q 509 674 541 750 q 444 523 477 598 q 378 380 411 448 l 378 0 l 253 0 l 253 372 q 184 516 219 440 q 118 669 150 593 q 56 821 86 746 q 4 963 27 896 l 138 963 q 220 731 174 853 q 315 504 266 610 q 409 731 364 610 q 491 963 455 853 l 622 963 m 199 1075 q 143 1096 166 1075 q 121 1154 121 1117 q 143 1211 121 1190 q 199 1233 166 1233 q 254 1211 231 1233 q 277 1154 277 1190 q 254 1096 277 1117 q 199 1075 231 1075 m 430 1075 q 374 1096 397 1075 q 352 1154 352 1117 q 374 1211 352 1190 q 430 1233 397 1233 q 485 1211 462 1233 q 508 1154 508 1190 q 485 1096 508 1117 q 430 1075 462 1075 "},"ɋ":{"x_min":67,"x_max":684,"ha":649,"o":"m 423 4 q 375 -12 400 -6 q 318 -19 350 -19 q 126 78 185 -19 q 67 360 67 175 q 82 523 67 451 q 132 643 98 594 q 221 719 167 693 q 353 746 275 746 q 453 735 404 746 q 542 708 503 725 l 542 -29 q 547 -88 542 -65 q 563 -126 553 -112 q 587 -145 574 -140 q 619 -150 601 -150 q 667 -143 642 -150 l 684 -244 q 603 -258 647 -258 q 470 -206 518 -258 q 423 -35 423 -155 l 423 4 m 423 630 q 385 637 403 635 q 352 640 367 640 q 230 575 268 640 q 192 361 192 511 q 201 231 192 283 q 230 146 211 178 q 275 100 249 114 q 336 87 301 87 q 423 109 382 87 l 423 630 "},"ō":{"x_min":67,"x_max":576,"ha":643,"o":"m 576 363 q 560 207 576 277 q 514 87 545 137 q 435 9 483 37 q 322 -18 387 -18 q 208 9 257 -18 q 128 87 159 37 q 82 207 97 137 q 67 363 67 277 q 82 519 67 448 q 128 640 97 590 q 208 719 159 691 q 322 747 257 747 q 435 719 387 747 q 514 640 483 691 q 560 519 545 590 q 576 363 576 448 m 451 363 q 444 475 451 424 q 421 562 437 526 q 381 619 406 599 q 322 640 356 640 q 261 619 286 640 q 221 562 237 599 q 198 475 205 526 q 192 363 192 424 q 198 252 192 302 q 221 165 205 201 q 261 109 237 129 q 322 89 286 89 q 381 109 356 89 q 421 165 406 129 q 444 252 437 201 q 451 363 451 302 m 172 987 l 468 987 l 468 893 l 172 893 l 172 987 "},"Ӕ":{"x_min":3,"x_max":950,"ha":1013,"o":"m 496 0 l 496 246 l 215 246 q 167 121 190 183 q 123 0 144 59 l 3 0 q 96 247 44 120 q 203 498 147 373 q 319 742 260 623 q 436 963 379 860 l 928 963 l 928 856 l 621 856 l 621 557 l 899 557 l 899 453 l 621 453 l 621 107 l 950 107 l 950 0 l 496 0 m 496 343 l 496 850 q 374 605 433 732 q 259 350 314 479 l 494 350 l 496 343 "},"ö":{"x_min":67,"x_max":576,"ha":643,"o":"m 576 363 q 560 207 576 277 q 514 87 545 137 q 435 9 483 37 q 322 -18 387 -18 q 208 9 257 -18 q 128 87 159 37 q 82 207 97 137 q 67 363 67 277 q 82 519 67 448 q 128 640 97 590 q 208 719 159 691 q 322 747 257 747 q 435 719 387 747 q 514 640 483 691 q 560 519 545 590 q 576 363 576 448 m 451 363 q 444 475 451 424 q 421 562 437 526 q 381 619 406 599 q 322 640 356 640 q 261 619 286 640 q 221 562 237 599 q 198 475 205 526 q 192 363 192 424 q 198 252 192 302 q 221 165 205 201 q 261 109 237 129 q 322 89 286 89 q 381 109 356 89 q 421 165 406 129 q 444 252 437 201 q 451 363 451 302 m 206 858 q 150 879 173 858 q 128 937 128 900 q 150 994 128 973 q 206 1016 173 1016 q 261 994 238 1016 q 284 937 284 973 q 261 879 284 900 q 206 858 238 858 m 437 858 q 381 879 404 858 q 359 937 359 900 q 381 994 359 973 q 437 1016 404 1016 q 492 994 469 1016 q 515 937 515 973 q 492 879 515 900 q 437 858 469 858 "},"Ȧ":{"x_min":28,"x_max":671,"ha":699,"o":"m 415 963 q 481 752 448 858 q 545 529 514 645 q 608 282 576 412 q 671 0 639 151 l 545 0 q 523 123 535 62 q 499 246 511 184 l 195 246 q 170 123 181 184 q 148 0 159 62 l 28 0 q 90 281 58 151 q 153 529 122 412 q 217 752 184 645 q 283 963 250 858 l 415 963 m 347 821 q 280 588 312 705 q 219 350 248 472 l 474 350 q 414 589 446 472 q 347 821 382 705 m 351 1069 q 295 1090 318 1069 q 273 1148 273 1111 q 295 1205 273 1184 q 351 1227 318 1227 q 406 1205 383 1227 q 429 1148 429 1184 q 406 1090 429 1111 q 351 1069 383 1069 "},"А":{"x_min":28,"x_max":671,"ha":699,"o":"m 415 963 q 481 752 448 858 q 545 529 514 645 q 608 282 576 412 q 671 0 639 151 l 545 0 q 523 123 535 62 q 499 246 511 184 l 195 246 q 170 123 181 184 q 148 0 159 62 l 28 0 q 90 281 58 151 q 153 529 122 412 q 217 752 184 645 q 283 963 250 858 l 415 963 m 347 821 q 280 588 312 705 q 219 350 248 472 l 474 350 q 414 589 446 472 q 347 821 382 705 "},"ĭ":{"x_min":9,"x_max":328,"ha":336,"o":"m 227 0 l 108 0 l 108 729 l 227 729 l 227 0 m 168 854 q 49 904 90 854 q 9 1048 9 955 l 90 1048 q 108 968 92 1001 q 168 935 124 935 q 228 968 212 935 q 247 1048 244 1001 l 328 1048 q 286 904 328 955 q 168 854 244 854 "},"8":{"x_min":65,"x_max":530,"ha":597,"o":"m 518 750 q 478 603 518 669 q 386 488 438 537 q 487 385 444 445 q 530 241 530 324 q 509 126 530 176 q 457 45 489 77 q 382 -4 424 12 q 296 -21 341 -21 q 202 -2 245 -21 q 128 49 159 16 q 81 127 98 81 q 65 227 65 173 q 103 381 65 313 q 205 500 141 448 q 119 602 152 540 q 86 747 86 664 q 105 855 86 809 q 156 929 124 900 q 226 971 187 958 q 305 985 265 985 q 382 971 344 985 q 451 930 420 958 q 499 857 481 901 q 518 750 518 812 m 413 233 q 401 300 413 269 q 370 358 389 331 q 326 408 350 386 q 276 450 302 430 q 209 362 235 412 q 183 237 183 312 q 214 117 183 162 q 299 72 245 72 q 379 113 345 72 q 413 233 413 154 m 203 762 q 209 684 203 718 q 230 624 216 650 q 264 577 244 598 q 311 538 284 557 q 374 624 350 579 q 399 741 399 669 q 371 859 399 826 q 303 892 343 892 q 269 886 287 892 q 237 866 251 880 q 212 826 222 851 q 203 762 203 801 "},"ƿ":{"x_min":108,"x_max":572,"ha":639,"o":"m 447 416 q 407 578 447 522 q 302 635 367 635 q 227 618 265 635 l 227 37 q 318 100 277 66 q 387 178 359 134 q 431 281 416 223 q 447 416 447 338 m 572 414 q 544 236 572 314 q 469 99 516 158 q 359 -2 421 40 q 227 -78 296 -46 l 227 -257 l 108 -257 l 108 686 q 198 722 148 707 q 302 738 249 738 q 412 717 362 738 q 497 656 462 697 q 552 555 533 615 q 572 414 572 494 "},"R":{"x_min":117,"x_max":672,"ha":714,"o":"m 117 948 q 304 972 214 972 q 434 955 376 972 q 534 902 492 938 q 599 809 576 866 q 622 672 622 752 q 583 510 622 572 q 480 416 545 448 q 522 340 496 388 q 575 235 548 293 q 628 116 602 177 q 672 0 653 55 l 547 0 q 508 94 531 41 q 460 199 485 147 q 410 299 435 251 q 366 380 385 347 q 320 376 344 377 q 273 375 297 375 l 239 375 l 239 0 l 117 0 l 117 948 m 239 478 l 291 478 q 438 521 387 478 q 490 672 490 565 q 476 762 490 726 q 439 821 463 799 q 381 852 415 842 q 305 862 347 862 q 239 857 269 862 l 239 478 "},"Ὗ":{"x_min":-54,"x_max":971,"ha":975,"o":"m 971 963 q 919 824 947 897 q 858 674 890 750 q 793 523 826 598 q 727 380 760 448 l 727 0 l 602 0 l 602 372 q 533 516 568 440 q 467 669 499 593 q 405 821 435 746 q 353 963 376 896 l 487 963 q 569 731 523 853 q 664 504 615 610 q 758 731 713 610 q 840 963 804 853 l 971 963 m 129 1074 q 202 1062 168 1074 q 260 1028 235 1050 q 300 974 285 1007 q 315 901 315 942 l 237 901 q 204 963 231 937 q 129 989 178 989 q 55 963 81 989 q 24 901 29 937 l -54 901 q -40 974 -54 942 q -1 1028 -26 1007 q 57 1062 23 1050 q 129 1074 90 1074 m 193 650 q 146 682 170 663 q 103 722 122 701 q 72 768 85 744 q 60 817 60 792 q 81 873 60 852 q 132 894 103 894 q 179 876 160 894 q 199 828 199 858 q 188 791 199 808 q 158 768 178 774 q 191 729 171 749 q 237 691 211 709 l 193 650 "},"Ż":{"x_min":43,"x_max":552,"ha":600,"o":"m 542 864 q 448 691 500 790 q 346 487 397 591 q 251 282 296 382 q 176 107 205 182 l 552 107 l 552 0 l 43 0 l 43 76 q 91 198 63 132 q 151 336 119 265 q 217 480 183 408 q 285 621 251 553 q 350 749 319 689 q 408 856 382 810 l 61 856 l 61 963 l 542 963 l 542 864 m 300 1066 q 244 1087 267 1066 q 222 1145 222 1108 q 244 1202 222 1181 q 300 1224 267 1224 q 355 1202 332 1224 q 378 1145 378 1181 q 355 1087 378 1108 q 300 1066 332 1066 "},"⅙":{"x_min":36,"x_max":917,"ha":1008,"o":"m 36 846 q 116 897 76 868 q 190 963 157 926 l 261 963 l 261 425 l 164 425 l 164 826 q 73 772 116 790 l 36 846 m 718 963 l 325 0 l 221 0 l 613 963 l 718 963 m 889 474 q 765 435 814 468 q 698 331 716 403 q 768 345 737 345 q 875 300 833 345 q 917 172 917 255 q 875 40 917 87 q 757 -7 834 -7 q 633 53 673 -7 q 593 230 593 113 q 616 373 593 313 q 679 472 640 433 q 769 529 719 511 q 872 550 819 548 l 889 474 m 753 267 q 689 248 723 267 l 689 235 q 757 78 689 78 q 817 173 817 78 q 801 245 817 223 q 753 267 785 267 "},"ħ":{"x_min":20,"x_max":570,"ha":670,"o":"m 20 949 l 108 949 l 108 1057 l 227 1078 l 227 949 l 405 949 l 405 857 l 227 857 l 227 725 q 284 739 253 733 q 348 745 316 745 q 434 730 394 745 q 505 681 475 715 q 552 587 535 646 q 570 440 570 528 l 570 0 l 451 0 l 451 430 q 423 589 451 539 q 318 639 395 639 q 227 625 277 639 l 227 -1 l 108 -1 l 108 857 l 20 857 l 20 949 "},"ἵ":{"x_min":-34,"x_max":392,"ha":338,"o":"m 297 -14 q 150 33 194 -11 q 106 183 106 79 l 106 729 l 225 729 l 225 181 q 242 111 225 133 q 313 82 259 90 l 297 -14 m 100 800 q 53 841 77 818 q 10 891 29 865 q -21 947 -8 918 q -34 1007 -34 976 q -11 1068 -34 1047 q 42 1089 10 1089 q 92 1068 72 1089 q 113 1016 113 1048 q 100 974 113 992 q 65 947 88 955 q 98 896 77 923 q 144 845 120 869 l 100 800 m 392 1038 l 247 797 l 182 834 l 299 1086 l 392 1038 "},"Ⱦ":{"x_min":20,"x_max":654,"ha":645,"o":"m 540 963 l 583 1049 l 654 1015 l 359 416 l 359 0 l 234 0 l 234 207 l 105 -54 l 34 -20 l 234 383 l 234 856 l 20 856 l 20 963 l 540 963 m 359 591 l 488 856 l 359 856 l 359 591 "},"˙":{"x_min":140,"x_max":296,"ha":436,"o":"m 218 858 q 162 879 185 858 q 140 937 140 900 q 162 994 140 973 q 218 1016 185 1016 q 273 994 250 1016 q 296 937 296 973 q 273 879 296 900 q 218 858 250 858 "},"":{"x_min":33,"x_max":336,"ha":389,"o":"m 154 -88 q 215 -66 191 -88 q 239 -9 239 -44 q 207 54 239 34 q 140 75 176 75 l 107 75 l 107 157 l 145 157 q 172 160 158 157 q 198 172 186 163 q 219 194 211 180 q 228 228 228 208 q 209 275 228 260 q 159 291 190 291 q 114 282 135 291 q 70 259 92 274 l 37 334 q 98 367 66 355 q 166 379 130 379 q 234 367 205 379 q 283 336 263 355 q 311 294 302 317 q 321 245 321 270 q 302 172 321 201 q 257 122 284 144 q 314 66 293 102 q 336 -14 336 30 q 324 -75 336 -46 q 290 -127 313 -104 q 233 -163 267 -150 q 153 -177 199 -177 q 33 -142 91 -177 l 60 -58 q 106 -81 84 -74 q 154 -88 127 -88 "},"„":{"x_min":47,"x_max":458,"ha":543,"o":"m 223 158 q 225 138 225 146 q 225 119 225 130 q 200 -32 225 39 q 132 -173 175 -104 l 47 -147 q 92 -21 81 -85 q 104 99 104 42 q 103 129 104 114 q 101 158 102 144 l 223 158 m 456 158 q 458 138 458 146 q 458 119 458 130 q 433 -32 458 39 q 365 -173 408 -104 l 280 -147 q 325 -21 314 -85 q 337 99 337 42 q 336 129 337 114 q 334 158 335 144 l 456 158 "},"ӷ":{"x_min":107,"x_max":439,"ha":458,"o":"m 439 626 l 226 626 l 226 97 l 315 97 l 315 -201 l 198 -201 l 198 0 l 107 0 l 107 729 l 439 729 l 439 626 "},"δ":{"x_min":67,"x_max":580,"ha":647,"o":"m 67 339 q 114 559 67 459 q 261 722 161 658 q 186 802 216 761 q 156 907 156 844 q 171 985 156 952 q 214 1038 187 1018 q 279 1068 241 1058 q 358 1078 316 1078 q 437 1068 398 1078 q 512 1040 475 1059 l 485 944 q 431 968 462 958 q 365 979 401 979 q 271 904 271 979 q 297 834 271 866 q 374 761 323 802 q 450 690 413 729 q 516 603 487 652 q 562 490 545 554 q 580 345 580 427 q 564 209 580 274 q 518 92 549 143 q 438 11 487 41 q 323 -18 390 -18 q 207 11 255 -18 q 127 89 158 40 q 81 203 96 138 q 67 339 67 268 m 455 347 q 444 459 455 411 q 417 543 434 507 q 378 607 401 579 q 333 658 356 634 q 225 529 259 609 q 192 340 192 448 q 198 249 192 294 q 219 168 204 204 q 260 111 234 133 q 323 89 286 89 q 383 109 358 89 q 424 164 409 129 q 447 247 439 200 q 455 347 455 294 "},"Â":{"x_min":28,"x_max":671,"ha":699,"o":"m 415 963 q 481 752 448 858 q 545 529 514 645 q 608 282 576 412 q 671 0 639 151 l 545 0 q 523 123 535 62 q 499 246 511 184 l 195 246 q 170 123 181 184 q 148 0 159 62 l 28 0 q 90 281 58 151 q 153 529 122 412 q 217 752 184 645 q 283 963 250 858 l 415 963 m 347 821 q 280 588 312 705 q 219 350 248 472 l 474 350 q 414 589 446 472 q 347 821 382 705 m 247 1015 l 189 1063 l 348 1275 l 508 1063 l 449 1015 l 348 1133 l 247 1015 "},"Į":{"x_min":20,"x_max":245,"ha":358,"o":"m 245 -244 q 158 -260 206 -260 q 58 -230 97 -260 q 20 -147 20 -200 q 44 -60 20 -101 q 117 15 69 -19 l 117 963 l 242 963 l 242 0 q 157 -57 187 -29 q 128 -115 128 -86 q 145 -155 128 -143 q 187 -167 162 -167 q 238 -157 214 -167 l 245 -244 "},"ω":{"x_min":76,"x_max":825,"ha":901,"o":"m 608 -14 q 519 7 559 -14 q 450 73 478 29 q 293 -14 394 -14 q 190 15 231 -14 q 123 93 148 44 q 87 207 98 143 q 76 344 76 272 q 106 553 76 450 q 190 745 137 657 l 301 707 q 225 535 253 626 q 198 347 198 443 q 202 251 198 297 q 219 171 207 205 q 252 117 231 137 q 305 97 273 97 q 392 220 392 97 l 392 567 l 510 567 l 510 220 q 596 97 510 97 q 648 117 628 97 q 681 171 669 137 q 698 251 693 205 q 703 347 703 297 q 675 535 703 443 q 600 707 647 626 l 711 745 q 794 553 763 657 q 825 344 825 450 q 813 207 825 272 q 777 93 802 143 q 711 15 752 44 q 608 -14 669 -14 "},"´":{"x_min":149,"x_max":398,"ha":436,"o":"m 398 1007 l 208 808 l 149 859 l 313 1080 l 398 1007 "},"ǥ":{"x_min":67,"x_max":630,"ha":646,"o":"m 542 435 l 630 435 l 630 343 l 542 343 l 542 20 q 521 -110 542 -56 q 467 -197 501 -163 q 385 -245 432 -230 q 286 -261 339 -261 q 197 -251 242 -261 q 116 -222 153 -241 l 141 -121 q 202 -146 166 -135 q 277 -158 238 -158 q 384 -119 345 -158 q 423 13 423 -80 l 423 48 q 375 32 400 38 q 318 26 350 26 q 127 115 187 26 q 67 369 67 205 q 82 526 67 456 q 132 646 98 596 q 221 721 167 695 q 353 747 275 747 q 453 736 404 747 q 542 709 503 726 l 542 435 m 310 435 l 423 435 l 423 631 q 385 638 403 636 q 352 641 367 641 q 230 577 268 641 q 192 369 192 513 q 229 185 192 238 q 336 132 267 132 q 381 137 360 132 q 423 152 403 143 l 423 343 l 310 343 l 310 435 "},"Ɛ":{"x_min":68,"x_max":558,"ha":596,"o":"m 214 515 q 127 599 157 544 q 97 734 97 654 q 115 836 97 789 q 166 914 133 882 q 246 964 199 946 q 350 983 293 983 q 453 969 402 983 q 546 926 504 956 l 513 825 q 443 863 483 850 q 367 877 403 877 q 254 834 292 877 q 216 725 216 792 q 263 604 216 650 q 419 559 310 559 l 458 559 l 458 460 l 413 460 q 247 407 305 460 q 189 272 189 354 q 241 131 189 180 q 379 83 294 83 q 458 93 416 83 q 533 123 499 103 l 558 26 q 473 -8 520 4 q 370 -21 426 -21 q 143 57 219 -21 q 68 271 68 135 q 79 352 68 313 q 110 422 90 390 q 156 479 130 454 q 214 515 182 503 "},"Ƈ":{"x_min":76,"x_max":771,"ha":682,"o":"m 426 -21 q 166 101 256 -21 q 76 482 76 224 q 101 715 76 619 q 173 871 127 811 q 283 957 219 930 q 425 985 347 985 q 477 980 452 985 q 525 971 502 976 q 585 1062 545 1033 q 692 1092 625 1092 q 734 1087 714 1092 q 771 1075 754 1082 l 754 975 q 720 987 736 984 q 692 991 704 991 q 652 978 668 991 q 625 945 635 965 q 607 898 614 925 q 595 843 600 872 l 594 834 q 519 862 561 850 q 428 875 476 875 q 260 779 312 875 q 209 482 209 683 q 261 190 209 291 q 434 89 314 89 q 527 102 491 89 q 596 139 562 116 l 631 40 q 546 -2 599 15 q 426 -21 494 -21 "},"Ĉ":{"x_min":76,"x_max":630,"ha":651,"o":"m 425 -21 q 166 105 256 -21 q 76 495 76 231 q 101 723 76 630 q 173 875 127 816 q 281 959 219 933 q 417 985 344 985 q 531 969 479 985 q 618 929 584 953 l 580 825 q 508 861 547 847 q 420 875 470 875 q 259 782 309 875 q 209 495 209 690 q 261 194 209 300 q 434 89 314 89 q 526 102 491 89 q 595 139 561 116 l 630 40 q 546 -2 598 15 q 425 -21 493 -21 m 292 1015 l 234 1063 l 393 1275 l 553 1063 l 494 1015 l 393 1133 l 292 1015 "},"Љ":{"x_min":14,"x_max":1080,"ha":1129,"o":"m 361 857 l 361 819 q 359 675 361 750 q 351 522 358 600 q 334 370 345 445 q 302 224 323 294 q 200 46 269 106 q 26 -14 131 -14 l 14 93 q 115 136 73 102 q 184 252 157 169 q 215 378 204 311 q 231 518 226 446 q 237 666 236 590 q 239 819 239 743 l 239 963 l 687 963 l 687 606 l 746 606 q 882 589 821 606 q 987 535 943 572 q 1055 439 1031 498 q 1080 297 1080 380 q 1056 156 1080 215 q 990 61 1032 98 q 887 7 948 24 q 755 -10 827 -10 q 562 13 660 -10 l 562 857 l 361 857 m 687 104 q 755 100 717 100 q 833 109 798 100 q 894 142 868 119 q 934 202 920 165 q 948 297 948 240 q 933 390 948 352 q 891 451 918 427 q 825 485 864 475 q 738 496 786 496 l 687 496 l 687 104 "},"":{"x_min":32,"x_max":357,"ha":389,"o":"m 299 370 l 299 45 l 357 45 l 357 -36 l 299 -36 l 299 -168 l 210 -168 l 210 -36 l 32 -36 l 32 17 q 198 370 90 203 l 299 370 m 211 253 q 162 157 187 213 q 115 45 137 101 l 211 45 l 211 253 "},"р":{"x_min":107,"x_max":582,"ha":649,"o":"m 226 110 q 312 88 266 88 q 373 101 347 88 q 418 147 399 115 q 447 232 437 179 q 457 362 457 284 q 418 576 457 512 q 296 641 380 641 q 263 638 281 641 q 226 631 245 636 l 226 110 m 226 -257 l 107 -257 l 107 709 q 195 736 145 726 q 295 747 244 747 q 427 720 372 747 q 516 644 482 694 q 566 524 550 595 q 582 361 582 452 q 522 79 582 176 q 330 -18 463 -18 q 273 -11 298 -18 q 226 5 248 -5 l 226 -257 "},"т":{"x_min":19,"x_max":502,"ha":522,"o":"m 19 729 l 502 729 l 502 626 l 320 626 l 320 0 l 201 0 l 201 626 l 19 626 l 19 729 "},"П":{"x_min":117,"x_max":665,"ha":782,"o":"m 665 963 l 665 0 l 540 0 l 540 856 l 242 856 l 242 0 l 117 0 l 117 963 l 665 963 "},"Ö":{"x_min":78,"x_max":762,"ha":840,"o":"m 762 480 q 741 275 762 368 q 679 117 721 183 q 572 15 637 51 q 420 -21 508 -21 q 268 15 333 -21 q 161 117 204 51 q 98 275 119 183 q 78 480 78 368 q 98 686 78 593 q 161 845 119 779 q 268 948 204 911 q 420 985 333 985 q 572 948 508 985 q 679 845 637 911 q 741 686 721 779 q 762 480 762 593 m 629 480 q 617 640 629 568 q 581 764 606 712 q 517 845 556 816 q 420 875 477 875 q 324 845 363 875 q 259 764 284 816 q 222 640 234 712 q 211 480 211 568 q 222 320 211 393 q 259 197 234 248 q 324 117 284 145 q 420 89 363 89 q 517 117 477 89 q 581 197 556 145 q 617 320 606 248 q 629 480 629 393 m 305 1066 q 249 1087 272 1066 q 227 1145 227 1108 q 249 1202 227 1181 q 305 1224 272 1224 q 360 1202 337 1224 q 383 1145 383 1181 q 360 1087 383 1108 q 305 1066 337 1066 m 536 1066 q 480 1087 503 1066 q 458 1145 458 1108 q 480 1202 458 1181 q 536 1224 503 1224 q 591 1202 568 1224 q 614 1145 614 1181 q 591 1087 614 1108 q 536 1066 568 1066 "},"Θ":{"x_min":78,"x_max":762,"ha":840,"o":"m 292 539 l 546 539 l 546 429 l 292 429 l 292 539 m 762 480 q 741 275 762 368 q 679 117 721 183 q 572 15 637 51 q 420 -21 508 -21 q 268 15 333 -21 q 161 117 204 51 q 98 275 119 183 q 78 480 78 368 q 98 686 78 593 q 161 845 119 779 q 268 948 204 911 q 420 985 333 985 q 572 948 508 985 q 679 845 637 911 q 741 686 721 779 q 762 480 762 593 m 629 480 q 617 640 629 568 q 581 764 606 712 q 517 845 556 816 q 420 875 477 875 q 324 845 363 875 q 259 764 284 816 q 222 640 234 712 q 211 480 211 568 q 222 320 211 393 q 259 197 234 248 q 324 117 284 145 q 420 89 363 89 q 517 117 477 89 q 581 197 556 145 q 617 320 606 248 q 629 480 629 393 "},"Ř":{"x_min":117,"x_max":672,"ha":714,"o":"m 117 948 q 304 972 214 972 q 434 955 376 972 q 534 902 492 938 q 599 809 576 866 q 622 672 622 752 q 583 510 622 572 q 480 416 545 448 q 522 340 496 388 q 575 235 548 293 q 628 116 602 177 q 672 0 653 55 l 547 0 q 508 94 531 41 q 460 199 485 147 q 410 299 435 251 q 366 380 385 347 q 320 376 344 377 q 273 375 297 375 l 239 375 l 239 0 l 117 0 l 117 948 m 239 478 l 291 478 q 438 521 387 478 q 490 672 490 565 q 476 762 490 726 q 439 821 463 799 q 381 852 415 842 q 305 862 347 862 q 239 857 269 862 l 239 478 m 442 1275 l 501 1226 l 341 1015 l 182 1226 l 240 1275 l 341 1156 l 442 1275 "},"ᾝ":{"x_min":-45,"x_max":1431,"ha":1456,"o":"m 876 963 l 1001 963 l 1001 0 l 876 0 l 876 448 l 560 448 l 560 0 l 435 0 l 435 963 l 560 963 l 560 556 l 876 556 l 876 963 m 89 700 q 42 741 66 718 q 0 791 18 765 q -32 847 -19 818 q -45 907 -45 876 q -22 968 -45 947 q 31 989 0 989 q 81 968 61 989 q 102 916 102 948 q 89 874 102 892 q 54 847 77 855 q 87 796 66 823 q 133 745 109 769 l 89 700 m 381 938 l 236 697 l 171 734 l 288 986 l 381 938 m 1415 -14 q 1268 33 1312 -11 q 1224 183 1224 79 l 1224 729 l 1343 729 l 1343 181 q 1360 111 1343 133 q 1431 82 1377 90 l 1415 -14 "},"ƴ":{"x_min":2,"x_max":657,"ha":636,"o":"m 473 571 q 438 416 455 489 q 403 275 420 342 q 368 144 386 208 q 333 17 351 80 q 289 -111 311 -58 q 239 -197 266 -163 q 179 -245 212 -230 q 101 -261 146 -261 q 44 -254 69 -261 q 2 -241 18 -248 l 24 -144 q 57 -155 39 -151 q 94 -160 75 -160 q 132 -153 117 -160 q 159 -132 147 -147 q 182 -92 172 -118 q 204 -29 193 -66 l 214 5 q 161 163 187 77 q 111 343 136 249 q 63 535 86 437 q 21 729 40 633 l 147 729 q 172 590 157 665 q 204 439 187 515 q 237 293 220 363 q 271 165 255 222 q 314 354 290 243 q 365 599 338 465 q 424 707 380 674 q 527 740 468 740 q 598 728 563 740 q 657 702 633 717 l 620 616 q 588 634 607 624 q 545 644 569 644 q 473 571 490 644 "},"É":{"x_min":117,"x_max":570,"ha":633,"o":"m 117 0 l 117 963 l 548 963 l 548 856 l 242 856 l 242 557 l 519 557 l 519 453 l 242 453 l 242 107 l 570 107 l 570 0 l 117 0 m 500 1215 l 310 1016 l 251 1067 l 415 1288 l 500 1215 "},"ұ":{"x_min":28,"x_max":537,"ha":565,"o":"m 284 149 q 319 278 301 205 q 356 429 338 351 q 390 585 374 507 q 417 729 406 664 l 537 729 q 501 568 521 652 q 459 401 481 484 q 414 238 438 318 q 370 92 391 158 l 482 92 l 482 0 l 344 0 l 344 -254 l 225 -254 l 225 0 l 87 0 l 87 92 l 191 92 q 147 238 170 158 q 103 401 125 318 q 62 568 82 484 q 28 729 43 652 l 154 729 q 181 585 165 664 q 214 429 197 507 q 250 278 232 351 q 284 149 268 205 "},"и":{"x_min":108,"x_max":571,"ha":679,"o":"m 571 733 l 571 0 l 458 0 l 458 527 q 392 403 428 473 q 320 262 356 334 q 254 121 285 190 q 202 0 222 52 l 108 0 l 108 733 l 219 733 l 219 252 q 277 375 244 309 q 345 506 310 441 q 414 629 380 570 q 477 733 448 688 l 571 733 "},"³":{"x_min":33,"x_max":336,"ha":389,"o":"m 154 504 q 215 525 191 504 q 239 582 239 547 q 207 646 239 626 q 140 667 176 667 l 107 667 l 107 749 l 145 749 q 172 752 158 749 q 198 764 186 755 q 219 786 211 772 q 228 820 228 800 q 209 867 228 852 q 159 883 190 883 q 114 874 135 883 q 70 851 92 866 l 37 926 q 98 959 66 947 q 166 971 130 971 q 234 959 205 971 q 283 928 263 947 q 311 886 302 909 q 321 837 321 862 q 302 764 321 793 q 257 714 284 736 q 314 658 293 694 q 336 577 336 622 q 324 516 336 545 q 290 464 313 487 q 233 428 267 441 q 153 415 199 415 q 33 449 91 415 l 60 533 q 106 510 84 517 q 154 504 127 504 "},"Ӫ":{"x_min":78,"x_max":762,"ha":840,"o":"m 762 480 q 741 275 762 368 q 679 117 721 183 q 572 15 637 51 q 420 -21 508 -21 q 268 15 333 -21 q 161 117 204 51 q 98 275 119 183 q 78 480 78 368 q 98 686 78 593 q 161 845 119 779 q 268 948 204 911 q 420 985 333 985 q 572 948 508 985 q 679 845 637 911 q 741 686 721 779 q 762 480 762 593 m 420 89 q 511 113 474 89 q 574 184 549 138 q 611 293 599 229 q 627 436 624 356 l 211 436 q 226 293 213 356 q 265 184 240 229 q 328 113 290 138 q 420 89 367 89 m 420 875 q 329 850 367 875 q 265 779 291 825 q 226 669 240 733 q 211 528 213 605 l 627 528 q 611 669 624 605 q 574 779 599 733 q 511 850 549 825 q 420 875 473 875 m 535 1067 q 479 1088 502 1067 q 457 1146 457 1109 q 479 1203 457 1182 q 535 1225 502 1225 q 590 1203 567 1225 q 613 1146 613 1182 q 590 1088 613 1109 q 535 1067 567 1067 m 304 1067 q 248 1088 271 1067 q 226 1146 226 1109 q 248 1203 226 1182 q 304 1225 271 1225 q 359 1203 336 1225 q 382 1146 382 1182 q 359 1088 382 1109 q 304 1067 336 1067 "},"[":{"x_min":130,"x_max":382,"ha":390,"o":"m 130 1088 l 382 1088 l 382 994 l 244 994 l 244 -163 l 382 -163 l 382 -257 l 130 -257 l 130 1088 "},"ζ":{"x_min":53,"x_max":515,"ha":528,"o":"m 53 309 q 75 469 53 387 q 137 634 97 551 q 233 801 177 717 q 354 965 289 884 l 86 965 l 86 1068 l 496 1068 l 496 978 q 261 634 346 795 q 177 316 177 473 q 190 222 177 258 q 230 163 204 186 q 293 126 255 140 q 376 97 330 112 q 484 27 454 72 q 515 -77 515 -16 q 496 -172 515 -126 q 443 -261 477 -219 l 347 -220 q 383 -156 371 -186 q 396 -99 396 -127 q 374 -33 396 -59 q 286 12 352 -6 q 188 51 232 29 q 114 108 144 73 q 68 191 84 143 q 53 309 53 240 "},"":{"x_min":74,"x_max":963,"ha":1008,"o":"m 375 588 q 363 522 375 554 q 330 467 352 491 q 275 428 308 442 q 198 415 241 415 q 131 423 164 415 q 74 444 98 431 l 89 525 q 178 505 136 505 q 246 527 219 505 q 274 595 274 549 q 242 665 274 637 q 131 694 210 694 q 116 693 124 694 q 102 693 108 693 q 113 829 108 758 q 120 963 117 900 l 358 963 l 358 877 l 200 877 q 198 822 199 850 q 194 767 196 793 q 327 712 279 758 q 375 588 375 666 m 755 963 l 362 0 l 258 0 l 650 963 l 755 963 m 658 69 q 786 107 737 75 q 855 212 836 138 q 817 202 836 205 q 782 199 798 199 q 679 243 719 199 q 639 372 639 287 q 679 501 639 453 q 796 549 719 549 q 921 488 880 549 q 963 319 963 428 q 937 169 963 230 q 872 69 912 108 q 780 12 832 30 q 674 -7 729 -5 l 658 69 m 803 275 q 832 278 816 275 q 867 291 848 281 l 867 307 q 797 466 867 466 q 739 367 739 466 q 755 295 739 316 q 803 275 771 275 "},"ῇ":{"x_min":108,"x_max":570,"ha":670,"o":"m 108 710 q 219 736 159 726 q 329 747 279 747 q 428 732 383 747 q 503 683 472 717 q 552 589 535 648 q 570 442 570 530 l 570 -257 l 451 -257 l 451 432 q 423 591 451 541 q 318 641 395 641 q 227 627 277 641 l 227 0 l 108 0 l 108 710 m 220 -87 q 238 -163 220 -142 q 290 -184 256 -184 q 307 -182 302 -184 l 307 -254 q 288 -258 300 -257 q 260 -260 275 -260 q 157 -222 199 -260 q 116 -98 116 -185 q 116 -84 116 -93 q 117 -69 116 -75 l 220 -69 l 220 -87 m 338 1055 q 456 1004 414 1055 q 498 861 498 953 l 417 861 q 398 940 414 907 q 338 974 382 974 q 277 940 293 974 q 259 861 261 907 l 178 861 q 219 1004 178 953 q 338 1055 260 1055 "},"Ἅ":{"x_min":-45,"x_max":842,"ha":856,"o":"m 586 963 q 652 752 619 858 q 716 529 685 645 q 779 282 747 412 q 842 0 810 151 l 716 0 q 694 123 706 62 q 670 246 682 184 l 366 246 q 341 123 352 184 q 319 0 330 62 l 199 0 q 261 281 229 151 q 324 529 293 412 q 388 752 355 645 q 454 963 421 858 l 586 963 m 518 821 q 451 588 483 705 q 390 350 419 472 l 645 350 q 585 589 617 472 q 518 821 553 705 m 89 700 q 42 741 66 718 q 0 791 18 765 q -32 847 -19 818 q -45 907 -45 876 q -22 968 -45 947 q 31 989 0 989 q 81 968 61 989 q 102 916 102 948 q 89 874 102 892 q 54 847 77 855 q 87 796 66 823 q 133 745 109 769 l 89 700 m 381 938 l 236 697 l 171 734 l 288 986 l 381 938 "},"Ρ":{"x_min":117,"x_max":628,"ha":674,"o":"m 117 948 q 307 972 214 972 q 438 954 379 972 q 539 900 497 937 q 605 805 582 863 q 628 665 628 747 q 604 522 628 581 q 537 427 580 463 q 434 373 494 390 q 300 357 373 357 l 242 357 l 242 0 l 117 0 l 117 948 m 242 467 l 291 467 q 377 477 339 467 q 441 511 415 487 q 482 572 468 534 q 496 665 496 609 q 482 758 496 720 q 443 819 468 796 q 384 852 419 842 q 308 862 350 862 q 242 857 272 862 l 242 467 "},"ῌ":{"x_min":117,"x_max":1113,"ha":1138,"o":"m 558 963 l 683 963 l 683 0 l 558 0 l 558 448 l 242 448 l 242 0 l 117 0 l 117 963 l 242 963 l 242 556 l 558 556 l 558 963 m 1097 -14 q 950 33 994 -11 q 906 183 906 79 l 906 729 l 1025 729 l 1025 181 q 1042 111 1025 133 q 1113 82 1059 90 l 1097 -14 "},"ᾎ":{"x_min":-54,"x_max":1123,"ha":1147,"o":"m 533 963 q 599 752 566 858 q 663 529 632 645 q 726 282 694 412 q 789 0 757 151 l 663 0 q 641 123 653 62 q 617 246 629 184 l 313 246 q 288 123 299 184 q 266 0 277 62 l 146 0 q 208 281 176 151 q 271 529 240 412 q 335 752 302 645 q 401 963 368 858 l 533 963 m 465 821 q 398 588 430 705 q 337 350 366 472 l 592 350 q 532 589 564 472 q 465 821 500 705 m 129 1074 q 202 1062 168 1074 q 260 1028 235 1050 q 300 974 285 1007 q 315 901 315 942 l 237 901 q 204 963 231 937 q 129 989 178 989 q 55 963 81 989 q 24 901 29 937 l -54 901 q -40 974 -54 942 q -1 1028 -26 1007 q 57 1062 23 1050 q 129 1074 90 1074 m 26 691 q 70 729 49 709 q 104 768 90 749 q 74 791 84 774 q 64 828 64 808 q 83 876 64 858 q 130 894 102 894 q 181 873 159 894 q 203 817 203 852 q 190 768 203 792 q 159 722 177 744 q 115 682 140 701 q 69 650 91 663 l 26 691 m 1107 -14 q 960 33 1004 -11 q 916 183 916 79 l 916 729 l 1035 729 l 1035 181 q 1052 111 1035 133 q 1123 82 1069 90 l 1107 -14 "},"ª":{"x_min":50,"x_max":369,"ha":440,"o":"m 280 687 q 251 691 266 690 q 221 693 237 693 q 166 677 192 693 q 140 616 140 661 q 162 554 140 573 q 227 536 185 536 q 280 542 256 536 l 280 687 m 212 981 q 286 967 256 981 q 335 931 316 954 q 361 877 353 908 q 369 810 369 846 l 369 479 q 303 463 341 470 q 224 457 266 457 q 97 495 145 457 q 50 616 50 533 q 63 687 50 658 q 99 735 76 716 q 151 762 122 753 q 214 772 181 772 q 280 763 248 772 l 280 811 q 262 874 280 850 q 198 898 244 898 q 148 891 173 898 q 104 875 123 885 l 92 955 q 146 973 114 965 q 212 981 179 981 "},"Ἓ":{"x_min":-46,"x_max":856,"ha":920,"o":"m 403 0 l 403 963 l 834 963 l 834 856 l 528 856 l 528 557 l 805 557 l 805 453 l 528 453 l 528 107 l 856 107 l 856 0 l 403 0 m 88 700 q 41 741 65 718 q -1 791 17 765 q -33 847 -20 818 q -46 907 -46 876 q -23 968 -46 947 q 30 989 -1 989 q 80 968 60 989 q 101 916 101 948 q 88 874 101 892 q 53 847 76 855 q 86 796 65 823 q 132 745 108 769 l 88 700 m 227 986 l 344 734 l 279 697 l 134 938 l 227 986 "},"ї":{"x_min":-25,"x_max":362,"ha":336,"o":"m 227 0 l 108 0 l 108 729 l 227 729 l 227 0 m 53 858 q -2 879 20 858 q -25 937 -25 900 q -2 994 -25 973 q 53 1016 20 1016 q 108 994 85 1016 q 131 937 131 973 q 108 879 131 900 q 53 858 85 858 m 284 858 q 228 879 251 858 q 206 937 206 900 q 228 994 206 973 q 284 1016 251 1016 q 339 994 316 1016 q 362 937 362 973 q 339 879 362 900 q 284 858 316 858 "},"ﬀ":{"x_min":108,"x_max":866,"ha":850,"o":"m 320 1078 q 391 1069 360 1078 q 441 1051 421 1061 l 415 957 q 375 972 396 967 q 331 977 354 977 q 278 965 299 977 q 246 935 257 954 q 231 888 235 915 q 227 830 227 861 l 227 729 l 415 729 l 415 626 l 227 626 l 227 0 l 108 0 l 108 830 q 160 1013 108 948 q 320 1078 213 1078 m 745 1078 q 816 1069 785 1078 q 866 1051 846 1061 l 840 957 q 800 972 821 967 q 756 977 779 977 q 703 965 724 977 q 671 935 682 954 q 656 888 660 915 q 652 830 652 861 l 652 729 l 840 729 l 840 626 l 652 626 l 652 0 l 533 0 l 533 830 q 585 1013 533 948 q 745 1078 638 1078 "},"š":{"x_min":50,"x_max":438,"ha":474,"o":"m 209 85 q 289 114 262 85 q 317 193 317 144 q 305 245 317 223 q 276 283 294 266 q 234 313 258 300 q 187 341 211 326 q 141 374 164 355 q 102 417 119 393 q 74 472 84 441 q 64 545 64 504 q 120 691 64 635 q 272 747 176 747 q 349 736 313 747 q 409 713 385 726 l 382 618 q 332 639 357 632 q 278 646 307 646 q 207 620 233 646 q 181 545 181 594 q 190 498 181 518 q 216 461 200 477 q 252 431 232 445 q 294 405 272 418 q 347 372 321 390 q 392 329 372 354 q 425 272 413 305 q 438 194 438 240 q 381 40 438 98 q 216 -18 325 -18 q 116 -2 161 -18 q 50 25 72 12 l 75 123 q 131 98 95 112 q 209 85 166 85 m 344 1067 l 403 1018 l 243 807 l 84 1018 l 142 1067 l 243 948 l 344 1067 "},"₮":{"x_min":22,"x_max":575,"ha":597,"o":"m 575 963 l 575 860 l 358 860 l 358 643 l 483 709 l 525 627 l 358 540 l 358 387 l 483 453 l 525 371 l 358 284 l 358 0 l 239 0 l 239 223 l 114 160 l 72 241 l 239 326 l 239 479 l 114 416 l 72 497 l 239 582 l 239 860 l 22 860 l 22 963 l 575 963 "},"Ƕ":{"x_min":117,"x_max":1071,"ha":1171,"o":"m 559 963 l 684 963 l 684 265 q 714 139 684 188 q 814 91 745 91 q 915 139 885 91 q 946 267 946 188 l 946 728 l 1071 728 l 1071 266 q 1005 62 1071 140 q 814 -15 940 -15 q 623 58 688 -15 q 559 267 559 132 l 559 448 l 242 448 l 242 0 l 117 0 l 117 963 l 242 963 l 242 556 l 559 556 l 559 963 "},"1":{"x_min":98,"x_max":386,"ha":597,"o":"m 98 771 q 152 808 124 786 q 207 856 181 831 q 256 909 233 882 q 294 963 279 936 l 386 963 l 386 0 l 267 0 l 267 774 q 212 726 243 749 q 146 685 181 704 l 98 771 "},"ҍ":{"x_min":20,"x_max":551,"ha":583,"o":"m 20 663 l 108 663 l 108 767 l 227 767 l 227 663 l 405 663 l 405 571 l 227 571 l 227 459 q 307 468 268 468 q 483 405 416 468 q 551 227 551 343 q 530 113 551 159 q 475 38 510 66 q 391 -2 439 9 q 287 -15 344 -15 q 194 -8 239 -15 q 108 10 149 -1 l 108 571 l 20 571 l 20 663 m 227 98 q 257 94 242 96 q 289 92 272 92 q 392 123 358 92 q 427 228 427 155 q 420 280 427 255 q 399 324 414 305 q 358 353 383 343 q 295 364 332 364 q 263 361 279 364 q 227 357 246 359 l 227 98 "},"ℓ":{"x_min":6,"x_max":469,"ha":499,"o":"m 450 854 q 397 592 450 717 q 257 364 344 466 l 257 200 q 274 114 257 146 q 335 83 291 83 q 431 120 387 83 l 469 33 q 404 -5 439 9 q 319 -21 369 -21 q 180 41 222 -21 q 138 203 138 103 l 138 245 l 61 173 l 6 235 l 138 363 l 138 855 q 150 963 138 920 q 184 1032 162 1007 q 234 1067 205 1057 q 294 1078 262 1078 q 368 1059 339 1078 q 416 1011 398 1041 q 442 940 434 980 q 450 854 450 900 m 257 493 q 336 658 315 573 q 357 855 357 744 q 347 946 357 913 q 309 979 338 979 q 267 948 277 979 q 257 855 257 917 l 257 493 "},"Ǜ":{"x_min":108,"x_max":655,"ha":763,"o":"m 378 -21 q 175 55 243 -21 q 108 297 108 131 l 108 963 l 233 963 l 233 308 q 265 143 233 198 q 380 89 297 89 q 498 145 467 89 q 530 308 530 201 l 530 963 l 655 963 l 655 297 q 585 56 655 134 q 378 -21 515 -21 m 320 1330 l 453 1134 l 393 1087 l 240 1261 l 320 1330 m 192 1040 q 140 1060 161 1040 q 120 1113 120 1080 q 140 1166 120 1146 q 192 1187 161 1187 q 243 1166 222 1187 q 264 1113 264 1146 q 243 1060 264 1080 q 192 1040 222 1040 m 569 1040 q 517 1060 538 1040 q 497 1113 497 1080 q 517 1166 497 1146 q 569 1187 538 1187 q 620 1166 599 1187 q 641 1113 641 1146 q 620 1060 641 1080 q 569 1040 599 1040 "},"ǒ":{"x_min":67,"x_max":576,"ha":643,"o":"m 576 363 q 560 207 576 277 q 514 87 545 137 q 435 9 483 37 q 322 -18 387 -18 q 208 9 257 -18 q 128 87 159 37 q 82 207 97 137 q 67 363 67 277 q 82 519 67 448 q 128 640 97 590 q 208 719 159 691 q 322 747 257 747 q 435 719 387 747 q 514 640 483 691 q 560 519 545 590 q 576 363 576 448 m 451 363 q 444 475 451 424 q 421 562 437 526 q 381 619 406 599 q 322 640 356 640 q 261 619 286 640 q 221 562 237 599 q 198 475 205 526 q 192 363 192 424 q 198 252 192 302 q 221 165 205 201 q 261 109 237 129 q 322 89 286 89 q 381 109 356 89 q 421 165 406 129 q 444 252 437 201 q 451 363 451 302 m 422 1067 l 481 1018 l 321 807 l 162 1018 l 220 1067 l 321 948 l 422 1067 "},"ἥ":{"x_min":108,"x_max":570,"ha":670,"o":"m 108 710 q 219 736 159 726 q 329 747 279 747 q 428 732 383 747 q 503 683 472 717 q 552 589 535 648 q 570 442 570 530 l 570 -257 l 451 -257 l 451 432 q 423 591 451 541 q 318 641 395 641 q 227 627 277 641 l 227 0 l 108 0 l 108 710 m 267 800 q 220 841 244 818 q 177 891 196 865 q 145 947 158 918 q 133 1007 133 976 q 155 1068 133 1047 q 209 1089 177 1089 q 259 1068 239 1089 q 280 1016 280 1048 q 267 974 280 992 q 232 947 255 955 q 265 896 244 923 q 311 845 287 869 l 267 800 m 559 1038 l 414 797 l 349 834 l 466 1086 l 559 1038 "},"ӡ":{"x_min":14,"x_max":462,"ha":504,"o":"m 110 298 q 211 455 162 377 q 302 619 259 534 l 36 619 l 36 722 l 433 722 l 433 652 q 336 478 385 560 q 229 311 286 395 q 402 217 342 290 q 462 26 462 144 q 441 -91 462 -38 q 383 -181 421 -144 q 290 -240 345 -219 q 167 -261 235 -261 q 84 -251 123 -261 q 14 -229 45 -242 l 36 -125 q 101 -147 68 -139 q 167 -155 134 -155 q 236 -143 205 -155 q 291 -109 267 -132 q 327 -51 314 -87 q 341 34 341 -15 q 288 170 341 122 q 140 219 235 219 l 110 219 l 110 298 "},"ī":{"x_min":19,"x_max":315,"ha":336,"o":"m 227 0 l 108 0 l 108 729 l 227 729 l 227 0 m 19 987 l 315 987 l 315 893 l 19 893 l 19 987 "},"ӹ":{"x_min":108,"x_max":825,"ha":933,"o":"m 108 729 l 227 729 l 227 459 q 309 468 268 468 q 489 405 420 468 q 559 227 559 343 q 538 113 559 159 q 482 38 518 66 q 397 -2 446 9 q 290 -15 348 -15 q 196 -8 241 -15 q 108 10 151 -1 l 108 729 m 706 0 l 706 729 l 825 729 l 825 0 l 706 0 m 227 94 q 259 90 243 92 q 292 88 274 88 q 399 120 363 88 q 435 226 435 153 q 428 280 435 255 q 405 324 421 305 q 363 353 390 342 q 298 365 337 365 q 264 362 282 365 q 227 358 246 360 l 227 94 m 351 858 q 295 879 318 858 q 273 937 273 900 q 295 994 273 973 q 351 1016 318 1016 q 406 994 383 1016 q 429 937 429 973 q 406 879 429 900 q 351 858 383 858 m 582 858 q 526 879 549 858 q 504 937 504 900 q 526 994 504 973 q 582 1016 549 1016 q 637 994 614 1016 q 660 937 660 973 q 637 879 660 900 q 582 858 614 858 "},"G":{"x_min":76,"x_max":633,"ha":729,"o":"m 76 482 q 100 714 76 618 q 172 870 125 809 q 284 957 219 930 q 432 985 350 985 q 546 967 495 985 q 630 928 598 950 l 591 823 q 521 860 559 845 q 435 875 484 875 q 261 777 314 875 q 209 482 209 679 q 224 301 209 376 q 270 179 240 226 q 341 110 299 132 q 434 88 382 88 q 508 97 477 88 l 508 474 l 633 474 l 633 21 q 539 -9 595 3 q 423 -22 484 -22 q 284 7 348 -22 q 173 99 220 37 q 101 256 127 161 q 76 482 76 351 "},"`":{"x_min":39,"x_max":288,"ha":436,"o":"m 123 1080 l 288 859 l 228 808 l 39 1007 l 123 1080 "},"ŏ":{"x_min":67,"x_max":576,"ha":643,"o":"m 576 363 q 560 207 576 277 q 514 87 545 137 q 435 9 483 37 q 322 -18 387 -18 q 208 9 257 -18 q 128 87 159 37 q 82 207 97 137 q 67 363 67 277 q 82 519 67 448 q 128 640 97 590 q 208 719 159 691 q 322 747 257 747 q 435 719 387 747 q 514 640 483 691 q 560 519 545 590 q 576 363 576 448 m 451 363 q 444 475 451 424 q 421 562 437 526 q 381 619 406 599 q 322 640 356 640 q 261 619 286 640 q 221 562 237 599 q 198 475 205 526 q 192 363 192 424 q 198 252 192 302 q 221 165 205 201 q 261 109 237 129 q 322 89 286 89 q 381 109 356 89 q 421 165 406 129 q 444 252 437 201 q 451 363 451 302 m 321 854 q 202 904 243 854 q 162 1048 162 955 l 243 1048 q 261 968 245 1001 q 321 935 277 935 q 381 968 365 935 q 400 1048 397 1001 l 481 1048 q 439 904 481 955 q 321 854 397 854 "},"ý":{"x_min":2,"x_max":532,"ha":550,"o":"m 276 151 q 350 430 316 290 q 413 729 383 570 l 532 729 q 486 528 511 627 q 436 338 462 430 q 385 165 410 247 q 337 17 359 84 q 286 -113 310 -59 q 233 -199 262 -166 q 172 -246 205 -231 q 93 -261 139 -261 q 43 -254 68 -261 q 2 -241 18 -248 l 24 -144 q 92 -160 60 -160 q 157 -130 132 -160 q 206 -43 182 -101 l 219 -8 q 166 151 193 63 q 113 335 139 240 q 64 532 87 431 q 21 729 40 633 l 147 729 q 173 585 158 663 q 206 430 189 508 q 241 279 223 352 q 276 151 259 206 m 450 1007 l 260 808 l 201 859 l 365 1080 l 450 1007 "},"º":{"x_min":57,"x_max":449,"ha":506,"o":"m 449 723 q 394 526 449 591 q 253 461 339 461 q 111 525 166 461 q 57 723 57 590 q 111 922 57 858 q 253 986 166 986 q 394 922 339 986 q 449 723 449 858 m 352 723 q 326 857 352 815 q 253 900 300 900 q 180 857 206 900 q 154 723 154 815 q 179 590 154 633 q 253 547 205 547 q 326 590 300 547 q 352 723 352 633 "},"ȑ":{"x_min":28,"x_max":445,"ha":456,"o":"m 424 620 q 323 640 379 640 q 227 621 271 640 l 227 0 l 108 0 l 108 697 q 200 729 148 716 q 315 743 252 743 q 382 738 348 743 q 445 723 415 734 l 424 620 m 304 1089 l 437 852 l 373 814 l 218 1032 l 304 1089 m 114 1089 l 247 852 l 183 814 l 28 1032 l 114 1089 "},"Ί":{"x_min":-58,"x_max":371,"ha":488,"o":"m 191 907 l 1 708 l -58 759 l 106 980 l 191 907 m 246 963 l 371 963 l 371 0 l 246 0 l 246 963 "},"ӛ":{"x_min":68,"x_max":538,"ha":606,"o":"m 416 399 q 406 494 414 450 q 379 572 397 539 q 329 622 360 604 q 249 641 297 641 q 174 629 208 641 q 125 609 140 617 l 103 705 q 163 732 121 717 q 264 747 205 747 q 392 719 340 747 q 476 641 444 691 q 523 522 508 591 q 538 369 538 452 q 520 195 538 268 q 471 75 503 122 q 394 4 439 27 q 294 -18 348 -18 q 119 74 170 -18 q 68 335 68 167 q 68 366 68 350 q 69 399 68 382 l 416 399 m 294 83 q 381 142 354 83 q 414 302 409 202 l 193 302 q 213 141 193 200 q 294 83 234 83 m 179 858 q 123 879 146 858 q 101 937 101 900 q 123 994 101 973 q 179 1016 146 1016 q 234 994 211 1016 q 257 937 257 973 q 234 879 257 900 q 179 858 211 858 m 410 858 q 354 879 377 858 q 332 937 332 900 q 354 994 332 973 q 410 1016 377 1016 q 465 994 442 1016 q 488 937 488 973 q 465 879 488 900 q 410 858 442 858 "},"ń":{"x_min":108,"x_max":570,"ha":670,"o":"m 108 708 q 219 734 159 724 q 329 745 279 745 q 428 730 383 745 q 503 681 472 715 q 552 587 535 646 q 570 440 570 528 l 570 0 l 451 0 l 451 430 q 423 588 451 538 q 318 639 395 639 q 227 625 277 639 l 227 0 l 108 0 l 108 708 m 504 1007 l 314 808 l 255 859 l 419 1080 l 504 1007 "},"ἒ":{"x_min":63,"x_max":524,"ha":536,"o":"m 190 389 q 115 450 146 409 q 85 556 85 490 q 103 634 85 599 q 151 694 121 669 q 223 733 182 719 q 313 747 265 747 q 394 736 349 747 q 472 709 438 726 l 445 614 q 385 637 413 629 q 318 646 357 646 q 235 622 269 646 q 202 546 202 598 q 237 467 202 500 q 354 435 272 435 l 399 435 l 399 335 l 350 335 q 285 328 315 335 q 231 305 254 321 q 194 265 208 290 q 181 203 181 240 q 193 148 181 171 q 225 112 205 126 q 270 91 244 97 q 322 85 296 85 q 401 94 366 85 q 468 118 436 103 l 496 22 q 412 -7 455 2 q 321 -18 369 -18 q 133 36 203 -18 q 63 200 63 90 q 95 313 63 269 q 190 389 128 357 m 93 845 q 137 896 116 869 q 171 947 158 923 q 135 974 147 955 q 124 1016 124 992 q 144 1068 124 1048 q 194 1089 164 1089 q 248 1068 226 1089 q 271 1007 271 1047 q 258 947 271 976 q 226 891 245 918 q 182 841 207 865 q 136 800 158 818 l 93 845 m 407 1086 l 524 834 l 459 797 l 314 1038 l 407 1086 "},"ἑ":{"x_min":63,"x_max":496,"ha":536,"o":"m 190 389 q 115 450 146 409 q 85 556 85 490 q 103 634 85 599 q 151 694 121 669 q 223 733 182 719 q 313 747 265 747 q 394 736 349 747 q 472 709 438 726 l 445 614 q 385 637 413 629 q 318 646 357 646 q 235 622 269 646 q 202 546 202 598 q 237 467 202 500 q 354 435 272 435 l 399 435 l 399 335 l 350 335 q 285 328 315 335 q 231 305 254 321 q 194 265 208 290 q 181 203 181 240 q 193 148 181 171 q 225 112 205 126 q 270 91 244 97 q 322 85 296 85 q 401 94 366 85 q 468 118 436 103 l 496 22 q 412 -7 455 2 q 321 -18 369 -18 q 133 36 203 -18 q 63 200 63 90 q 95 313 63 269 q 190 389 128 357 m 337 800 q 285 841 312 818 q 238 891 259 865 q 202 947 216 918 q 189 1007 189 976 q 212 1068 189 1047 q 269 1089 236 1089 q 322 1068 301 1089 q 343 1016 343 1048 q 330 974 343 992 q 295 947 318 955 q 335 896 311 923 q 387 845 359 869 l 337 800 "},"Ь":{"x_min":117,"x_max":635,"ha":681,"o":"m 242 963 l 242 606 l 301 606 q 437 589 376 606 q 542 535 498 572 q 610 439 586 498 q 635 297 635 380 q 611 156 635 215 q 545 61 587 98 q 442 7 503 24 q 310 -10 382 -10 q 117 13 215 -10 l 117 963 l 242 963 m 242 104 q 310 100 272 100 q 388 109 353 100 q 449 142 423 119 q 489 202 475 165 q 503 297 503 240 q 488 390 503 352 q 446 451 473 427 q 380 485 419 475 q 293 496 341 496 l 242 496 l 242 104 "},"ƽ":{"x_min":36,"x_max":450,"ha":508,"o":"m 237 619 q 227 504 230 548 q 221 434 223 460 q 387 365 325 421 q 450 210 450 309 q 430 110 450 153 q 377 38 411 67 q 295 -5 342 9 q 194 -21 248 -21 q 117 -9 156 -21 q 44 22 78 1 l 77 121 q 133 96 105 105 q 200 87 162 87 q 291 118 251 87 q 331 213 331 149 q 274 315 331 279 q 127 352 218 352 l 108 352 q 123 492 117 432 q 131 618 128 552 l 36 618 l 36 722 l 424 722 l 424 619 l 237 619 "},"ᾯ":{"x_min":-54,"x_max":1371,"ha":1396,"o":"m 129 1074 q 202 1062 168 1074 q 260 1028 235 1050 q 300 974 285 1007 q 315 901 315 942 l 237 901 q 204 963 231 937 q 129 989 178 989 q 55 963 81 989 q 24 901 29 937 l -54 901 q -40 974 -54 942 q -1 1028 -26 1007 q 57 1062 23 1050 q 129 1074 90 1074 m 193 650 q 146 682 170 663 q 103 722 122 701 q 72 768 85 744 q 60 817 60 792 q 81 873 60 852 q 132 894 103 894 q 179 876 160 894 q 199 828 199 858 q 188 791 199 808 q 158 768 178 774 q 191 729 171 749 q 237 691 211 709 l 193 650 m 635 878 q 553 858 590 878 q 487 796 515 839 q 443 687 459 754 q 428 525 428 619 q 471 277 428 387 q 578 82 514 167 l 578 0 l 279 0 l 279 106 l 436 106 q 386 186 411 140 q 341 286 361 232 q 308 403 321 340 q 296 532 296 465 q 320 727 296 642 q 389 870 344 812 q 496 958 433 928 q 635 988 558 988 q 772 958 710 988 q 879 870 835 928 q 948 727 924 812 q 973 532 973 642 q 960 403 973 465 q 927 286 947 340 q 882 186 907 232 q 832 106 857 140 l 990 106 l 990 0 l 691 0 l 691 82 q 748 173 721 124 q 796 278 775 222 q 829 395 817 333 q 841 525 841 457 q 825 687 841 619 q 781 796 809 754 q 716 858 754 839 q 635 878 678 878 m 1355 -14 q 1208 33 1252 -11 q 1164 183 1164 79 l 1164 729 l 1283 729 l 1283 181 q 1300 111 1283 133 q 1371 82 1317 90 l 1355 -14 "},"¤":{"x_min":42,"x_max":558,"ha":597,"o":"m 93 483 q 123 635 93 569 l 42 747 l 122 817 l 193 718 q 300 749 241 749 q 405 718 359 749 l 477 817 l 558 747 l 476 635 q 507 483 507 569 q 476 333 507 398 l 558 222 l 477 153 l 406 248 q 300 218 361 218 q 191 248 240 218 l 122 153 l 42 222 l 122 333 q 93 483 93 395 m 190 483 q 219 356 190 401 q 300 311 248 311 q 380 356 351 311 q 410 483 410 401 q 380 610 410 565 q 300 656 351 656 q 219 610 248 656 q 190 483 190 565 "},"Ǣ":{"x_min":3,"x_max":950,"ha":1013,"o":"m 496 0 l 496 246 l 215 246 q 167 121 190 183 q 123 0 144 59 l 3 0 q 96 247 44 120 q 203 498 147 373 q 319 742 260 623 q 436 963 379 860 l 928 963 l 928 856 l 621 856 l 621 557 l 899 557 l 899 453 l 621 453 l 621 107 l 950 107 l 950 0 l 496 0 m 496 343 l 496 850 q 374 605 433 732 q 259 350 314 479 l 494 350 l 496 343 m 441 1204 l 737 1204 l 737 1110 l 441 1110 l 441 1204 "},"Ɨ":{"x_min":17,"x_max":386,"ha":403,"o":"m 17 549 l 139 549 l 139 963 l 264 963 l 264 549 l 386 549 l 386 457 l 264 457 l 264 0 l 139 0 l 139 457 l 17 457 l 17 549 "},"p":{"x_min":107,"x_max":582,"ha":649,"o":"m 226 110 q 312 88 266 88 q 373 101 347 88 q 418 147 399 115 q 447 232 437 179 q 457 362 457 284 q 418 576 457 512 q 296 641 380 641 q 263 638 281 641 q 226 631 245 636 l 226 110 m 226 -257 l 107 -257 l 107 709 q 195 736 145 726 q 295 747 244 747 q 427 720 372 747 q 516 644 482 694 q 566 524 550 595 q 582 361 582 452 q 522 79 582 176 q 330 -18 463 -18 q 273 -11 298 -18 q 226 5 248 -5 l 226 -257 "},"Ἤ":{"x_min":-59,"x_max":955,"ha":1072,"o":"m 830 963 l 955 963 l 955 0 l 830 0 l 830 448 l 514 448 l 514 0 l 389 0 l 389 963 l 514 963 l 514 556 l 830 556 l 830 963 m -59 745 q -14 796 -35 769 q 19 847 6 823 q -16 874 -4 855 q -28 916 -28 892 q -7 968 -28 948 q 42 989 12 989 q 96 968 74 989 q 119 907 119 947 q 106 847 119 876 q 74 791 93 818 q 30 741 55 765 q -15 700 6 718 l -59 745 m 333 938 l 188 697 l 123 734 l 240 986 l 333 938 "},"ο":{"x_min":67,"x_max":576,"ha":643,"o":"m 576 363 q 560 207 576 277 q 514 87 545 137 q 435 9 483 37 q 322 -18 387 -18 q 208 9 257 -18 q 128 87 159 37 q 82 207 97 137 q 67 363 67 277 q 82 519 67 448 q 128 640 97 590 q 208 719 159 691 q 322 747 257 747 q 435 719 387 747 q 514 640 483 691 q 560 519 545 590 q 576 363 576 448 m 451 363 q 444 475 451 424 q 421 562 437 526 q 381 619 406 599 q 322 640 356 640 q 261 619 286 640 q 221 562 237 599 q 198 475 205 526 q 192 363 192 424 q 198 252 192 302 q 221 165 205 201 q 261 109 237 129 q 322 89 286 89 q 381 109 356 89 q 421 165 406 129 q 444 252 437 201 q 451 363 451 302 "},"ɉ":{"x_min":-48,"x_max":315,"ha":336,"o":"m 227 428 l 315 428 l 315 336 l 227 336 l 227 -35 q 174 -206 227 -155 q 33 -258 121 -258 q -48 -244 -11 -258 l -31 -143 q -6 -147 -18 -145 q 21 -150 6 -150 q 57 -145 41 -150 q 84 -126 73 -140 q 101 -88 95 -112 q 108 -29 108 -65 l 108 336 l -10 336 l -10 428 l 108 428 l 108 729 l 227 729 l 227 428 m 168 858 q 112 879 135 858 q 90 937 90 900 q 112 994 90 973 q 168 1016 135 1016 q 223 994 200 1016 q 246 937 246 973 q 223 879 246 900 q 168 858 200 858 "},"Ӭ":{"x_min":32,"x_max":586,"ha":664,"o":"m 236 -21 q 116 -2 168 -21 q 32 40 63 15 l 66 139 q 135 102 99 116 q 227 89 170 89 q 392 182 340 89 q 451 452 445 275 l 164 452 l 164 559 l 451 559 q 391 799 442 723 q 237 875 340 875 q 155 862 196 875 q 82 827 114 850 l 45 929 q 133 969 83 953 q 244 985 183 985 q 379 959 316 985 q 487 875 441 933 q 559 723 533 816 q 586 495 586 630 q 495 105 586 231 q 236 -21 404 -21 m 177 1066 q 121 1087 144 1066 q 99 1145 99 1108 q 121 1202 99 1181 q 177 1224 144 1224 q 232 1202 209 1224 q 255 1145 255 1181 q 232 1087 255 1108 q 177 1066 209 1066 m 408 1066 q 352 1087 375 1066 q 330 1145 330 1108 q 352 1202 330 1181 q 408 1224 375 1224 q 463 1202 440 1224 q 486 1145 486 1181 q 463 1087 486 1108 q 408 1066 440 1066 "},"῭":{"x_min":-29,"x_max":465,"ha":436,"o":"m 43 864 q -8 884 12 864 q -29 937 -29 904 q -8 990 -29 970 q 43 1011 12 1011 q 94 990 73 1011 q 115 937 115 970 q 94 884 115 904 q 43 864 73 864 m 393 864 q 341 884 362 864 q 321 937 321 904 q 341 990 321 970 q 393 1011 362 1011 q 444 990 423 1011 q 465 937 465 970 q 444 884 465 904 q 393 864 423 864 m 205 1095 l 311 851 l 242 817 l 111 1047 l 205 1095 "},"ђ":{"x_min":5,"x_max":554,"ha":654,"o":"m 5 949 l 93 949 l 93 1057 l 212 1078 l 212 949 l 390 949 l 390 857 l 212 857 l 212 725 q 269 739 238 733 q 332 745 300 745 q 419 730 378 745 q 489 681 459 715 q 536 587 519 646 q 554 440 554 528 l 554 -35 q 504 -206 554 -155 q 370 -258 454 -258 q 293 -244 326 -258 l 309 -143 q 357 -150 334 -150 q 389 -145 375 -150 q 413 -126 402 -140 q 429 -88 423 -112 q 435 -29 435 -65 l 435 430 q 407 588 435 538 q 302 639 379 639 q 212 625 262 639 l 212 -1 l 93 -1 l 93 857 l 5 857 l 5 949 "},"y":{"x_min":2,"x_max":532,"ha":550,"o":"m 276 151 q 350 430 316 290 q 413 729 383 570 l 532 729 q 486 528 511 627 q 436 338 462 430 q 385 165 410 247 q 337 17 359 84 q 286 -113 310 -59 q 233 -199 262 -166 q 172 -246 205 -231 q 93 -261 139 -261 q 43 -254 68 -261 q 2 -241 18 -248 l 24 -144 q 92 -160 60 -160 q 157 -130 132 -160 q 206 -43 182 -101 l 219 -8 q 166 151 193 63 q 113 335 139 240 q 64 532 87 431 q 21 729 40 633 l 147 729 q 173 585 158 663 q 206 430 189 508 q 241 279 223 352 q 276 151 259 206 "},"ƅ":{"x_min":32,"x_max":635,"ha":681,"o":"m 242 605 l 301 605 q 437 588 376 605 q 542 534 498 571 q 610 439 586 498 q 635 296 635 380 q 611 156 635 214 q 545 61 587 98 q 442 7 503 24 q 310 -10 382 -10 q 117 13 215 -10 l 117 771 l 32 877 q 130 931 77 906 q 242 972 183 956 l 242 605 m 242 104 q 310 100 272 100 q 388 109 353 100 q 449 142 423 119 q 489 202 475 165 q 503 296 503 239 q 488 389 503 352 q 446 450 473 427 q 380 484 419 474 q 293 495 341 495 l 242 495 l 242 104 "},"ë":{"x_min":68,"x_max":538,"ha":606,"o":"m 190 330 q 199 233 191 277 q 226 156 208 189 q 276 106 245 124 q 356 88 308 88 q 431 99 397 88 q 480 119 465 111 l 503 23 q 442 -3 484 11 q 341 -18 400 -18 q 213 9 265 -18 q 128 87 161 37 q 81 206 95 137 q 68 359 68 276 q 134 653 68 560 q 311 747 201 747 q 486 654 435 747 q 538 393 538 561 q 538 362 538 378 q 536 330 538 346 l 190 330 m 311 646 q 224 586 251 646 q 191 427 196 526 l 413 427 q 392 587 413 528 q 311 646 371 646 m 194 858 q 138 879 161 858 q 116 937 116 900 q 138 994 116 973 q 194 1016 161 1016 q 249 994 226 1016 q 272 937 272 973 q 249 879 272 900 q 194 858 226 858 m 425 858 q 369 879 392 858 q 347 937 347 900 q 369 994 347 973 q 425 1016 392 1016 q 480 994 457 1016 q 503 937 503 973 q 480 879 503 900 q 425 858 457 858 "},"б":{"x_min":90,"x_max":591,"ha":656,"o":"m 251 800 q 231 731 239 769 q 218 644 223 692 q 284 670 248 662 q 357 679 321 679 q 528 597 465 679 q 591 336 591 516 q 530 75 591 169 q 344 -18 469 -18 q 222 15 270 -18 q 144 108 173 48 q 102 252 115 168 q 90 436 90 336 q 91 536 90 484 q 97 638 92 587 q 112 737 102 689 q 138 830 122 786 q 219 957 170 912 q 322 1025 268 1002 q 431 1057 376 1048 q 531 1078 485 1066 l 551 971 q 459 952 503 959 q 376 929 415 944 q 305 884 337 914 q 251 800 273 855 m 340 575 q 269 562 300 575 q 215 531 239 550 q 214 483 214 508 q 214 431 214 458 q 242 175 214 265 q 350 86 271 86 q 436 142 407 86 q 466 336 466 198 q 436 513 466 451 q 340 575 407 575 "},"ȟ":{"x_min":64,"x_max":570,"ha":670,"o":"m 108 0 l 108 1057 l 227 1078 l 227 725 q 284 739 253 733 q 348 745 316 745 q 434 730 394 745 q 505 681 475 715 q 552 587 535 646 q 570 440 570 528 l 570 0 l 451 0 l 451 430 q 423 588 451 538 q 318 639 395 639 q 227 625 277 639 l 227 0 l 108 0 m 346 1328 l 391 1269 l 227 1138 l 64 1269 l 107 1328 l 227 1245 l 346 1328 "},"ӌ":{"x_min":61,"x_max":519,"ha":626,"o":"m 519 729 l 519 0 l 427 0 l 427 -201 l 310 -201 l 310 97 l 400 97 l 400 275 q 343 261 373 267 q 279 256 312 256 q 193 268 233 256 q 124 310 154 280 q 78 391 95 340 q 61 518 61 441 l 61 729 l 180 729 l 180 515 q 185 454 180 482 q 205 406 191 427 q 241 373 218 385 q 296 362 263 362 q 351 366 327 362 q 400 377 376 370 l 400 729 l 519 729 "},"Ȥ":{"x_min":43,"x_max":552,"ha":600,"o":"m 542 864 q 448 691 500 790 q 346 487 397 591 q 251 282 296 382 q 176 107 205 182 l 552 107 l 552 0 q 545 -107 552 -59 q 520 -189 539 -155 q 468 -241 502 -223 q 381 -260 435 -260 q 341 -256 363 -260 q 305 -248 320 -253 l 314 -154 q 337 -158 321 -156 q 361 -161 353 -161 q 428 -129 412 -161 q 444 -29 444 -98 l 444 0 l 43 0 l 43 76 q 91 198 63 132 q 151 336 119 265 q 217 480 183 408 q 285 621 251 553 q 350 749 319 689 q 408 856 382 810 l 61 856 l 61 963 l 542 963 l 542 864 "},"ц":{"x_min":108,"x_max":646,"ha":660,"o":"m 108 729 l 227 729 l 227 103 l 438 103 l 438 729 l 557 729 l 557 97 l 646 97 l 646 -201 l 529 -201 l 529 0 l 108 0 l 108 729 "},"w":{"x_min":28,"x_max":768,"ha":796,"o":"m 300 0 l 179 0 q 98 329 136 143 q 28 729 59 515 l 146 729 q 162 589 151 669 q 187 425 173 509 q 214 263 200 341 q 240 129 228 184 q 268 265 252 184 q 300 430 284 345 q 330 595 316 515 q 352 729 344 674 l 465 729 q 482 595 470 674 q 507 431 494 516 q 534 265 520 345 q 559 129 548 184 q 585 263 572 184 q 613 426 599 343 q 637 589 626 509 q 654 729 648 669 l 768 729 q 697 329 736 515 q 616 0 659 143 l 499 0 q 475 110 488 43 q 449 254 462 177 q 424 407 436 330 q 405 548 413 484 q 383 407 397 484 q 354 254 369 330 q 324 110 339 177 q 300 0 310 43 "},"о":{"x_min":67,"x_max":576,"ha":643,"o":"m 576 363 q 560 207 576 277 q 514 87 545 137 q 435 9 483 37 q 322 -18 387 -18 q 208 9 257 -18 q 128 87 159 37 q 82 207 97 137 q 67 363 67 277 q 82 519 67 448 q 128 640 97 590 q 208 719 159 691 q 322 747 257 747 q 435 719 387 747 q 514 640 483 691 q 560 519 545 590 q 576 363 576 448 m 451 363 q 444 475 451 424 q 421 562 437 526 q 381 619 406 599 q 322 640 356 640 q 261 619 286 640 q 221 562 237 599 q 198 475 205 526 q 192 363 192 424 q 198 252 192 302 q 221 165 205 201 q 261 109 237 129 q 322 89 286 89 q 381 109 356 89 q 421 165 406 129 q 444 252 437 201 q 451 363 451 302 "},"Д":{"x_min":7,"x_max":765,"ha":807,"o":"m 646 -257 l 646 0 l 126 0 l 126 -257 l 7 -257 l 7 106 l 92 106 q 161 258 134 175 q 204 439 188 342 q 224 648 219 536 q 229 889 229 760 l 229 963 l 673 963 l 673 106 l 765 106 l 765 -257 l 646 -257 m 354 856 q 329 442 354 631 q 232 106 305 254 l 548 106 l 548 856 l 354 856 "},"":{"x_min":28,"x_max":360,"ha":389,"o":"m 93 604 q 110 719 97 658 q 143 840 123 780 q 189 955 164 900 q 245 1052 215 1010 l 28 1052 l 28 1142 l 360 1142 l 360 1072 q 310 993 337 1043 q 258 880 283 943 q 216 746 234 818 q 194 604 198 674 l 93 604 "},"ӣ":{"x_min":108,"x_max":571,"ha":679,"o":"m 571 733 l 571 0 l 458 0 l 458 527 q 392 403 428 473 q 320 262 356 334 q 254 121 285 190 q 202 0 222 52 l 108 0 l 108 733 l 219 733 l 219 252 q 277 375 244 309 q 345 506 310 441 q 414 629 380 570 q 477 733 448 688 l 571 733 m 182 987 l 478 987 l 478 893 l 182 893 l 182 987 "},"Ӂ":{"x_min":14,"x_max":879,"ha":893,"o":"m 504 537 q 563 641 531 583 q 626 758 595 700 q 683 870 656 817 q 730 963 710 924 l 855 963 q 800 859 830 917 q 737 741 770 801 q 672 623 705 681 q 610 514 640 564 q 683 411 645 472 q 758 281 722 350 q 826 139 795 212 q 879 0 858 66 l 747 0 q 697 136 724 69 q 638 264 669 204 q 572 375 606 324 q 504 462 538 426 l 504 0 l 389 0 l 389 462 q 319 375 354 426 q 252 264 284 324 q 192 136 220 204 q 141 0 163 69 l 14 0 q 66 138 34 65 q 134 280 97 210 q 209 410 170 349 q 283 512 248 470 q 216 629 249 569 q 150 749 182 690 q 89 863 118 808 q 38 963 61 918 l 162 963 q 208 870 180 924 q 266 758 236 817 q 329 641 297 700 q 389 537 361 583 l 389 963 l 504 963 l 504 537 m 446 1142 q 504 1165 484 1142 q 534 1242 525 1189 l 622 1222 q 560 1092 608 1131 q 446 1054 513 1054 q 332 1092 379 1054 q 271 1222 284 1131 l 359 1242 q 388 1165 367 1189 q 446 1142 409 1142 "},"Ὁ":{"x_min":-46,"x_max":859,"ha":938,"o":"m 859 480 q 838 275 859 368 q 776 117 818 183 q 669 15 734 51 q 517 -21 605 -21 q 365 15 430 -21 q 258 117 301 51 q 195 275 216 183 q 175 480 175 368 q 195 686 175 593 q 258 845 216 779 q 365 948 301 911 q 517 985 430 985 q 669 948 605 985 q 776 845 734 911 q 838 686 818 779 q 859 480 859 593 m 726 480 q 714 640 726 568 q 678 764 703 712 q 614 845 653 816 q 517 875 574 875 q 421 845 460 875 q 356 764 381 816 q 319 640 331 712 q 308 480 308 568 q 319 320 308 393 q 356 197 331 248 q 421 117 381 145 q 517 89 460 89 q 614 117 574 89 q 678 197 653 145 q 714 320 703 248 q 726 480 726 393 m 102 700 q 50 741 77 718 q 3 791 24 765 q -32 847 -18 818 q -46 907 -46 876 q -22 968 -46 947 q 34 989 1 989 q 87 968 66 989 q 108 916 108 948 q 95 874 108 892 q 60 847 83 855 q 100 796 76 823 q 152 745 124 769 l 102 700 "},"Ĵ":{"x_min":7,"x_max":534,"ha":549,"o":"m 439 255 q 425 140 439 191 q 384 54 412 90 q 309 -1 355 17 q 195 -21 262 -21 q 94 -5 143 -21 q 7 40 45 10 l 48 139 q 111 104 72 120 q 188 89 151 89 q 241 95 218 89 q 280 121 263 102 q 305 173 297 140 q 314 255 314 205 l 314 963 l 439 963 l 439 255 m 273 1015 l 215 1063 l 374 1275 l 534 1063 l 475 1015 l 374 1133 l 273 1015 "},"Ҕ":{"x_min":117,"x_max":647,"ha":697,"o":"m 242 856 l 242 584 q 346 603 294 603 q 479 574 422 603 q 573 491 536 546 q 628 360 610 437 q 647 186 647 283 q 568 -142 647 -27 q 340 -258 490 -258 q 317 -257 329 -258 q 295 -255 306 -256 l 295 -146 q 308 -148 301 -148 q 321 -148 314 -148 q 415 -123 378 -148 q 474 -54 453 -99 q 504 51 495 -10 q 514 186 514 113 q 501 330 514 272 q 466 425 489 389 q 409 476 443 461 q 336 492 376 492 q 242 476 283 492 l 242 0 l 117 0 l 117 963 l 550 963 l 550 856 l 242 856 "},"ô":{"x_min":67,"x_max":576,"ha":643,"o":"m 576 363 q 560 207 576 277 q 514 87 545 137 q 435 9 483 37 q 322 -18 387 -18 q 208 9 257 -18 q 128 87 159 37 q 82 207 97 137 q 67 363 67 277 q 82 519 67 448 q 128 640 97 590 q 208 719 159 691 q 322 747 257 747 q 435 719 387 747 q 514 640 483 691 q 560 519 545 590 q 576 363 576 448 m 451 363 q 444 475 451 424 q 421 562 437 526 q 381 619 406 599 q 322 640 356 640 q 261 619 286 640 q 221 562 237 599 q 198 475 205 526 q 192 363 192 424 q 198 252 192 302 q 221 165 205 201 q 261 109 237 129 q 322 89 286 89 q 381 109 356 89 q 421 165 406 129 q 444 252 437 201 q 451 363 451 302 m 219 807 l 161 855 l 320 1067 l 480 855 l 421 807 l 320 925 l 219 807 "},"ҝ":{"x_min":108,"x_max":630,"ha":647,"o":"m 285 177 l 285 334 l 227 334 l 227 0 l 108 0 l 108 729 l 227 729 l 227 437 l 285 437 l 285 580 l 368 580 l 368 437 l 369 437 q 401 509 384 470 q 433 587 418 548 q 462 662 448 626 q 487 729 476 699 l 606 729 q 529 545 566 628 q 456 389 492 462 q 505 302 480 351 q 553 202 530 254 q 596 98 576 150 q 630 0 616 47 l 509 0 q 479 86 496 41 q 444 176 463 131 q 407 261 426 220 q 370 334 387 302 l 368 334 l 368 177 l 285 177 "},"г":{"x_min":108,"x_max":441,"ha":460,"o":"m 441 626 l 227 626 l 227 0 l 108 0 l 108 729 l 441 729 l 441 626 "},"Ŀ":{"x_min":117,"x_max":546,"ha":579,"o":"m 546 107 l 546 0 l 117 0 l 117 963 l 242 963 l 242 107 l 546 107 m 517 499 q 494 442 517 467 q 433 418 471 418 q 374 442 396 418 q 352 499 352 467 q 374 558 352 533 q 433 583 396 583 q 494 558 471 583 q 517 499 517 533 "},"ᾄ":{"x_min":67,"x_max":629,"ha":654,"o":"m 541 181 q 560 114 541 137 q 629 86 580 91 l 613 -14 q 560 -9 581 -12 q 522 0 538 -5 q 494 15 506 6 q 470 36 483 25 q 402 -3 438 11 q 324 -18 366 -18 q 130 81 194 -18 q 67 361 67 180 q 139 647 67 547 q 362 747 212 747 q 455 735 406 747 q 541 709 504 724 l 541 181 m 343 88 q 391 97 370 88 q 427 121 412 107 q 423 153 424 136 q 422 189 422 169 l 422 631 q 391 638 406 635 q 361 641 376 641 q 235 577 279 641 q 192 362 192 513 q 230 155 192 222 q 343 88 268 88 m 375 -87 q 393 -163 375 -142 q 445 -184 411 -184 q 462 -182 457 -184 l 462 -254 q 443 -258 455 -257 q 415 -260 430 -260 q 312 -222 354 -260 q 271 -98 271 -185 q 271 -84 271 -93 q 272 -69 271 -75 l 375 -69 l 375 -87 m 183 845 q 227 896 206 869 q 261 947 248 923 q 225 974 237 955 q 214 1016 214 992 q 234 1068 214 1048 q 284 1089 254 1089 q 338 1068 316 1089 q 361 1007 361 1047 q 348 947 361 976 q 316 891 335 918 q 272 841 297 865 q 226 800 248 818 l 183 845 m 575 1038 l 430 797 l 365 834 l 482 1086 l 575 1038 "},"ᾙ":{"x_min":-46,"x_max":1205,"ha":1229,"o":"m 650 963 l 775 963 l 775 0 l 650 0 l 650 448 l 334 448 l 334 0 l 209 0 l 209 963 l 334 963 l 334 556 l 650 556 l 650 963 m 102 700 q 50 741 77 718 q 3 791 24 765 q -32 847 -18 818 q -46 907 -46 876 q -22 968 -46 947 q 34 989 1 989 q 87 968 66 989 q 108 916 108 948 q 95 874 108 892 q 60 847 83 855 q 100 796 76 823 q 152 745 124 769 l 102 700 m 1189 -14 q 1042 33 1086 -11 q 998 183 998 79 l 998 729 l 1117 729 l 1117 181 q 1134 111 1117 133 q 1205 82 1151 90 l 1189 -14 "},"Ἇ":{"x_min":-54,"x_max":789,"ha":803,"o":"m 533 963 q 599 752 566 858 q 663 529 632 645 q 726 282 694 412 q 789 0 757 151 l 663 0 q 641 123 653 62 q 617 246 629 184 l 313 246 q 288 123 299 184 q 266 0 277 62 l 146 0 q 208 281 176 151 q 271 529 240 412 q 335 752 302 645 q 401 963 368 858 l 533 963 m 465 821 q 398 588 430 705 q 337 350 366 472 l 592 350 q 532 589 564 472 q 465 821 500 705 m 129 1074 q 202 1062 168 1074 q 260 1028 235 1050 q 300 974 285 1007 q 315 901 315 942 l 237 901 q 204 963 231 937 q 129 989 178 989 q 55 963 81 989 q 24 901 29 937 l -54 901 q -40 974 -54 942 q -1 1028 -26 1007 q 57 1062 23 1050 q 129 1074 90 1074 m 193 650 q 146 682 170 663 q 103 722 122 701 q 72 768 85 744 q 60 817 60 792 q 81 873 60 852 q 132 894 103 894 q 179 876 160 894 q 199 828 199 858 q 188 791 199 808 q 158 768 178 774 q 191 729 171 749 q 237 691 211 709 l 193 650 "},"Ἃ":{"x_min":-46,"x_max":870,"ha":883,"o":"m 614 963 q 680 752 647 858 q 744 529 713 645 q 807 282 775 412 q 870 0 838 151 l 744 0 q 722 123 734 62 q 698 246 710 184 l 394 246 q 369 123 380 184 q 347 0 358 62 l 227 0 q 289 281 257 151 q 352 529 321 412 q 416 752 383 645 q 482 963 449 858 l 614 963 m 546 821 q 479 588 511 705 q 418 350 447 472 l 673 350 q 613 589 645 472 q 546 821 581 705 m 88 700 q 41 741 65 718 q -1 791 17 765 q -33 847 -20 818 q -46 907 -46 876 q -23 968 -46 947 q 30 989 -1 989 q 80 968 60 989 q 101 916 101 948 q 88 874 101 892 q 53 847 76 855 q 86 796 65 823 q 132 745 108 769 l 88 700 m 227 986 l 344 734 l 279 697 l 134 938 l 227 986 "},"Ǟ":{"x_min":28,"x_max":671,"ha":699,"o":"m 415 963 q 481 752 448 858 q 545 529 514 645 q 608 282 576 412 q 671 0 639 151 l 545 0 q 523 123 535 62 q 499 246 511 184 l 195 246 q 170 123 181 184 q 148 0 159 62 l 28 0 q 90 281 58 151 q 153 529 122 412 q 217 752 184 645 q 283 963 250 858 l 415 963 m 347 821 q 280 588 312 705 q 219 350 248 472 l 474 350 q 414 589 446 472 q 347 821 382 705 m 200 1337 l 496 1337 l 496 1245 l 200 1245 l 200 1337 m 234 1037 q 182 1057 203 1037 q 162 1110 162 1077 q 182 1163 162 1143 q 234 1184 203 1184 q 285 1163 264 1184 q 306 1110 306 1143 q 285 1057 306 1077 q 234 1037 264 1037 m 464 1037 q 412 1057 433 1037 q 392 1110 392 1077 q 412 1163 392 1143 q 464 1184 433 1184 q 515 1163 494 1184 q 536 1110 536 1143 q 515 1057 536 1077 q 464 1037 494 1037 "},"\t":{"x_min":0,"x_max":0,"ha":271},"ь":{"x_min":108,"x_max":558,"ha":597,"o":"m 227 94 q 258 90 243 92 q 292 88 274 88 q 398 120 363 88 q 434 226 434 153 q 427 280 434 255 q 404 324 420 305 q 363 353 389 342 q 297 365 336 365 q 264 362 282 365 q 227 358 246 360 l 227 94 m 108 729 l 227 729 l 227 459 q 309 468 268 468 q 489 405 420 468 q 558 227 558 343 q 537 113 558 159 q 481 38 517 66 q 396 -2 445 9 q 289 -15 348 -15 q 196 -8 241 -15 q 108 10 151 -1 l 108 729 "},"Җ":{"x_min":31,"x_max":969,"ha":990,"o":"m 184 963 q 229 870 202 924 q 288 758 257 817 q 350 641 318 700 q 410 537 382 583 l 410 963 l 529 963 l 529 537 q 588 641 556 583 q 650 758 620 700 q 708 870 681 817 q 754 963 735 924 l 884 963 q 829 859 859 917 q 767 741 799 801 q 704 621 736 680 q 643 512 672 562 q 701 432 671 478 q 761 332 731 386 q 818 221 791 279 q 870 106 846 162 l 969 106 l 969 -257 l 850 -257 l 850 0 l 771 0 q 721 136 749 69 q 662 264 693 204 q 597 375 631 324 q 529 462 563 426 l 529 0 l 410 0 l 410 462 q 341 375 375 426 q 276 264 307 324 q 218 136 245 204 q 168 0 190 69 l 31 0 q 81 138 50 66 q 148 280 112 210 q 222 409 184 349 q 295 511 261 470 q 234 621 266 561 q 169 740 201 680 q 108 859 138 801 q 55 963 78 917 l 184 963 "},"ὑ":{"x_min":100,"x_max":574,"ha":674,"o":"m 219 729 l 219 244 q 246 131 219 171 q 336 91 273 91 q 427 131 400 91 q 455 246 455 171 l 455 729 l 574 729 l 574 245 q 514 54 574 123 q 337 -15 455 -15 q 159 50 219 -15 q 100 245 100 115 l 100 729 l 219 729 m 372 800 q 320 841 347 818 q 273 891 294 865 q 237 947 251 918 q 224 1007 224 976 q 247 1068 224 1047 q 304 1089 271 1089 q 357 1068 336 1089 q 378 1016 378 1048 q 365 974 378 992 q 330 947 353 955 q 370 896 346 923 q 422 845 394 869 l 372 800 "},"€":{"x_min":38,"x_max":575,"ha":597,"o":"m 38 644 l 151 644 q 190 809 164 744 q 253 913 216 874 q 334 967 290 952 q 427 983 379 983 q 504 971 469 983 q 568 939 538 959 l 530 843 q 486 866 511 856 q 430 877 462 877 q 323 819 359 877 q 273 644 286 761 l 485 644 l 466 552 l 268 552 q 267 516 267 534 q 267 478 267 498 l 267 418 l 439 418 l 420 326 l 273 326 q 329 140 287 195 q 444 86 371 86 q 501 93 473 86 q 552 113 529 101 l 575 18 q 517 -5 556 7 q 436 -18 477 -18 q 327 0 376 -18 q 243 61 279 19 q 182 167 207 102 q 148 326 158 233 l 38 326 l 38 418 l 143 418 q 142 447 142 433 q 142 478 142 462 q 142 516 142 498 q 143 552 142 534 l 38 552 l 38 644 "},"ƶ":{"x_min":46,"x_max":453,"ha":494,"o":"m 443 639 q 386 539 418 595 q 322 421 355 483 l 417 421 l 417 335 l 278 335 q 218 209 246 269 q 170 103 189 148 l 453 103 l 453 0 l 46 0 l 46 86 q 94 205 65 139 q 157 338 124 271 l 88 338 l 88 424 l 201 424 q 263 536 233 484 q 313 626 292 588 l 63 626 l 63 729 l 443 729 l 443 639 "},"Ὦ":{"x_min":-54,"x_max":983,"ha":1051,"o":"m 129 1074 q 202 1062 168 1074 q 260 1028 235 1050 q 300 974 285 1007 q 315 901 315 942 l 237 901 q 204 963 231 937 q 129 989 178 989 q 55 963 81 989 q 24 901 29 937 l -54 901 q -40 974 -54 942 q -1 1028 -26 1007 q 57 1062 23 1050 q 129 1074 90 1074 m 26 691 q 70 729 49 709 q 104 768 90 749 q 74 791 84 774 q 64 828 64 808 q 83 876 64 858 q 130 894 102 894 q 181 873 159 894 q 203 817 203 852 q 190 768 203 792 q 159 722 177 744 q 115 682 140 701 q 69 650 91 663 l 26 691 m 628 878 q 546 858 583 878 q 480 796 508 839 q 436 687 452 754 q 421 525 421 619 q 464 277 421 387 q 571 82 507 167 l 571 0 l 272 0 l 272 106 l 429 106 q 379 186 404 140 q 334 286 354 232 q 301 403 314 340 q 289 532 289 465 q 313 727 289 642 q 382 870 337 812 q 489 958 426 928 q 628 988 551 988 q 765 958 703 988 q 872 870 828 928 q 941 727 917 812 q 966 532 966 642 q 953 403 966 465 q 920 286 940 340 q 875 186 900 232 q 825 106 850 140 l 983 106 l 983 0 l 684 0 l 684 82 q 741 173 714 124 q 789 278 768 222 q 822 395 810 333 q 834 525 834 457 q 818 687 834 619 q 774 796 802 754 q 709 858 747 839 q 628 878 671 878 "},"Ἀ":{"x_min":-37,"x_max":659,"ha":671,"o":"m 403 963 q 469 752 436 858 q 533 529 502 645 q 596 282 564 412 q 659 0 627 151 l 533 0 q 511 123 523 62 q 487 246 499 184 l 183 246 q 158 123 169 184 q 136 0 147 62 l 16 0 q 78 281 46 151 q 141 529 110 412 q 205 752 172 645 q 271 963 238 858 l 403 963 m 335 821 q 268 588 300 705 q 207 350 236 472 l 462 350 q 402 589 434 472 q 335 821 370 705 m -37 745 q 14 796 -9 769 q 52 847 38 823 q 18 874 30 855 q 7 916 7 892 q 27 968 7 948 q 80 989 48 989 q 137 968 113 989 q 161 907 161 947 q 147 847 161 876 q 111 791 133 818 q 64 741 90 765 q 13 700 37 718 l -37 745 "},"С":{"x_min":76,"x_max":630,"ha":651,"o":"m 425 -21 q 166 105 256 -21 q 76 495 76 231 q 101 723 76 630 q 173 875 127 816 q 281 959 219 933 q 417 985 344 985 q 531 969 479 985 q 618 929 584 953 l 580 825 q 508 861 547 847 q 420 875 470 875 q 259 782 309 875 q 209 495 209 690 q 261 194 209 300 q 434 89 314 89 q 526 102 491 89 q 595 139 561 116 l 630 40 q 546 -2 598 15 q 425 -21 493 -21 "},"ß":{"x_min":106,"x_max":627,"ha":676,"o":"m 560 872 q 534 759 560 806 q 481 672 508 711 q 458 638 467 652 q 443 612 449 623 q 436 592 438 601 q 434 573 434 583 q 439 546 434 559 q 457 517 445 533 q 491 481 470 502 q 546 430 513 460 q 604 349 582 398 q 627 227 627 299 q 613 133 627 177 q 573 55 600 88 q 506 2 546 21 q 412 -17 466 -17 q 307 1 356 -17 l 327 105 q 363 96 347 99 q 398 94 380 94 q 449 105 428 94 q 482 135 470 116 q 500 178 494 153 q 506 228 506 202 q 501 279 506 258 q 485 319 496 301 q 460 352 475 337 q 423 387 444 367 q 346 474 371 435 q 321 559 321 512 q 336 634 321 604 q 381 708 351 665 q 422 775 404 741 q 441 858 441 808 q 417 939 441 906 q 345 972 393 972 q 256 937 287 972 q 225 813 225 903 l 225 0 l 106 0 l 106 809 q 166 1013 106 948 q 341 1078 227 1078 q 434 1062 393 1078 q 503 1018 475 1046 q 545 953 530 991 q 560 872 560 915 "},"ǩ":{"x_min":64,"x_max":583,"ha":593,"o":"m 559 729 q 447 546 500 628 q 340 391 393 463 q 408 303 374 352 q 475 203 443 255 q 535 99 507 151 q 583 0 563 47 l 452 0 q 403 95 431 45 q 345 193 375 145 q 284 284 314 241 q 227 356 253 327 l 227 0 l 108 0 l 108 1057 l 227 1078 l 227 415 q 280 490 251 448 q 336 574 308 531 q 389 656 364 616 q 430 729 414 697 l 559 729 m 346 1328 l 391 1269 l 227 1138 l 64 1269 l 107 1328 l 227 1245 l 346 1328 "},"Ӓ":{"x_min":28,"x_max":671,"ha":699,"o":"m 415 963 q 481 752 448 858 q 545 529 514 645 q 608 282 576 412 q 671 0 639 151 l 545 0 q 523 123 535 62 q 499 246 511 184 l 195 246 q 170 123 181 184 q 148 0 159 62 l 28 0 q 90 281 58 151 q 153 529 122 412 q 217 752 184 645 q 283 963 250 858 l 415 963 m 347 821 q 280 588 312 705 q 219 350 248 472 l 474 350 q 414 589 446 472 q 347 821 382 705 m 234 1066 q 178 1087 201 1066 q 156 1145 156 1108 q 178 1202 156 1181 q 234 1224 201 1224 q 289 1202 266 1224 q 312 1145 312 1181 q 289 1087 312 1108 q 234 1066 266 1066 m 465 1066 q 409 1087 432 1066 q 387 1145 387 1108 q 409 1202 387 1181 q 465 1224 432 1224 q 520 1202 497 1224 q 543 1145 543 1181 q 520 1087 543 1108 q 465 1066 497 1066 "},"Ὕ":{"x_min":-45,"x_max":1029,"ha":1033,"o":"m 1029 963 q 977 824 1005 897 q 916 674 948 750 q 851 523 884 598 q 785 380 818 448 l 785 0 l 660 0 l 660 372 q 591 516 626 440 q 525 669 557 593 q 463 821 493 746 q 411 963 434 896 l 545 963 q 627 731 581 853 q 722 504 673 610 q 816 731 771 610 q 898 963 862 853 l 1029 963 m 89 700 q 42 741 66 718 q 0 791 18 765 q -32 847 -19 818 q -45 907 -45 876 q -22 968 -45 947 q 31 989 0 989 q 81 968 61 989 q 102 916 102 948 q 89 874 102 892 q 54 847 77 855 q 87 796 66 823 q 133 745 109 769 l 89 700 m 381 938 l 236 697 l 171 734 l 288 986 l 381 938 "},"Ű":{"x_min":108,"x_max":655,"ha":763,"o":"m 378 -21 q 175 55 243 -21 q 108 297 108 131 l 108 963 l 233 963 l 233 308 q 265 143 233 198 q 380 89 297 89 q 498 145 467 89 q 530 308 530 201 l 530 963 l 655 963 l 655 297 q 585 56 655 134 q 378 -21 515 -21 m 452 1240 l 296 1022 l 233 1060 l 365 1297 l 452 1240 m 642 1240 l 486 1022 l 423 1060 l 555 1297 l 642 1240 "},"¶":{"x_min":57,"x_max":598,"ha":736,"o":"m 421 872 q 409 872 414 872 q 398 871 403 872 l 398 -257 l 298 -257 l 298 367 q 120 461 183 386 q 57 666 57 536 q 149 894 57 817 q 401 972 242 972 q 497 966 445 972 q 598 945 549 960 l 598 -257 l 498 -257 l 498 866 q 463 871 482 869 q 421 872 445 872 "},"Ή":{"x_min":-43,"x_max":764,"ha":881,"o":"m 639 963 l 764 963 l 764 0 l 639 0 l 639 448 l 323 448 l 323 0 l 198 0 l 198 963 l 323 963 l 323 556 l 639 556 l 639 963 m 139 953 l 45 682 l -43 708 l 21 988 l 139 953 "},"Ὅ":{"x_min":-45,"x_max":1025,"ha":1103,"o":"m 1025 480 q 1004 275 1025 368 q 942 117 984 183 q 835 15 900 51 q 683 -21 771 -21 q 531 15 596 -21 q 424 117 467 51 q 361 275 382 183 q 341 480 341 368 q 361 686 341 593 q 424 845 382 779 q 531 948 467 911 q 683 985 596 985 q 835 948 771 985 q 942 845 900 911 q 1004 686 984 779 q 1025 480 1025 593 m 892 480 q 880 640 892 568 q 844 764 869 712 q 780 845 819 816 q 683 875 740 875 q 587 845 626 875 q 522 764 547 816 q 485 640 497 712 q 474 480 474 568 q 485 320 474 393 q 522 197 497 248 q 587 117 547 145 q 683 89 626 89 q 780 117 740 89 q 844 197 819 145 q 880 320 869 248 q 892 480 892 393 m 89 700 q 42 741 66 718 q 0 791 18 765 q -32 847 -19 818 q -45 907 -45 876 q -22 968 -45 947 q 31 989 0 989 q 81 968 61 989 q 102 916 102 948 q 89 874 102 892 q 54 847 77 855 q 87 796 66 823 q 133 745 109 769 l 89 700 m 381 938 l 236 697 l 171 734 l 288 986 l 381 938 "},"­":{"x_min":33,"x_max":290,"ha":324,"o":"m 33 473 l 290 473 l 290 360 l 33 360 l 33 473 "},"":{"x_min":16,"x_max":461,"ha":497,"o":"m 316 518 q 423 430 385 493 q 461 266 461 367 q 396 56 461 133 q 200 -21 331 -21 q 100 -5 149 -21 q 16 34 52 9 l 47 132 q 115 98 79 112 q 189 85 150 85 q 300 128 260 85 q 340 268 340 172 q 296 413 340 364 q 156 462 252 462 l 120 462 l 120 563 l 150 563 q 275 607 234 563 q 316 730 316 651 q 283 842 316 805 q 198 879 251 879 q 129 865 162 879 q 73 830 97 851 l 26 918 q 111 968 62 951 q 209 985 160 985 q 376 917 318 985 q 435 736 435 849 q 403 602 435 657 q 316 518 372 547 "},"Ὴ":{"x_min":-58,"x_max":812,"ha":929,"o":"m 687 963 l 812 963 l 812 0 l 687 0 l 687 448 l 371 448 l 371 0 l 246 0 l 246 963 l 371 963 l 371 556 l 687 556 l 687 963 m 26 980 l 191 759 l 131 708 l -58 907 l 26 980 "},":":{"x_min":79,"x_max":244,"ha":322,"o":"m 244 64 q 221 7 244 32 q 160 -17 198 -17 q 101 7 123 -17 q 79 64 79 32 q 101 123 79 98 q 160 148 123 148 q 221 123 198 148 q 244 64 244 98 m 244 663 q 221 606 244 631 q 160 582 198 582 q 101 606 123 582 q 79 663 79 631 q 101 722 79 697 q 160 747 123 747 q 221 722 198 747 q 244 663 244 697 "},"Ѝ":{"x_min":117,"x_max":690,"ha":807,"o":"m 117 0 l 117 963 l 234 963 l 234 272 q 391 607 305 440 q 590 963 477 775 l 690 963 l 690 0 l 573 0 l 573 737 q 477 560 525 655 q 382 368 429 465 q 294 177 336 272 q 219 0 252 82 l 117 0 m 314 1288 l 479 1067 l 419 1016 l 230 1215 l 314 1288 "},"ǲ":{"x_min":115,"x_max":1252,"ha":1297,"o":"m 724 482 q 695 253 724 347 q 613 101 667 159 q 484 16 559 42 q 315 -10 408 -10 q 115 15 220 -10 l 115 948 q 217 967 167 960 q 313 974 267 974 q 484 947 408 974 q 613 862 559 921 q 695 710 667 804 q 724 482 724 616 m 591 482 q 575 657 591 584 q 528 775 560 729 q 444 842 496 821 q 319 863 391 863 q 280 861 299 863 q 240 857 260 860 l 240 106 q 280 102 260 103 q 318 101 299 101 q 443 121 391 101 q 527 187 494 142 q 575 305 560 233 q 591 482 591 377 m 1242 639 q 1172 517 1211 588 q 1096 372 1134 447 q 1024 227 1058 298 q 969 103 990 155 l 1252 103 l 1252 0 l 845 0 l 845 86 q 901 222 867 147 q 974 372 936 297 q 1049 514 1012 447 q 1112 626 1086 581 l 862 626 l 862 729 l 1242 729 l 1242 639 "},"Ƨ":{"x_min":35,"x_max":512,"ha":547,"o":"m 309 86 q 394 99 356 86 q 470 134 431 112 l 509 34 q 418 -5 468 9 q 305 -21 367 -21 q 185 0 235 -21 q 101 54 134 19 q 51 139 68 90 q 35 247 35 188 q 53 343 35 299 q 99 420 71 386 q 163 482 127 455 q 233 530 198 509 q 289 568 262 547 q 338 613 316 588 q 373 668 360 638 q 387 734 387 698 q 350 842 387 805 q 251 879 313 879 q 172 868 209 879 q 102 838 134 858 l 64 937 q 148 971 97 957 q 259 985 199 985 q 362 966 316 985 q 442 915 409 948 q 493 834 475 882 q 512 729 512 787 q 492 628 512 672 q 444 550 473 584 q 379 490 415 516 q 314 441 344 463 q 260 402 286 422 q 213 359 233 383 q 179 306 192 335 q 166 240 166 277 q 204 127 166 169 q 309 86 243 86 "},"У":{"x_min":42,"x_max":632,"ha":660,"o":"m 632 963 q 538 639 597 828 q 389 212 480 450 q 290 42 344 94 q 146 -10 235 -10 q 107 -5 131 -10 q 56 8 83 -1 l 78 113 q 108 103 93 106 q 141 100 123 100 q 220 134 192 100 q 271 227 247 168 l 287 270 q 140 651 203 472 q 42 963 77 830 l 166 963 q 243 707 196 844 q 348 421 290 569 q 439 707 398 569 q 506 963 480 844 l 632 963 "},"ᾢ":{"x_min":76,"x_max":825,"ha":901,"o":"m 608 -14 q 519 7 559 -14 q 450 73 478 29 q 293 -14 394 -14 q 190 15 231 -14 q 123 93 148 44 q 87 207 98 143 q 76 344 76 272 q 106 553 76 450 q 190 745 137 657 l 301 707 q 225 535 253 626 q 198 347 198 443 q 202 251 198 297 q 219 171 207 205 q 252 117 231 137 q 305 97 273 97 q 392 220 392 97 l 392 567 l 510 567 l 510 220 q 596 97 510 97 q 648 117 628 97 q 681 171 669 137 q 698 251 693 205 q 703 347 703 297 q 675 535 703 443 q 600 707 647 626 l 711 745 q 794 553 763 657 q 825 344 825 450 q 813 207 825 272 q 777 93 802 143 q 711 15 752 44 q 608 -14 669 -14 m 235 845 q 279 896 258 869 q 313 947 300 923 q 277 974 289 955 q 266 1016 266 992 q 286 1068 266 1048 q 336 1089 306 1089 q 390 1068 368 1089 q 413 1007 413 1047 q 400 947 413 976 q 368 891 387 918 q 324 841 349 865 q 278 800 300 818 l 235 845 m 549 1086 l 666 834 l 601 797 l 456 1038 l 549 1086 m 501 -87 q 519 -163 501 -142 q 571 -184 537 -184 q 588 -182 583 -184 l 588 -254 q 569 -258 581 -257 q 541 -260 556 -260 q 438 -222 480 -260 q 397 -98 397 -185 q 397 -84 397 -93 q 398 -69 397 -75 l 501 -69 l 501 -87 "},"ү":{"x_min":17,"x_max":526,"ha":543,"o":"m 273 140 q 309 271 290 196 q 345 425 327 346 q 379 584 363 505 q 406 729 395 663 l 526 729 q 483 538 507 638 q 433 338 459 437 q 381 152 407 240 q 333 -1 355 64 l 333 -254 l 214 -254 l 214 -12 q 164 141 191 51 q 111 330 137 230 q 60 533 84 430 q 17 729 35 637 l 143 729 q 170 584 154 663 q 203 425 186 505 q 239 271 221 346 q 273 140 257 196 "},"Ί":{"x_min":-43,"x_max":323,"ha":439,"o":"m 198 963 l 323 963 l 323 0 l 198 0 l 198 963 m 139 953 l 45 682 l -43 708 l 21 988 l 139 953 "},"⁶":{"x_min":39,"x_max":363,"ha":389,"o":"m 335 896 q 211 857 260 890 q 144 753 162 825 q 214 767 183 767 q 321 722 279 767 q 363 594 363 677 q 321 462 363 509 q 203 415 280 415 q 79 475 119 415 q 39 652 39 535 q 62 795 39 735 q 125 894 86 855 q 215 951 165 933 q 318 972 265 970 l 335 896 m 199 689 q 135 670 169 689 l 135 657 q 203 500 135 500 q 263 595 263 500 q 247 667 263 645 q 199 689 231 689 "},"⅓":{"x_min":36,"x_max":926,"ha":1008,"o":"m 36 846 q 116 897 76 868 q 190 963 157 926 l 261 963 l 261 425 l 164 425 l 164 826 q 73 772 116 790 l 36 846 m 705 963 l 312 0 l 208 0 l 600 963 l 705 963 m 744 82 q 805 103 781 82 q 829 160 829 125 q 797 224 829 204 q 730 245 766 245 l 697 245 l 697 327 l 735 327 q 762 330 748 327 q 788 342 776 333 q 809 364 801 350 q 818 398 818 378 q 799 445 818 430 q 749 461 780 461 q 704 452 725 461 q 660 429 682 444 l 627 504 q 688 537 656 525 q 756 549 720 549 q 824 537 795 549 q 873 506 853 525 q 901 464 892 487 q 911 415 911 440 q 892 342 911 371 q 847 292 874 314 q 904 236 883 272 q 926 155 926 200 q 914 94 926 123 q 880 42 903 65 q 823 6 857 19 q 743 -7 789 -7 q 623 27 681 -7 l 650 111 q 696 88 674 95 q 744 82 717 82 "},"Ģ":{"x_min":76,"x_max":633,"ha":729,"o":"m 76 482 q 100 714 76 618 q 172 870 125 809 q 284 957 219 930 q 432 985 350 985 q 546 967 495 985 q 630 928 598 950 l 591 823 q 521 860 559 845 q 435 875 484 875 q 261 777 314 875 q 209 482 209 679 q 224 301 209 376 q 270 179 240 226 q 341 110 299 132 q 434 88 382 88 q 508 97 477 88 l 508 474 l 633 474 l 633 21 q 539 -9 595 3 q 423 -22 484 -22 q 284 7 348 -22 q 173 99 220 37 q 101 256 127 161 q 76 482 76 351 m 374 -69 l 477 -69 q 478 -85 478 -75 q 478 -98 478 -94 q 436 -223 478 -185 q 333 -261 394 -261 q 305 -259 318 -261 q 286 -255 292 -258 l 286 -183 q 302 -184 291 -184 q 355 -163 337 -184 q 374 -87 374 -142 l 374 -69 "},"ᾇ":{"x_min":67,"x_max":629,"ha":654,"o":"m 541 181 q 560 114 541 137 q 629 86 580 91 l 613 -14 q 560 -9 581 -12 q 522 0 538 -5 q 494 15 506 6 q 470 36 483 25 q 402 -3 438 11 q 324 -18 366 -18 q 130 81 194 -18 q 67 361 67 180 q 139 647 67 547 q 362 747 212 747 q 455 735 406 747 q 541 709 504 724 l 541 181 m 343 88 q 391 97 370 88 q 427 121 412 107 q 423 153 424 136 q 422 189 422 169 l 422 631 q 391 638 406 635 q 361 641 376 641 q 235 577 279 641 q 192 362 192 513 q 230 155 192 222 q 343 88 268 88 m 375 -87 q 393 -163 375 -142 q 445 -184 411 -184 q 462 -182 457 -184 l 462 -254 q 443 -258 455 -257 q 415 -260 430 -260 q 312 -222 354 -260 q 271 -98 271 -185 q 271 -84 271 -93 q 272 -69 271 -75 l 375 -69 l 375 -87 m 316 1224 q 389 1212 355 1224 q 447 1178 422 1200 q 487 1124 472 1157 q 502 1051 502 1092 l 424 1051 q 391 1113 418 1087 q 316 1139 365 1139 q 242 1113 268 1139 q 211 1051 216 1087 l 133 1051 q 146 1124 133 1092 q 185 1178 160 1157 q 244 1212 210 1200 q 316 1224 277 1224 m 380 800 q 333 832 357 813 q 290 872 309 851 q 259 918 272 894 q 247 967 247 942 q 268 1023 247 1002 q 319 1044 290 1044 q 366 1026 347 1044 q 386 978 386 1008 q 375 941 386 958 q 345 918 365 924 q 378 879 358 899 q 424 841 398 859 l 380 800 "},"m":{"x_min":108,"x_max":870,"ha":970,"o":"m 108 708 q 213 734 156 724 q 318 745 270 745 q 406 732 366 745 q 476 690 446 720 q 554 729 512 714 q 646 745 596 745 q 737 730 696 745 q 807 681 778 715 q 853 587 836 646 q 870 440 870 528 l 870 0 l 751 0 l 751 430 q 725 588 751 538 q 631 639 700 639 q 577 629 604 639 q 526 602 550 619 q 543 530 537 570 q 549 440 549 490 l 549 0 l 430 0 l 430 430 q 404 588 430 538 q 309 639 379 639 q 227 625 273 639 l 227 0 l 108 0 l 108 708 "},"ǌ":{"x_min":108,"x_max":916,"ha":1006,"o":"m 108 708 q 219 734 159 724 q 329 745 279 745 q 428 730 383 745 q 503 681 472 715 q 552 587 535 646 q 570 440 570 528 l 570 0 l 451 0 l 451 430 q 423 588 451 538 q 318 639 395 639 q 227 625 277 639 l 227 0 l 108 0 l 108 708 m 897 -38 q 844 -209 897 -158 q 703 -261 791 -261 q 622 -247 658 -261 l 638 -146 q 663 -150 651 -148 q 691 -153 676 -153 q 727 -148 711 -153 q 754 -129 743 -143 q 771 -91 765 -115 q 778 -32 778 -68 l 778 729 l 897 729 l 897 -38 m 838 858 q 782 879 805 858 q 760 937 760 900 q 782 994 760 973 q 838 1016 805 1016 q 893 994 870 1016 q 916 937 916 973 q 893 879 916 900 q 838 858 870 858 "},"⁵":{"x_min":39,"x_max":340,"ha":389,"o":"m 340 588 q 328 522 340 554 q 295 467 317 491 q 240 428 273 442 q 163 415 206 415 q 96 423 129 415 q 39 444 63 431 l 54 525 q 143 505 101 505 q 211 527 184 505 q 239 595 239 549 q 207 665 239 637 q 96 694 175 694 q 81 693 89 694 q 67 693 73 693 q 78 829 73 758 q 85 963 82 900 l 323 963 l 323 877 l 165 877 q 163 822 164 850 q 159 767 161 793 q 292 712 244 758 q 340 588 340 666 "},"ὀ":{"x_min":67,"x_max":576,"ha":643,"o":"m 576 363 q 560 207 576 277 q 514 87 545 137 q 435 9 483 37 q 322 -18 387 -18 q 208 9 257 -18 q 128 87 159 37 q 82 207 97 137 q 67 363 67 277 q 82 519 67 448 q 128 640 97 590 q 208 719 159 691 q 322 747 257 747 q 435 719 387 747 q 514 640 483 691 q 560 519 545 590 q 576 363 576 448 m 451 363 q 444 475 451 424 q 421 562 437 526 q 381 619 406 599 q 322 640 356 640 q 261 619 286 640 q 221 562 237 599 q 198 475 205 526 q 192 363 192 424 q 198 252 192 302 q 221 165 205 201 q 261 109 237 129 q 322 89 286 89 q 381 109 356 89 q 421 165 406 129 q 444 252 437 201 q 451 363 451 302 m 227 845 q 278 896 254 869 q 316 947 302 923 q 282 974 294 955 q 271 1016 271 992 q 291 1068 271 1048 q 344 1089 312 1089 q 401 1068 377 1089 q 425 1007 425 1047 q 411 947 425 976 q 375 891 397 918 q 328 841 354 865 q 277 800 301 818 l 227 845 "},"á":{"x_min":57,"x_max":503,"ha":603,"o":"m 120 713 q 196 737 156 728 q 283 747 236 747 q 441 686 380 747 q 503 498 503 626 l 503 15 q 400 -6 452 1 q 298 -15 348 -15 q 204 -2 248 -15 q 128 37 161 9 q 76 107 95 65 q 57 211 57 150 q 74 310 57 268 q 122 381 91 352 q 194 424 152 409 q 284 439 236 439 q 386 427 330 439 l 386 494 q 354 607 386 575 q 265 639 323 639 q 205 632 233 639 q 144 612 176 626 l 120 713 m 176 212 q 209 118 176 148 q 303 88 242 88 q 386 97 341 88 l 386 328 q 303 340 344 340 q 253 333 277 340 q 212 313 230 327 q 185 274 195 298 q 176 212 176 250 m 457 1007 l 267 808 l 208 859 l 372 1080 l 457 1007 "},"ɍ":{"x_min":20,"x_max":445,"ha":456,"o":"m 424 620 q 323 640 379 640 q 227 621 271 640 l 227 379 l 387 379 l 387 287 l 227 287 l 227 0 l 108 0 l 108 287 l 20 287 l 20 379 l 108 379 l 108 697 q 200 729 148 716 q 315 743 252 743 q 382 738 348 743 q 445 723 415 734 l 424 620 "},"Ӱ":{"x_min":42,"x_max":632,"ha":660,"o":"m 632 963 q 538 639 597 828 q 389 212 480 450 q 290 42 344 94 q 146 -10 235 -10 q 107 -5 131 -10 q 56 8 83 -1 l 78 113 q 108 103 93 106 q 141 100 123 100 q 220 134 192 100 q 271 227 247 168 l 287 270 q 140 651 203 472 q 42 963 77 830 l 166 963 q 243 707 196 844 q 348 421 290 569 q 439 707 398 569 q 506 963 480 844 l 632 963 m 233 1066 q 177 1087 200 1066 q 155 1145 155 1108 q 177 1202 155 1181 q 233 1224 200 1224 q 288 1202 265 1224 q 311 1145 311 1181 q 288 1087 311 1108 q 233 1066 265 1066 m 464 1066 q 408 1087 431 1066 q 386 1145 386 1108 q 408 1202 386 1181 q 464 1224 431 1224 q 519 1202 496 1224 q 542 1145 542 1181 q 519 1087 542 1108 q 464 1066 496 1066 "},"ӆ":{"x_min":10,"x_max":674,"ha":689,"o":"m 456 -162 q 512 -88 487 -129 q 549 0 536 -47 l 463 0 l 463 626 l 313 626 l 313 552 q 297 315 313 419 q 244 135 281 210 q 155 25 208 62 q 23 -14 103 -11 l 10 93 q 101 132 69 102 q 151 209 132 162 q 185 366 176 273 q 195 576 195 459 l 195 729 l 582 729 l 582 99 l 674 99 l 674 86 q 639 -77 674 4 q 540 -217 604 -158 l 456 -162 "},"K":{"x_min":117,"x_max":701,"ha":715,"o":"m 666 963 q 597 858 635 915 q 519 741 559 801 q 438 622 479 680 q 360 513 397 563 q 450 409 401 472 q 545 275 498 345 q 634 133 593 205 q 701 0 676 61 l 560 0 q 493 130 531 63 q 413 259 455 197 q 327 374 370 321 q 242 463 283 426 l 242 0 l 117 0 l 117 963 l 242 963 l 242 538 q 318 642 278 583 q 397 758 358 700 q 471 870 437 817 q 529 963 506 924 l 666 963 "},"7":{"x_min":63,"x_max":525,"ha":597,"o":"m 160 0 q 174 143 162 66 q 204 300 186 220 q 243 459 222 379 q 290 611 265 538 q 340 747 315 684 q 390 857 365 809 l 63 857 l 63 963 l 525 963 l 525 869 q 451 721 491 815 q 375 510 411 627 q 313 261 340 393 q 282 0 287 129 l 160 0 "},"¨":{"x_min":25,"x_max":412,"ha":436,"o":"m 103 858 q 47 879 70 858 q 25 937 25 900 q 47 994 25 973 q 103 1016 70 1016 q 158 994 135 1016 q 181 937 181 973 q 158 879 181 900 q 103 858 135 858 m 334 858 q 278 879 301 858 q 256 937 256 900 q 278 994 256 973 q 334 1016 301 1016 q 389 994 366 1016 q 412 937 412 973 q 389 879 412 900 q 334 858 366 858 "},"Y":{"x_min":4,"x_max":622,"ha":626,"o":"m 622 963 q 570 824 598 897 q 509 674 541 750 q 444 523 477 598 q 378 380 411 448 l 378 0 l 253 0 l 253 372 q 184 516 219 440 q 118 669 150 593 q 56 821 86 746 q 4 963 27 896 l 138 963 q 220 731 174 853 q 315 504 266 610 q 409 731 364 610 q 491 963 455 853 l 622 963 "},"E":{"x_min":117,"x_max":570,"ha":633,"o":"m 117 0 l 117 963 l 548 963 l 548 856 l 242 856 l 242 557 l 519 557 l 519 453 l 242 453 l 242 107 l 570 107 l 570 0 l 117 0 "},"Ô":{"x_min":78,"x_max":762,"ha":840,"o":"m 762 480 q 741 275 762 368 q 679 117 721 183 q 572 15 637 51 q 420 -21 508 -21 q 268 15 333 -21 q 161 117 204 51 q 98 275 119 183 q 78 480 78 368 q 98 686 78 593 q 161 845 119 779 q 268 948 204 911 q 420 985 333 985 q 572 948 508 985 q 679 845 637 911 q 741 686 721 779 q 762 480 762 593 m 629 480 q 617 640 629 568 q 581 764 606 712 q 517 845 556 816 q 420 875 477 875 q 324 845 363 875 q 259 764 284 816 q 222 640 234 712 q 211 480 211 568 q 222 320 211 393 q 259 197 234 248 q 324 117 284 145 q 420 89 363 89 q 517 117 477 89 q 581 197 556 145 q 617 320 606 248 q 629 480 629 393 m 317 1015 l 259 1063 l 418 1275 l 578 1063 l 519 1015 l 418 1133 l 317 1015 "},"έ":{"x_min":63,"x_max":496,"ha":536,"o":"m 190 389 q 115 450 146 409 q 85 556 85 490 q 103 634 85 599 q 151 694 121 669 q 223 733 182 719 q 313 747 265 747 q 394 736 349 747 q 472 709 438 726 l 445 614 q 385 637 413 629 q 318 646 357 646 q 235 622 269 646 q 202 546 202 598 q 237 467 202 500 q 354 435 272 435 l 399 435 l 399 335 l 350 335 q 285 328 315 335 q 231 305 254 321 q 194 265 208 290 q 181 203 181 240 q 193 148 181 171 q 225 112 205 126 q 270 91 244 97 q 322 85 296 85 q 401 94 366 85 q 468 118 436 103 l 496 22 q 412 -7 455 2 q 321 -18 369 -18 q 133 36 203 -18 q 63 200 63 90 q 95 313 63 269 q 190 389 128 357 m 477 980 l 225 810 l 177 874 l 410 1068 l 477 980 "},"ὺ":{"x_min":100,"x_max":574,"ha":674,"o":"m 219 729 l 219 244 q 246 131 219 171 q 336 91 273 91 q 427 131 400 91 q 455 246 455 171 l 455 729 l 574 729 l 574 245 q 514 54 574 123 q 337 -15 455 -15 q 159 50 219 -15 q 100 245 100 115 l 100 729 l 219 729 m 213 1068 l 447 874 l 398 810 l 147 980 l 213 1068 "},"Ƥ":{"x_min":0,"x_max":703,"ha":749,"o":"m 192 0 l 192 845 q 119 806 138 834 q 101 731 101 779 q 101 708 101 720 q 102 688 102 696 l 6 676 q 2 705 4 685 q 0 744 0 724 q 36 869 0 824 q 129 937 73 915 q 250 966 184 960 q 376 972 316 972 q 510 954 450 972 q 613 900 571 937 q 679 805 655 863 q 703 665 703 747 q 679 522 703 581 q 612 427 655 463 q 509 373 569 390 q 375 357 448 357 l 317 357 l 317 0 l 192 0 m 372 859 q 343 859 357 859 q 317 857 329 859 l 317 467 l 366 467 q 452 477 414 467 q 516 511 490 487 q 557 572 543 534 q 571 665 571 609 q 557 757 571 720 q 516 818 543 795 q 454 850 490 841 q 372 859 418 859 "},"Є":{"x_min":76,"x_max":631,"ha":663,"o":"m 426 -21 q 166 105 256 -21 q 76 495 76 231 q 101 723 76 630 q 173 875 127 816 q 282 959 219 933 q 418 985 344 985 q 532 969 479 985 q 619 929 585 953 l 581 825 q 509 861 547 847 q 420 875 471 875 q 268 797 319 875 q 210 559 217 719 l 499 559 l 499 452 l 209 452 q 267 182 214 275 q 434 89 320 89 q 527 102 491 89 q 596 139 562 116 l 631 40 q 546 -2 599 15 q 426 -21 494 -21 "},"Ï":{"x_min":-13,"x_max":374,"ha":358,"o":"m 117 963 l 242 963 l 242 0 l 117 0 l 117 963 m 65 1066 q 9 1087 32 1066 q -13 1145 -13 1108 q 9 1202 -13 1181 q 65 1224 32 1224 q 120 1202 97 1224 q 143 1145 143 1181 q 120 1087 143 1108 q 65 1066 97 1066 m 296 1066 q 240 1087 263 1066 q 218 1145 218 1108 q 240 1202 218 1181 q 296 1224 263 1224 q 351 1202 328 1224 q 374 1145 374 1181 q 351 1087 374 1108 q 296 1066 328 1066 "},"Ȅ":{"x_min":92,"x_max":570,"ha":633,"o":"m 117 0 l 117 963 l 548 963 l 548 856 l 242 856 l 242 557 l 519 557 l 519 453 l 242 453 l 242 107 l 570 107 l 570 0 l 117 0 m 368 1306 l 501 1069 l 437 1031 l 282 1249 l 368 1306 m 178 1306 l 311 1069 l 247 1031 l 92 1249 l 178 1306 "},"ῶ":{"x_min":76,"x_max":825,"ha":901,"o":"m 608 -14 q 519 7 559 -14 q 450 73 478 29 q 293 -14 394 -14 q 190 15 231 -14 q 123 93 148 44 q 87 207 98 143 q 76 344 76 272 q 106 553 76 450 q 190 745 137 657 l 301 707 q 225 535 253 626 q 198 347 198 443 q 202 251 198 297 q 219 171 207 205 q 252 117 231 137 q 305 97 273 97 q 392 220 392 97 l 392 567 l 510 567 l 510 220 q 596 97 510 97 q 648 117 628 97 q 681 171 669 137 q 698 251 693 205 q 703 347 703 297 q 675 535 703 443 q 600 707 647 626 l 711 745 q 794 553 763 657 q 825 344 825 450 q 813 207 825 272 q 777 93 802 143 q 711 15 752 44 q 608 -14 669 -14 m 450 1055 q 568 1004 526 1055 q 610 861 610 953 l 529 861 q 510 940 526 907 q 450 974 494 974 q 389 940 405 974 q 371 861 373 907 l 290 861 q 331 1004 290 953 q 450 1055 372 1055 "},"έ":{"x_min":63,"x_max":496,"ha":536,"o":"m 190 389 q 115 450 146 409 q 85 556 85 490 q 103 634 85 599 q 151 694 121 669 q 223 733 182 719 q 313 747 265 747 q 394 736 349 747 q 472 709 438 726 l 445 614 q 385 637 413 629 q 318 646 357 646 q 235 622 269 646 q 202 546 202 598 q 237 467 202 500 q 354 435 272 435 l 399 435 l 399 335 l 350 335 q 285 328 315 335 q 231 305 254 321 q 194 265 208 290 q 181 203 181 240 q 193 148 181 171 q 225 112 205 126 q 270 91 244 97 q 322 85 296 85 q 401 94 366 85 q 468 118 436 103 l 496 22 q 412 -7 455 2 q 321 -18 369 -18 q 133 36 203 -18 q 63 200 63 90 q 95 313 63 269 q 190 389 128 357 m 457 1034 l 288 801 l 221 844 l 364 1094 l 457 1034 "},"ȴ":{"x_min":-8,"x_max":468,"ha":454,"o":"m 229 113 q 317 140 267 140 q 383 124 355 140 q 429 81 411 108 q 458 17 448 53 q 468 -57 468 -18 q 458 -127 468 -91 q 427 -191 448 -162 q 373 -238 406 -220 q 293 -257 340 -257 q 196 -229 240 -257 q 129 -149 153 -202 l 58 -261 l -8 -215 l 110 -22 l 110 1055 l 229 1078 l 229 113 m 302 57 q 229 12 259 57 l 229 -50 q 247 -140 229 -107 q 300 -174 266 -174 q 352 -146 334 -174 q 371 -61 371 -119 q 354 24 371 -7 q 302 57 338 57 "},"Ɖ":{"x_min":21,"x_max":724,"ha":800,"o":"m 21 528 l 115 528 l 115 949 q 217 967 167 960 q 313 974 267 974 q 482 946 406 974 q 612 860 558 919 q 694 707 665 801 q 724 482 724 614 q 694 256 724 349 q 612 103 665 162 q 482 17 558 44 q 315 -10 406 -10 q 115 15 220 -10 l 115 436 l 21 436 l 21 528 m 591 482 q 526 772 591 682 q 319 863 462 863 q 280 861 299 863 q 240 857 260 860 l 240 528 l 390 528 l 390 436 l 240 436 l 240 106 q 280 102 260 103 q 318 101 299 101 q 526 190 461 101 q 591 482 591 280 "},"ἰ":{"x_min":70,"x_max":313,"ha":338,"o":"m 297 -14 q 150 33 194 -11 q 106 183 106 79 l 106 729 l 225 729 l 225 181 q 242 111 225 133 q 313 82 259 90 l 297 -14 m 70 845 q 121 896 97 869 q 159 947 145 923 q 125 974 137 955 q 114 1016 114 992 q 134 1068 114 1048 q 187 1089 155 1089 q 244 1068 220 1089 q 268 1007 268 1047 q 254 947 268 976 q 218 891 240 918 q 171 841 197 865 q 120 800 144 818 l 70 845 "},"ϋ":{"x_min":100,"x_max":574,"ha":674,"o":"m 219 729 l 219 244 q 246 131 219 171 q 336 91 273 91 q 427 131 400 91 q 455 246 455 171 l 455 729 l 574 729 l 574 245 q 514 54 574 123 q 337 -15 455 -15 q 159 50 219 -15 q 100 245 100 115 l 100 729 l 219 729 m 223 858 q 167 879 190 858 q 145 937 145 900 q 167 994 145 973 q 223 1016 190 1016 q 278 994 255 1016 q 301 937 301 973 q 278 879 301 900 q 223 858 255 858 m 454 858 q 398 879 421 858 q 376 937 376 900 q 398 994 376 973 q 454 1016 421 1016 q 509 994 486 1016 q 532 937 532 973 q 509 879 532 900 q 454 858 486 858 "},"":{"x_min":74,"x_max":982,"ha":1008,"o":"m 375 588 q 363 522 375 554 q 330 467 352 491 q 275 428 308 442 q 198 415 241 415 q 131 423 164 415 q 74 444 98 431 l 89 525 q 178 505 136 505 q 246 527 219 505 q 274 595 274 549 q 242 665 274 637 q 131 694 210 694 q 116 693 124 694 q 102 693 108 693 q 113 829 108 758 q 120 963 117 900 l 358 963 l 358 877 l 200 877 q 198 822 199 850 q 194 767 196 793 q 327 712 279 758 q 375 588 375 666 m 753 963 l 360 0 l 256 0 l 648 963 l 753 963 m 715 1 q 732 116 719 55 q 765 237 745 177 q 811 352 786 297 q 867 449 837 407 l 650 449 l 650 539 l 982 539 l 982 469 q 932 390 959 440 q 880 277 905 340 q 838 143 856 215 q 816 1 820 71 l 715 1 "},"ἶ":{"x_min":-15,"x_max":354,"ha":338,"o":"m 297 -14 q 150 33 194 -11 q 106 183 106 79 l 106 729 l 225 729 l 225 181 q 242 111 225 133 q 313 82 259 90 l 297 -14 m 168 1224 q 241 1212 207 1224 q 299 1178 274 1200 q 339 1124 324 1157 q 354 1051 354 1092 l 276 1051 q 243 1113 270 1087 q 168 1139 217 1139 q 94 1113 120 1139 q 63 1051 68 1087 l -15 1051 q -1 1124 -15 1092 q 37 1178 12 1157 q 96 1212 62 1200 q 168 1224 129 1224 m 65 841 q 109 879 88 859 q 143 918 129 899 q 113 941 123 924 q 103 978 103 958 q 122 1026 103 1008 q 169 1044 141 1044 q 220 1023 198 1044 q 242 967 242 1002 q 229 918 242 942 q 198 872 216 894 q 154 832 179 851 q 108 800 130 813 l 65 841 "},"ἳ":{"x_min":-52,"x_max":338,"ha":338,"o":"m 297 -14 q 150 33 194 -11 q 106 183 106 79 l 106 729 l 225 729 l 225 181 q 242 111 225 133 q 313 82 259 90 l 297 -14 m 82 800 q 35 841 59 818 q -7 891 11 865 q -39 947 -26 918 q -52 1007 -52 976 q -29 1068 -52 1047 q 24 1089 -7 1089 q 74 1068 54 1089 q 95 1016 95 1048 q 82 974 95 992 q 47 947 70 955 q 80 896 59 923 q 126 845 102 869 l 82 800 m 221 1086 l 338 834 l 273 797 l 128 1038 l 221 1086 "},"Ἐ":{"x_min":-58,"x_max":662,"ha":725,"o":"m 209 0 l 209 963 l 640 963 l 640 856 l 334 856 l 334 557 l 611 557 l 611 453 l 334 453 l 334 107 l 662 107 l 662 0 l 209 0 m -58 745 q -6 796 -30 769 q 31 847 17 823 q -2 874 9 855 q -14 916 -14 892 q 6 968 -14 948 q 59 989 27 989 q 116 968 92 989 q 140 907 140 947 q 126 847 140 876 q 90 791 112 818 q 43 741 69 765 q -8 700 16 718 l -58 745 "},"b":{"x_min":107,"x_max":582,"ha":649,"o":"m 226 97 q 263 90 245 92 q 296 88 281 88 q 417 152 377 88 q 457 366 457 216 q 447 496 457 444 q 418 581 437 549 q 373 627 399 613 q 312 641 347 641 q 226 618 266 641 l 226 97 m 226 723 q 271 740 248 734 q 326 747 294 747 q 442 719 394 747 q 522 643 491 692 q 567 524 552 594 q 582 366 582 454 q 513 77 582 173 q 297 -18 444 -18 q 195 -7 245 -18 q 107 19 145 2 l 107 1057 l 226 1078 l 226 723 "},"ύ":{"x_min":100,"x_max":574,"ha":674,"o":"m 219 729 l 219 244 q 246 131 219 171 q 336 91 273 91 q 427 131 400 91 q 455 246 455 171 l 455 729 l 574 729 l 574 245 q 514 54 574 123 q 337 -15 455 -15 q 159 50 219 -15 q 100 245 100 115 l 100 729 l 219 729 m 504 1034 l 335 801 l 268 844 l 411 1094 l 504 1034 "},"ﬂ":{"x_min":108,"x_max":738,"ha":763,"o":"m 722 -14 q 575 36 619 -11 q 531 188 531 84 l 531 1057 l 650 1078 l 650 186 q 669 115 650 137 q 738 86 689 94 l 722 -14 m 320 1078 q 379 1072 352 1078 q 425 1058 405 1066 l 402 964 q 331 977 366 977 q 254 944 281 977 q 227 830 227 911 l 227 729 l 415 729 l 415 626 l 227 626 l 227 0 l 108 0 l 108 830 q 160 1013 108 948 q 320 1078 213 1078 "},"ῦ":{"x_min":100,"x_max":574,"ha":674,"o":"m 219 729 l 219 244 q 246 131 219 171 q 336 91 273 91 q 427 131 400 91 q 455 246 455 171 l 455 729 l 574 729 l 574 245 q 514 54 574 123 q 337 -15 455 -15 q 159 50 219 -15 q 100 245 100 115 l 100 729 l 219 729 m 337 1055 q 455 1004 413 1055 q 497 861 497 953 l 416 861 q 397 940 413 907 q 337 974 381 974 q 276 940 292 974 q 258 861 260 907 l 177 861 q 218 1004 177 953 q 337 1055 259 1055 "},"ᾱ":{"x_min":67,"x_max":629,"ha":654,"o":"m 541 181 q 560 114 541 137 q 629 86 580 91 l 613 -14 q 560 -9 581 -12 q 522 0 538 -5 q 494 15 506 6 q 470 36 483 25 q 402 -3 438 11 q 324 -18 366 -18 q 130 81 194 -18 q 67 361 67 180 q 139 647 67 547 q 362 747 212 747 q 455 735 406 747 q 541 709 504 724 l 541 181 m 343 88 q 391 97 370 88 q 427 121 412 107 q 423 153 424 136 q 422 189 422 169 l 422 631 q 391 638 406 635 q 361 641 376 641 q 235 577 279 641 q 192 362 192 513 q 230 155 192 222 q 343 88 268 88 m 178 987 l 474 987 l 474 893 l 178 893 l 178 987 "},"ƞ":{"x_min":108,"x_max":570,"ha":670,"o":"m 108 708 q 219 734 159 724 q 329 745 279 745 q 428 730 383 745 q 503 681 472 715 q 552 587 535 646 q 570 440 570 528 l 570 -254 l 451 -254 l 451 430 q 423 589 451 539 q 318 639 395 639 q 227 625 277 639 l 227 0 l 108 0 l 108 708 "},"Ǌ":{"x_min":117,"x_max":1245,"ha":1354,"o":"m 588 0 q 512 177 554 82 q 424 368 470 272 q 329 560 377 465 q 234 737 281 655 l 234 0 l 117 0 l 117 963 l 221 963 q 323 786 274 876 q 416 607 372 696 q 500 434 460 519 q 573 272 539 348 l 573 963 l 690 963 l 690 0 l 588 0 m 1245 255 q 1231 140 1245 191 q 1190 54 1218 90 q 1115 -1 1161 17 q 1001 -21 1068 -21 q 900 -5 949 -21 q 813 40 851 10 l 854 139 q 917 104 878 120 q 994 89 957 89 q 1047 95 1024 89 q 1086 121 1069 102 q 1111 173 1103 140 q 1120 255 1120 205 l 1120 963 l 1245 963 l 1245 255 "},"ῼ":{"x_min":69,"x_max":1160,"ha":1185,"o":"m 1144 -14 q 997 33 1041 -11 q 953 183 953 79 l 953 729 l 1072 729 l 1072 181 q 1089 111 1072 133 q 1160 82 1106 90 l 1144 -14 m 425 878 q 343 858 380 878 q 277 796 305 839 q 233 687 249 754 q 218 525 218 619 q 261 277 218 387 q 368 82 304 167 l 368 0 l 69 0 l 69 106 l 226 106 q 176 186 201 140 q 131 286 151 232 q 98 403 111 340 q 86 532 86 465 q 110 727 86 642 q 179 870 134 812 q 286 958 223 928 q 425 988 348 988 q 562 958 500 988 q 669 870 625 928 q 738 727 714 812 q 763 532 763 642 q 750 403 763 465 q 717 286 737 340 q 672 186 697 232 q 622 106 647 140 l 780 106 l 780 0 l 481 0 l 481 82 q 538 173 511 124 q 586 278 565 222 q 619 395 607 333 q 631 525 631 457 q 615 687 631 619 q 571 796 599 754 q 506 858 544 839 q 425 878 468 878 "},"Ʈ":{"x_min":19,"x_max":572,"ha":592,"o":"m 572 963 l 572 856 l 358 856 l 358 -36 q 363 -95 358 -72 q 379 -133 369 -119 q 403 -152 390 -147 q 435 -157 417 -157 q 483 -152 459 -157 l 500 -246 q 422 -258 462 -258 q 283 -206 334 -258 q 233 -35 233 -155 l 233 856 l 19 856 l 19 963 l 572 963 "},"Ὢ":{"x_min":-58,"x_max":1104,"ha":1172,"o":"m -58 745 q -13 796 -34 769 q 20 847 7 823 q -15 874 -3 855 q -27 916 -27 892 q -6 968 -27 948 q 43 989 13 989 q 97 968 75 989 q 120 907 120 947 q 107 847 120 876 q 75 791 94 818 q 31 741 56 765 q -14 700 7 718 l -58 745 m 256 986 l 373 734 l 308 697 l 163 938 l 256 986 m 749 878 q 667 858 704 878 q 601 796 629 839 q 557 687 573 754 q 542 525 542 619 q 585 277 542 387 q 692 82 628 167 l 692 0 l 393 0 l 393 106 l 550 106 q 500 186 525 140 q 455 286 475 232 q 422 403 435 340 q 410 532 410 465 q 434 727 410 642 q 503 870 458 812 q 610 958 547 928 q 749 988 672 988 q 886 958 824 988 q 993 870 949 928 q 1062 727 1038 812 q 1087 532 1087 642 q 1074 403 1087 465 q 1041 286 1061 340 q 996 186 1021 232 q 946 106 971 140 l 1104 106 l 1104 0 l 805 0 l 805 82 q 862 173 835 124 q 910 278 889 222 q 943 395 931 333 q 955 525 955 457 q 939 687 955 619 q 895 796 923 754 q 830 858 868 839 q 749 878 792 878 "},"ҋ":{"x_min":108,"x_max":662,"ha":679,"o":"m 570 733 l 570 99 l 662 99 l 662 86 q 626 -77 662 4 q 528 -217 591 -158 l 444 -162 q 500 -88 475 -129 q 537 0 524 -47 l 457 0 l 457 527 q 391 403 427 473 q 320 262 355 334 q 253 121 285 190 q 202 0 222 52 l 108 0 l 108 733 l 219 733 l 219 252 q 277 375 243 309 q 345 506 310 441 q 413 629 379 570 q 476 733 447 688 l 570 733 m 341 934 q 399 957 378 934 q 428 1034 419 981 l 516 1014 q 454 884 502 923 q 341 846 407 846 q 227 884 274 846 q 166 1014 179 923 l 254 1034 q 283 957 262 981 q 341 934 303 934 "},"ф":{"x_min":56,"x_max":757,"ha":813,"o":"m 353 -254 l 353 -3 q 227 35 282 5 q 134 114 172 66 q 76 226 96 162 q 56 364 56 290 q 76 501 56 437 q 134 613 96 565 q 227 692 172 661 q 353 731 282 722 l 353 1057 l 461 1078 l 461 731 q 586 692 531 722 q 679 613 641 661 q 736 501 716 565 q 757 364 757 437 q 736 226 757 290 q 679 114 716 162 q 586 35 641 66 q 461 -3 531 5 l 461 -254 l 353 -254 m 177 370 q 219 193 177 265 q 353 103 261 121 l 353 625 q 219 542 261 609 q 177 370 177 475 m 636 370 q 594 543 636 475 q 461 626 552 611 l 461 101 q 594 192 552 119 q 636 370 636 265 "},"ȭ":{"x_min":67,"x_max":576,"ha":643,"o":"m 174 1143 l 470 1143 l 470 1051 l 174 1051 l 174 1143 m 501 966 q 461 864 488 899 q 393 829 434 829 q 349 838 370 829 q 312 861 329 848 q 281 883 296 873 q 253 893 266 893 q 231 879 240 893 q 214 829 222 865 l 145 852 q 184 954 156 919 q 252 990 211 990 q 296 980 277 990 q 333 958 316 970 q 363 935 349 945 q 392 926 377 926 q 414 939 405 926 q 432 990 423 953 l 501 966 m 576 363 q 560 207 576 277 q 514 87 545 137 q 435 9 483 37 q 322 -18 387 -18 q 208 9 257 -18 q 128 87 159 37 q 82 207 97 137 q 67 363 67 277 q 82 519 67 448 q 128 640 97 590 q 208 719 159 691 q 322 747 257 747 q 435 719 387 747 q 514 640 483 691 q 560 519 545 590 q 576 363 576 448 m 451 363 q 444 475 451 424 q 421 562 437 526 q 381 619 406 599 q 322 640 356 640 q 261 619 286 640 q 221 562 237 599 q 198 475 205 526 q 192 363 192 424 q 198 252 192 302 q 221 165 205 201 q 261 109 237 129 q 322 89 286 89 q 381 109 356 89 q 421 165 406 129 q 444 252 437 201 q 451 363 451 302 "},"Ŋ":{"x_min":117,"x_max":690,"ha":807,"o":"m 690 -41 q 643 -212 690 -161 q 513 -264 596 -264 q 472 -260 492 -264 q 434 -250 452 -257 l 450 -149 q 475 -153 463 -151 q 499 -156 486 -156 q 531 -151 517 -156 q 554 -132 545 -146 q 568 -94 563 -118 q 573 -35 573 -71 l 573 37 q 498 208 539 117 q 413 390 458 298 q 323 571 369 482 q 234 737 278 660 l 234 0 l 117 0 l 117 963 l 222 963 q 323 786 274 876 q 416 607 372 696 q 500 434 461 519 q 573 272 539 348 l 573 963 l 690 963 l 690 -41 "},"Ũ":{"x_min":108,"x_max":655,"ha":763,"o":"m 378 -21 q 175 55 243 -21 q 108 297 108 131 l 108 963 l 233 963 l 233 308 q 265 143 233 198 q 380 89 297 89 q 498 145 467 89 q 530 308 530 201 l 530 963 l 655 963 l 655 297 q 585 56 655 134 q 378 -21 515 -21 m 559 1209 q 519 1107 546 1142 q 451 1072 492 1072 q 407 1081 428 1072 q 370 1104 387 1091 q 339 1126 354 1116 q 311 1136 324 1136 q 289 1122 298 1136 q 272 1072 280 1108 l 203 1095 q 242 1197 214 1162 q 310 1233 269 1233 q 354 1223 335 1233 q 391 1201 374 1213 q 421 1178 407 1188 q 450 1169 435 1169 q 472 1182 463 1169 q 490 1233 481 1196 l 559 1209 "},"L":{"x_min":117,"x_max":546,"ha":579,"o":"m 546 107 l 546 0 l 117 0 l 117 963 l 242 963 l 242 107 l 546 107 "},"ď":{"x_min":67,"x_max":749,"ha":713,"o":"m 423 618 q 336 641 382 641 q 275 627 301 641 q 230 581 249 613 q 201 496 211 549 q 192 366 192 444 q 231 152 192 216 q 352 88 271 88 q 385 90 367 88 q 423 97 403 92 l 423 618 m 423 1057 l 542 1078 l 542 19 q 453 -7 503 2 q 351 -18 403 -18 q 134 77 201 -18 q 67 366 67 173 q 81 524 67 454 q 127 643 96 594 q 207 719 158 692 q 322 747 256 747 q 377 740 354 747 q 423 723 400 734 l 423 1057 m 749 1078 l 711 768 l 632 768 l 632 1078 l 749 1078 "},"Ο":{"x_min":78,"x_max":762,"ha":840,"o":"m 762 480 q 741 275 762 368 q 679 117 721 183 q 572 15 637 51 q 420 -21 508 -21 q 268 15 333 -21 q 161 117 204 51 q 98 275 119 183 q 78 480 78 368 q 98 686 78 593 q 161 845 119 779 q 268 948 204 911 q 420 985 333 985 q 572 948 508 985 q 679 845 637 911 q 741 686 721 779 q 762 480 762 593 m 629 480 q 617 640 629 568 q 581 764 606 712 q 517 845 556 816 q 420 875 477 875 q 324 845 363 875 q 259 764 284 816 q 222 640 234 712 q 211 480 211 568 q 222 320 211 393 q 259 197 234 248 q 324 117 284 145 q 420 89 363 89 q 517 117 477 89 q 581 197 556 145 q 617 320 606 248 q 629 480 629 393 "},"ŧ":{"x_min":100,"x_max":425,"ha":488,"o":"m 219 729 l 403 729 l 403 626 l 219 626 l 219 425 l 403 425 l 403 333 l 219 333 l 219 225 q 246 120 219 150 q 319 91 273 91 q 364 97 342 91 q 401 114 386 104 l 425 18 q 304 -15 368 -15 q 150 42 201 -15 q 100 233 100 100 l 100 925 l 219 946 l 219 729 "},"À":{"x_min":28,"x_max":671,"ha":699,"o":"m 415 963 q 481 752 448 858 q 545 529 514 645 q 608 282 576 412 q 671 0 639 151 l 545 0 q 523 123 535 62 q 499 246 511 184 l 195 246 q 170 123 181 184 q 148 0 159 62 l 28 0 q 90 281 58 151 q 153 529 122 412 q 217 752 184 645 q 283 963 250 858 l 415 963 m 347 821 q 280 588 312 705 q 219 350 248 472 l 474 350 q 414 589 446 472 q 347 821 382 705 m 253 1288 l 418 1067 l 358 1016 l 169 1215 l 253 1288 "},"Ώ":{"x_min":-58,"x_max":843,"ha":911,"o":"m 191 907 l 1 708 l -58 759 l 106 980 l 191 907 m 488 878 q 406 858 443 878 q 340 796 368 839 q 296 687 312 754 q 281 525 281 619 q 324 277 281 387 q 431 82 367 167 l 431 0 l 132 0 l 132 106 l 289 106 q 239 186 264 140 q 194 286 214 232 q 161 403 174 340 q 149 532 149 465 q 173 727 149 642 q 242 870 197 812 q 349 958 286 928 q 488 988 411 988 q 625 958 563 988 q 732 870 688 928 q 801 727 777 812 q 826 532 826 642 q 813 403 826 465 q 780 286 800 340 q 735 186 760 232 q 685 106 710 140 l 843 106 l 843 0 l 544 0 l 544 82 q 601 173 574 124 q 649 278 628 222 q 682 395 670 333 q 694 525 694 457 q 678 687 694 619 q 634 796 662 754 q 569 858 607 839 q 488 878 531 878 "},"½":{"x_min":36,"x_max":915,"ha":981,"o":"m 36 846 q 116 897 76 868 q 190 963 157 926 l 261 963 l 261 425 l 164 425 l 164 826 q 73 772 116 790 l 36 846 m 704 963 l 311 0 l 207 0 l 599 963 l 704 963 m 908 402 q 897 339 908 369 q 871 284 887 310 q 836 236 855 259 q 800 193 817 213 q 763 144 781 170 q 738 91 744 118 l 915 91 l 915 1 l 623 1 l 623 24 q 633 92 623 60 q 659 152 643 124 q 696 205 675 180 q 735 255 716 231 q 791 330 772 299 q 811 392 811 360 q 792 442 811 426 q 748 458 773 458 q 704 448 727 458 q 661 423 681 438 l 620 497 q 686 533 652 520 q 759 547 720 547 q 866 508 824 547 q 908 402 908 469 "},"'":{"x_min":97,"x_max":211,"ha":308,"o":"m 211 1056 l 211 986 q 204 844 211 918 q 184 696 197 771 l 123 696 q 103 844 110 771 q 97 987 97 917 l 97 1056 l 211 1056 "},"Ҽ":{"x_min":7,"x_max":807,"ha":882,"o":"m 113 660 q 221 552 113 560 q 315 876 235 767 q 523 985 396 985 q 655 953 601 985 q 743 862 709 921 q 791 718 776 803 q 807 529 807 633 q 807 489 807 508 q 805 446 807 469 l 351 446 q 362 304 352 369 q 396 191 371 239 q 463 116 421 143 q 572 89 506 89 q 654 100 618 89 q 730 139 691 112 l 765 40 q 562 -21 679 -21 q 404 13 468 -21 q 299 108 340 47 q 240 255 258 169 q 220 446 221 341 q 134 459 174 447 q 66 496 94 472 q 23 558 39 521 q 7 647 7 594 q 9 686 7 667 q 15 716 12 706 l 115 703 q 113 683 114 695 q 113 660 113 671 m 525 874 q 450 849 481 874 q 399 780 420 824 q 367 678 378 736 q 352 552 356 620 l 671 552 q 664 676 671 618 q 640 778 657 735 q 596 848 623 822 q 525 874 568 874 "},"˛":{"x_min":106,"x_max":330.9375,"ha":436,"o":"m 330 -244 q 244 -260 292 -260 q 144 -228 183 -260 q 106 -143 106 -197 q 132 -60 106 -97 q 206 11 158 -23 l 327 11 q 243 -50 273 -20 q 214 -112 214 -80 q 231 -154 214 -141 q 273 -167 248 -167 q 324 -157 300 -167 l 330 -244 "},"":{"x_min":44,"x_max":269,"ha":389,"o":"m 44 253 q 124 304 84 275 q 198 370 165 333 l 269 370 l 269 -168 l 172 -168 l 172 233 q 81 179 124 197 l 44 253 "},"ᾲ":{"x_min":67,"x_max":629,"ha":654,"o":"m 541 181 q 560 114 541 137 q 629 86 580 91 l 613 -14 q 560 -9 581 -12 q 522 0 538 -5 q 494 15 506 6 q 470 36 483 25 q 402 -3 438 11 q 324 -18 366 -18 q 130 81 194 -18 q 67 361 67 180 q 139 647 67 547 q 362 747 212 747 q 455 735 406 747 q 541 709 504 724 l 541 181 m 343 88 q 391 97 370 88 q 427 121 412 107 q 423 153 424 136 q 422 189 422 169 l 422 631 q 391 638 406 635 q 361 641 376 641 q 235 577 279 641 q 192 362 192 513 q 230 155 192 222 q 343 88 268 88 m 243 1068 l 477 874 l 428 810 l 177 980 l 243 1068 m 376 -87 q 394 -163 376 -142 q 446 -184 412 -184 q 463 -182 458 -184 l 463 -254 q 444 -258 456 -257 q 416 -260 431 -260 q 313 -222 355 -260 q 272 -98 272 -185 q 272 -84 272 -93 q 273 -69 272 -75 l 376 -69 l 376 -87 "},"Ɠ":{"x_min":76,"x_max":780,"ha":710,"o":"m 76 482 q 102 714 76 618 q 176 870 128 809 q 293 957 224 930 q 447 985 362 985 q 498 981 474 985 q 546 972 522 978 q 704 1095 584 1095 q 745 1090 725 1095 q 780 1078 764 1085 l 763 978 q 706 994 732 994 q 670 982 685 994 q 646 953 656 971 q 630 912 636 935 q 620 864 624 889 l 616 841 q 542 865 581 856 q 448 875 503 875 q 264 777 320 875 q 209 482 209 680 q 225 301 209 376 q 270 179 241 226 q 341 110 299 132 q 435 88 383 88 q 509 97 478 88 l 509 474 l 634 474 l 634 21 q 540 -9 596 3 q 423 -22 485 -22 q 284 7 348 -22 q 174 99 220 37 q 101 256 127 161 q 76 482 76 351 "},"Ć":{"x_min":76,"x_max":630,"ha":651,"o":"m 425 -21 q 166 105 256 -21 q 76 495 76 231 q 101 723 76 630 q 173 875 127 816 q 281 959 219 933 q 417 985 344 985 q 531 969 479 985 q 618 929 584 953 l 580 825 q 508 861 547 847 q 420 875 470 875 q 259 782 309 875 q 209 495 209 690 q 261 194 209 300 q 434 89 314 89 q 526 102 491 89 q 595 139 561 116 l 630 40 q 546 -2 598 15 q 425 -21 493 -21 m 572 1215 l 382 1016 l 323 1067 l 487 1288 l 572 1215 "},"£":{"x_min":61,"x_max":557,"ha":597,"o":"m 471 421 l 276 421 l 276 402 q 269 254 276 334 q 252 103 263 173 l 557 103 l 557 0 l 120 0 q 147 194 137 97 q 157 393 157 291 l 157 421 l 61 421 l 61 517 l 157 517 l 157 718 q 175 831 157 782 q 225 914 193 880 q 302 964 258 947 q 400 981 347 981 q 481 970 444 981 q 542 944 518 960 l 514 844 q 464 866 491 858 q 411 875 437 875 q 310 834 345 875 q 276 715 276 793 l 276 517 l 471 517 l 471 421 "},"ů":{"x_min":99,"x_max":560,"ha":667,"o":"m 560 21 q 516 7 541 14 q 462 -3 490 1 q 405 -11 433 -8 q 353 -15 376 -15 q 248 -1 296 -15 q 168 44 201 11 q 117 135 135 78 q 99 280 99 193 l 99 729 l 218 729 l 218 285 q 250 134 218 178 q 350 91 283 91 q 395 93 372 91 q 441 102 417 95 l 441 729 l 560 729 l 560 21 m 454 947 q 419 860 454 892 q 335 829 384 829 q 251 860 286 829 q 217 947 217 892 q 251 1033 217 1001 q 335 1065 286 1065 q 419 1033 384 1065 q 454 947 454 1001 m 391 947 q 375 989 391 974 q 335 1004 359 1004 q 295 989 311 1004 q 280 947 280 974 q 295 904 280 919 q 335 890 311 890 q 375 904 359 890 q 391 947 391 919 "},"⅕":{"x_min":36,"x_max":934,"ha":1008,"o":"m 36 846 q 116 897 76 868 q 190 963 157 926 l 261 963 l 261 425 l 164 425 l 164 826 q 73 772 116 790 l 36 846 m 725 963 l 332 0 l 228 0 l 620 963 l 725 963 m 934 166 q 922 100 934 132 q 889 45 911 69 q 834 6 867 20 q 757 -7 800 -7 q 690 1 723 -7 q 633 22 657 9 l 648 103 q 737 83 695 83 q 805 105 778 83 q 833 173 833 127 q 801 243 833 215 q 690 272 769 272 q 675 271 683 272 q 661 271 667 271 q 672 407 667 336 q 679 541 676 478 l 917 541 l 917 455 l 759 455 q 757 400 758 428 q 753 345 755 371 q 886 290 838 336 q 934 166 934 244 "},"Ǵ":{"x_min":76,"x_max":633,"ha":729,"o":"m 76 482 q 100 714 76 618 q 172 870 125 809 q 284 957 219 930 q 432 985 350 985 q 546 967 495 985 q 630 928 598 950 l 591 823 q 521 860 559 845 q 435 875 484 875 q 261 777 314 875 q 209 482 209 679 q 224 301 209 376 q 270 179 240 226 q 341 110 299 132 q 434 88 382 88 q 508 97 477 88 l 508 474 l 633 474 l 633 21 q 539 -9 595 3 q 423 -22 484 -22 q 284 7 348 -22 q 173 99 220 37 q 101 256 127 161 q 76 482 76 351 m 541 1224 l 351 1025 l 292 1076 l 456 1297 l 541 1224 "},"Ğ":{"x_min":76,"x_max":633,"ha":729,"o":"m 76 482 q 100 714 76 618 q 172 870 125 809 q 284 957 219 930 q 432 985 350 985 q 546 967 495 985 q 630 928 598 950 l 591 823 q 521 860 559 845 q 435 875 484 875 q 261 777 314 875 q 209 482 209 679 q 224 301 209 376 q 270 179 240 226 q 341 110 299 132 q 434 88 382 88 q 508 97 477 88 l 508 474 l 633 474 l 633 21 q 539 -9 595 3 q 423 -22 484 -22 q 284 7 348 -22 q 173 99 220 37 q 101 256 127 161 q 76 482 76 351 m 405 1062 q 286 1112 327 1062 q 246 1256 246 1163 l 327 1256 q 345 1176 329 1209 q 405 1143 361 1143 q 465 1176 449 1143 q 484 1256 481 1209 l 565 1256 q 523 1112 565 1163 q 405 1062 481 1062 "},"ә":{"x_min":68,"x_max":538,"ha":606,"o":"m 416 399 q 406 494 414 450 q 379 572 397 539 q 329 622 360 604 q 249 641 297 641 q 174 629 208 641 q 125 609 140 617 l 103 705 q 163 732 121 717 q 264 747 205 747 q 392 719 340 747 q 476 641 444 691 q 523 522 508 591 q 538 369 538 452 q 520 195 538 268 q 471 75 503 122 q 394 4 439 27 q 294 -18 348 -18 q 119 74 170 -18 q 68 335 68 167 q 68 366 68 350 q 69 399 68 382 l 416 399 m 294 83 q 381 142 354 83 q 414 302 409 202 l 193 302 q 213 141 193 200 q 294 83 234 83 "},"Ї":{"x_min":-13,"x_max":374,"ha":358,"o":"m 117 963 l 242 963 l 242 0 l 117 0 l 117 963 m 65 1066 q 9 1087 32 1066 q -13 1145 -13 1108 q 9 1202 -13 1181 q 65 1224 32 1224 q 120 1202 97 1224 q 143 1145 143 1181 q 120 1087 143 1108 q 65 1066 97 1066 m 296 1066 q 240 1087 263 1066 q 218 1145 218 1108 q 240 1202 218 1181 q 296 1224 263 1224 q 351 1202 328 1224 q 374 1145 374 1181 q 351 1087 374 1108 q 296 1066 328 1066 "},"û":{"x_min":99,"x_max":560,"ha":667,"o":"m 560 21 q 516 7 541 14 q 462 -3 490 1 q 405 -11 433 -8 q 353 -15 376 -15 q 248 -1 296 -15 q 168 44 201 11 q 117 135 135 78 q 99 280 99 193 l 99 729 l 218 729 l 218 285 q 250 134 218 178 q 350 91 283 91 q 395 93 372 91 q 441 102 417 95 l 441 729 l 560 729 l 560 21 m 232 807 l 174 855 l 333 1067 l 493 855 l 434 807 l 333 925 l 232 807 "},"Ź":{"x_min":43,"x_max":552,"ha":600,"o":"m 542 864 q 448 691 500 790 q 346 487 397 591 q 251 282 296 382 q 176 107 205 182 l 552 107 l 552 0 l 43 0 l 43 76 q 91 198 63 132 q 151 336 119 265 q 217 480 183 408 q 285 621 251 553 q 350 749 319 689 q 408 856 382 810 l 61 856 l 61 963 l 542 963 l 542 864 m 434 1215 l 244 1016 l 185 1067 l 349 1288 l 434 1215 "},"":{"x_min":55,"x_max":501,"ha":567,"o":"m 97 98 q 194 119 149 103 q 274 169 239 135 q 333 257 309 202 q 368 396 357 312 q 267 374 314 374 q 111 452 167 374 q 55 668 55 530 q 107 900 55 815 q 271 985 159 985 q 371 962 328 985 q 443 889 414 940 q 486 756 471 839 q 501 554 501 673 q 480 349 501 448 q 414 174 460 251 q 294 49 369 97 q 109 -3 219 1 l 97 98 m 296 471 q 378 496 338 471 q 379 530 378 512 q 380 566 380 547 q 377 688 380 630 q 363 789 374 746 q 330 859 352 833 q 273 885 309 885 q 197 827 219 885 q 176 673 176 769 q 205 520 176 569 q 296 471 235 471 "},"Ῑ":{"x_min":33,"x_max":329,"ha":358,"o":"m 117 963 l 242 963 l 242 0 l 117 0 l 117 963 m 33 1204 l 329 1204 l 329 1110 l 33 1110 l 33 1204 "},"":{"x_min":61,"x_max":964,"ha":1008,"o":"m 365 832 q 342 754 365 787 q 291 698 320 722 q 351 645 324 677 q 379 560 379 612 q 366 501 379 527 q 331 455 354 474 q 280 425 309 435 q 217 415 251 415 q 104 456 147 415 q 61 559 61 498 q 140 697 61 640 q 90 750 112 718 q 68 829 68 783 q 109 930 68 890 q 217 971 151 971 q 325 930 285 971 q 365 832 365 890 m 287 562 q 260 622 287 598 q 199 662 234 645 q 164 615 175 638 q 153 569 153 593 q 172 518 153 537 q 220 500 191 500 q 267 515 248 500 q 287 562 287 530 m 160 830 q 179 777 160 800 q 226 736 198 754 q 261 776 247 755 q 275 825 275 797 q 261 869 275 850 q 218 888 247 888 q 176 873 193 888 q 160 830 160 858 m 761 963 l 368 0 l 264 0 l 656 963 l 761 963 m 659 69 q 787 107 738 75 q 856 212 837 138 q 818 202 837 205 q 783 199 799 199 q 680 243 720 199 q 640 372 640 287 q 680 501 640 453 q 797 549 720 549 q 922 488 881 549 q 964 319 964 428 q 938 169 964 230 q 873 69 913 108 q 781 12 833 30 q 675 -7 730 -5 l 659 69 m 804 275 q 833 278 817 275 q 868 291 849 281 l 868 307 q 798 466 868 466 q 740 367 740 466 q 756 295 740 316 q 804 275 772 275 "},"Ń":{"x_min":117,"x_max":690,"ha":807,"o":"m 588 0 q 512 177 554 82 q 424 368 470 272 q 329 560 377 465 q 234 737 281 655 l 234 0 l 117 0 l 117 963 l 221 963 q 323 786 274 876 q 416 607 372 696 q 500 434 460 519 q 573 272 539 348 l 573 963 l 690 963 l 690 0 l 588 0 m 584 1215 l 394 1016 l 335 1067 l 499 1288 l 584 1215 "},"ῖ":{"x_min":8,"x_max":328,"ha":338,"o":"m 297 -14 q 150 33 194 -11 q 106 183 106 79 l 106 729 l 225 729 l 225 181 q 242 111 225 133 q 313 82 259 90 l 297 -14 m 168 1055 q 286 1004 244 1055 q 328 861 328 953 l 247 861 q 228 940 244 907 q 168 974 212 974 q 107 940 123 974 q 89 861 91 907 l 8 861 q 49 1004 8 953 q 168 1055 90 1055 "},"ɀ":{"x_min":46,"x_max":508,"ha":494,"o":"m 46 86 q 102 222 68 147 q 175 371 137 297 q 250 514 213 446 q 313 626 287 581 l 63 626 l 63 729 l 443 729 l 443 639 q 373 517 413 589 q 294 368 333 445 q 219 216 254 291 q 163 84 183 141 q 243 49 211 73 q 298 0 275 26 q 339 -57 322 -27 q 374 -109 357 -86 q 413 -148 391 -133 q 467 -164 435 -164 q 498 -159 481 -164 l 508 -254 q 446 -263 474 -263 q 365 -243 398 -263 q 306 -194 331 -224 q 258 -131 280 -165 q 209 -68 236 -97 q 145 -19 181 -38 q 57 0 109 0 l 46 0 l 46 86 "},"ᾛ":{"x_min":-46,"x_max":1396,"ha":1421,"o":"m 841 963 l 966 963 l 966 0 l 841 0 l 841 448 l 525 448 l 525 0 l 400 0 l 400 963 l 525 963 l 525 556 l 841 556 l 841 963 m 88 700 q 41 741 65 718 q -1 791 17 765 q -33 847 -20 818 q -46 907 -46 876 q -23 968 -46 947 q 30 989 -1 989 q 80 968 60 989 q 101 916 101 948 q 88 874 101 892 q 53 847 76 855 q 86 796 65 823 q 132 745 108 769 l 88 700 m 227 986 l 344 734 l 279 697 l 134 938 l 227 986 m 1380 -14 q 1233 33 1277 -11 q 1189 183 1189 79 l 1189 729 l 1308 729 l 1308 181 q 1325 111 1308 133 q 1396 82 1342 90 l 1380 -14 "},".":{"x_min":79,"x_max":244,"ha":322,"o":"m 244 63 q 221 6 244 31 q 160 -18 198 -18 q 101 6 123 -18 q 79 63 79 31 q 101 122 79 97 q 160 147 123 147 q 221 122 198 147 q 244 63 244 97 "},"ǀ":{"x_min":131,"x_max":244,"ha":374,"o":"m 131 1088 l 244 1088 l 244 -257 l 131 -257 l 131 1088 "},"π":{"x_min":108,"x_max":557,"ha":665,"o":"m 557 0 l 438 0 l 438 626 l 227 626 l 227 0 l 108 0 l 108 729 l 557 729 l 557 0 "},"":{"x_min":108,"x_max":658,"ha":747,"o":"m 320 1078 q 379 1072 352 1078 q 425 1058 405 1066 l 402 964 q 331 977 366 977 q 254 944 281 977 q 227 830 227 911 l 227 729 l 415 729 l 415 626 l 227 626 l 227 0 l 108 0 l 108 830 q 160 1013 108 948 q 320 1078 213 1078 m 639 0 l 520 0 l 520 729 l 639 729 l 639 0 m 580 858 q 524 879 547 858 q 502 937 502 900 q 524 994 502 973 q 580 1016 547 1016 q 635 994 612 1016 q 658 937 658 973 q 635 879 658 900 q 580 858 612 858 "},"Ъ":{"x_min":14,"x_max":711,"ha":757,"o":"m 377 606 q 513 589 452 606 q 618 535 574 572 q 686 439 662 498 q 711 297 711 380 q 687 156 711 215 q 621 61 663 98 q 518 7 579 24 q 386 -10 458 -10 q 193 13 291 -10 l 193 857 l 14 857 l 14 963 l 318 963 l 318 606 l 377 606 m 318 104 q 386 100 348 100 q 464 109 429 100 q 525 142 499 119 q 565 202 551 165 q 579 297 579 240 q 564 390 579 352 q 522 451 549 427 q 456 485 495 475 q 369 496 417 496 l 318 496 l 318 104 "},"ή":{"x_min":108,"x_max":570,"ha":670,"o":"m 108 710 q 219 736 159 726 q 329 747 279 747 q 428 732 383 747 q 503 683 472 717 q 552 589 535 648 q 570 442 570 530 l 570 -257 l 451 -257 l 451 432 q 423 591 451 541 q 318 641 395 641 q 227 627 277 641 l 227 0 l 108 0 l 108 710 m 507 980 l 255 810 l 207 874 l 440 1068 l 507 980 "},"ȵ":{"x_min":108,"x_max":809,"ha":795,"o":"m 108 708 q 219 734 159 724 q 329 745 279 745 q 428 730 383 745 q 503 681 472 715 q 552 587 535 646 q 570 440 570 528 l 570 113 q 658 140 608 140 q 724 124 696 140 q 770 81 752 108 q 799 17 789 53 q 809 -57 809 -18 q 799 -127 809 -91 q 768 -191 789 -162 q 714 -238 747 -220 q 634 -257 681 -257 q 537 -229 581 -257 q 470 -149 494 -202 l 399 -261 l 333 -215 l 451 -22 l 451 430 q 423 588 451 538 q 318 639 395 639 q 227 625 277 639 l 227 0 l 108 0 l 108 708 m 643 57 q 570 12 600 57 l 570 -50 q 588 -140 570 -107 q 641 -174 607 -174 q 693 -146 675 -174 q 712 -61 712 -119 q 695 24 712 -7 q 643 57 679 57 "},"Ś":{"x_min":35,"x_max":524,"ha":556,"o":"m 236 86 q 352 127 311 86 q 393 240 393 169 q 380 306 393 277 q 347 359 368 335 q 301 402 327 383 q 247 441 275 422 q 180 488 215 463 q 117 547 145 513 q 71 624 89 580 q 53 729 53 669 q 73 834 53 787 q 128 915 93 882 q 213 966 164 948 q 319 985 262 985 q 422 971 375 985 q 502 937 470 957 l 463 838 q 399 868 433 858 q 328 879 365 879 q 219 842 260 879 q 178 734 178 805 q 191 666 178 695 q 225 613 204 637 q 275 570 247 590 q 336 530 304 551 q 401 484 368 509 q 462 427 435 459 q 506 350 489 394 q 524 247 524 306 q 507 144 524 192 q 455 58 490 95 q 366 0 419 22 q 240 -21 312 -21 q 123 -5 173 -21 q 35 34 73 9 l 73 134 q 148 99 109 112 q 236 86 186 86 m 469 1215 l 279 1016 l 220 1067 l 384 1288 l 469 1215 "},"à":{"x_min":57,"x_max":503,"ha":603,"o":"m 120 713 q 196 737 156 728 q 283 747 236 747 q 441 686 380 747 q 503 498 503 626 l 503 15 q 400 -6 452 1 q 298 -15 348 -15 q 204 -2 248 -15 q 128 37 161 9 q 76 107 95 65 q 57 211 57 150 q 74 310 57 268 q 122 381 91 352 q 194 424 152 409 q 284 439 236 439 q 386 427 330 439 l 386 494 q 354 607 386 575 q 265 639 323 639 q 205 632 233 639 q 144 612 176 626 l 120 713 m 176 212 q 209 118 176 148 q 303 88 242 88 q 386 97 341 88 l 386 328 q 303 340 344 340 q 253 333 277 340 q 212 313 230 327 q 185 274 195 298 q 176 212 176 250 m 213 1080 l 378 859 l 318 808 l 129 1007 l 213 1080 "},"₀":{"x_min":32,"x_max":357,"ha":389,"o":"m 32 269 q 43 398 32 345 q 75 485 54 452 q 125 532 95 517 q 193 547 155 547 q 262 532 232 547 q 313 485 293 517 q 345 398 334 452 q 357 269 357 345 q 345 138 357 191 q 313 52 334 85 q 262 5 293 20 q 193 -9 232 -9 q 125 5 155 -9 q 75 52 95 20 q 43 138 54 85 q 32 269 32 191 m 256 268 q 242 413 256 368 q 193 459 229 459 q 146 413 159 459 q 133 268 133 368 q 146 124 133 168 q 193 80 159 80 q 242 124 229 80 q 256 268 256 168 "},"₴":{"x_min":31,"x_max":568,"ha":597,"o":"m 31 643 l 380 643 q 397 684 391 662 q 404 734 404 706 q 366 840 404 801 q 270 879 329 879 q 209 869 240 879 q 154 847 179 859 l 117 941 q 277 985 190 985 q 378 966 333 985 q 455 914 423 947 q 504 834 487 880 q 522 731 522 787 q 518 684 522 705 q 508 643 515 662 l 568 643 l 568 558 l 459 558 q 371 477 420 512 q 281 402 321 442 l 568 402 l 568 317 l 224 317 q 212 239 212 280 q 252 125 212 165 q 351 85 292 85 q 414 94 380 85 q 476 121 448 103 l 512 26 q 428 -9 471 2 q 340 -21 384 -21 q 234 -2 280 -21 q 155 50 187 16 q 105 132 122 84 q 88 236 88 179 q 97 317 88 282 l 31 317 l 31 402 l 136 402 q 217 486 171 451 q 306 558 264 522 l 31 558 l 31 643 "},"¦":{"x_min":131,"x_max":244,"ha":374,"o":"m 131 556 l 131 1088 l 244 1088 l 244 556 l 131 556 m 244 275 l 244 -257 l 131 -257 l 131 275 l 244 275 "},"Ѣ":{"x_min":21,"x_max":716,"ha":765,"o":"m 324 1025 l 324 913 l 516 913 l 516 821 l 324 821 l 324 606 l 383 606 q 519 589 458 606 q 623 535 580 572 q 691 439 667 498 q 716 297 716 380 q 692 156 716 215 q 626 61 668 98 q 524 7 584 24 q 391 -10 463 -10 q 199 13 297 -10 l 199 821 l 21 821 l 21 913 l 199 913 l 199 1025 l 324 1025 m 324 104 q 391 100 354 100 q 469 109 434 100 q 530 142 505 119 q 570 202 556 165 q 584 297 584 240 q 569 390 584 352 q 527 451 554 427 q 462 485 501 475 q 375 496 423 496 l 324 496 l 324 104 "},"ᾼ":{"x_min":16,"x_max":991,"ha":1015,"o":"m 403 963 q 469 752 436 858 q 533 529 502 645 q 596 282 564 412 q 659 0 627 151 l 533 0 q 511 123 523 62 q 487 246 499 184 l 183 246 q 158 123 169 184 q 136 0 147 62 l 16 0 q 78 281 46 151 q 141 529 110 412 q 205 752 172 645 q 271 963 238 858 l 403 963 m 335 821 q 268 588 300 705 q 207 350 236 472 l 462 350 q 402 589 434 472 q 335 821 370 705 m 975 -14 q 828 33 872 -11 q 784 183 784 79 l 784 729 l 903 729 l 903 181 q 920 111 903 133 q 991 82 937 90 l 975 -14 "},"Ҧ":{"x_min":117,"x_max":1071,"ha":1118,"o":"m 720 -146 q 732 -148 727 -148 q 745 -148 738 -148 q 839 -123 802 -148 q 898 -54 877 -99 q 928 51 919 -10 q 938 186 938 113 q 925 330 938 272 q 890 425 913 389 q 833 476 867 461 q 760 492 800 492 q 666 476 707 492 l 666 0 l 541 0 l 541 856 l 242 856 l 242 0 l 117 0 l 117 963 l 666 963 l 666 584 q 770 603 718 603 q 903 574 846 603 q 997 491 960 546 q 1052 360 1034 437 q 1071 186 1071 283 q 992 -142 1071 -27 q 764 -258 914 -258 q 741 -257 753 -258 q 719 -255 730 -256 l 720 -146 "},"e":{"x_min":68,"x_max":538,"ha":606,"o":"m 190 330 q 199 233 191 277 q 226 156 208 189 q 276 106 245 124 q 356 88 308 88 q 431 99 397 88 q 480 119 465 111 l 503 23 q 442 -3 484 11 q 341 -18 400 -18 q 213 9 265 -18 q 128 87 161 37 q 81 206 95 137 q 68 359 68 276 q 134 653 68 560 q 311 747 201 747 q 486 654 435 747 q 538 393 538 561 q 538 362 538 378 q 536 330 538 346 l 190 330 m 311 646 q 224 586 251 646 q 191 427 196 526 l 413 427 q 392 587 413 528 q 311 646 371 646 "},"Ἱ":{"x_min":-46,"x_max":334,"ha":450,"o":"m 209 963 l 334 963 l 334 0 l 209 0 l 209 963 m 102 700 q 50 741 77 718 q 3 791 24 765 q -32 847 -18 818 q -46 907 -46 876 q -22 968 -46 947 q 34 989 1 989 q 87 968 66 989 q 108 916 108 948 q 95 874 108 892 q 60 847 83 855 q 100 796 76 823 q 152 745 124 769 l 102 700 "},"ὗ":{"x_min":100,"x_max":574,"ha":674,"o":"m 219 729 l 219 244 q 246 131 219 171 q 336 91 273 91 q 427 131 400 91 q 455 246 455 171 l 455 729 l 574 729 l 574 245 q 514 54 574 123 q 337 -15 455 -15 q 159 50 219 -15 q 100 245 100 115 l 100 729 l 219 729 m 334 1224 q 407 1212 373 1224 q 465 1178 440 1200 q 505 1124 490 1157 q 520 1051 520 1092 l 442 1051 q 409 1113 436 1087 q 334 1139 383 1139 q 260 1113 286 1139 q 229 1051 234 1087 l 151 1051 q 164 1124 151 1092 q 203 1178 178 1157 q 262 1212 228 1200 q 334 1224 295 1224 m 398 800 q 351 832 375 813 q 308 872 327 851 q 277 918 290 894 q 265 967 265 942 q 286 1023 265 1002 q 337 1044 308 1044 q 384 1026 365 1044 q 404 978 404 1008 q 393 941 404 958 q 363 918 383 924 q 396 879 376 899 q 442 841 416 859 l 398 800 "},"ļ":{"x_min":58,"x_max":312.515625,"ha":338,"o":"m 297 -14 q 150 36 194 -11 q 106 188 106 84 l 106 1057 l 225 1078 l 225 186 q 244 115 225 137 q 312 86 263 94 l 297 -14 m 146 -69 l 249 -69 q 250 -85 250 -75 q 250 -98 250 -94 q 208 -223 250 -185 q 105 -261 166 -261 q 77 -259 90 -261 q 58 -255 64 -258 l 58 -183 q 74 -184 63 -184 q 127 -163 109 -184 q 146 -87 146 -142 l 146 -69 "},"Ѓ":{"x_min":117,"x_max":536,"ha":569,"o":"m 242 856 l 242 0 l 117 0 l 117 963 l 536 963 l 536 856 l 242 856 m 497 1215 l 307 1016 l 248 1067 l 412 1288 l 497 1215 "},"ò":{"x_min":67,"x_max":576,"ha":643,"o":"m 576 363 q 560 207 576 277 q 514 87 545 137 q 435 9 483 37 q 322 -18 387 -18 q 208 9 257 -18 q 128 87 159 37 q 82 207 97 137 q 67 363 67 277 q 82 519 67 448 q 128 640 97 590 q 208 719 159 691 q 322 747 257 747 q 435 719 387 747 q 514 640 483 691 q 560 519 545 590 q 576 363 576 448 m 451 363 q 444 475 451 424 q 421 562 437 526 q 381 619 406 599 q 322 640 356 640 q 261 619 286 640 q 221 562 237 599 q 198 475 205 526 q 192 363 192 424 q 198 252 192 302 q 221 165 205 201 q 261 109 237 129 q 322 89 286 89 q 381 109 356 89 q 421 165 406 129 q 444 252 437 201 q 451 363 451 302 m 239 1080 l 404 859 l 344 808 l 155 1007 l 239 1080 "},"ﬄ":{"x_min":108,"x_max":1163,"ha":1188,"o":"m 320 1078 q 391 1069 360 1078 q 441 1051 421 1061 l 415 957 q 375 972 396 967 q 331 977 354 977 q 278 965 299 977 q 246 935 257 954 q 231 888 235 915 q 227 830 227 861 l 227 729 l 415 729 l 415 626 l 227 626 l 227 0 l 108 0 l 108 830 q 160 1013 108 948 q 320 1078 213 1078 m 1147 -14 q 1000 36 1044 -11 q 956 188 956 84 l 956 1057 l 1075 1078 l 1075 186 q 1094 115 1075 137 q 1163 86 1114 94 l 1147 -14 m 745 1078 q 804 1072 777 1078 q 850 1058 830 1066 l 827 964 q 756 977 791 977 q 679 944 706 977 q 652 830 652 911 l 652 729 l 840 729 l 840 626 l 652 626 l 652 0 l 533 0 l 533 830 q 585 1013 533 948 q 745 1078 638 1078 "},"^":{"x_min":42,"x_max":557,"ha":597,"o":"m 358 963 l 557 474 l 457 434 l 300 829 l 143 434 l 42 474 l 240 963 l 358 963 "},"":{"x_min":32,"x_max":357,"ha":389,"o":"m 299 1142 l 299 817 l 357 817 l 357 736 l 299 736 l 299 604 l 210 604 l 210 736 l 32 736 l 32 789 q 198 1142 90 975 l 299 1142 m 211 1025 q 162 929 187 985 q 115 817 137 873 l 211 817 l 211 1025 "},"Ӑ":{"x_min":28,"x_max":671,"ha":699,"o":"m 415 963 q 481 752 448 858 q 545 529 514 645 q 608 282 576 412 q 671 0 639 151 l 545 0 q 523 123 535 62 q 499 246 511 184 l 195 246 q 170 123 181 184 q 148 0 159 62 l 28 0 q 90 281 58 151 q 153 529 122 412 q 217 752 184 645 q 283 963 250 858 l 415 963 m 347 821 q 280 588 312 705 q 219 350 248 472 l 474 350 q 414 589 446 472 q 347 821 382 705 m 359 1142 q 417 1165 397 1142 q 447 1242 438 1189 l 535 1222 q 473 1092 521 1131 q 359 1054 426 1054 q 245 1092 292 1054 q 184 1222 197 1131 l 272 1242 q 301 1165 280 1189 q 359 1142 322 1142 "},"к":{"x_min":108,"x_max":583,"ha":593,"o":"m 559 729 q 447 546 500 629 q 340 391 393 463 q 409 304 374 352 q 475 203 443 255 q 535 99 507 151 q 583 0 563 47 l 452 0 q 403 95 431 45 q 345 193 375 145 q 284 284 314 241 q 227 356 253 327 l 227 0 l 108 0 l 108 729 l 227 729 l 227 415 q 280 490 252 448 q 336 574 309 531 q 389 656 364 616 q 431 729 414 697 l 559 729 "},"Ȣ":{"x_min":65,"x_max":677,"ha":742,"o":"m 371 469 q 243 423 293 469 q 193 286 193 378 q 207 205 193 239 q 246 148 222 171 q 302 114 270 125 q 371 103 334 103 q 438 114 405 103 q 495 148 471 125 q 534 205 519 171 q 549 286 549 239 q 498 423 549 378 q 371 469 448 469 m 628 763 q 603 618 628 678 q 528 529 579 559 q 588 492 561 517 q 635 433 615 467 q 666 360 656 400 q 677 279 677 321 q 657 165 677 218 q 599 74 638 112 q 504 14 561 36 q 372 -7 447 -7 q 238 14 295 -7 q 142 74 180 36 q 84 165 103 112 q 65 279 65 218 q 105 433 65 364 q 213 529 145 503 q 138 618 162 559 q 114 763 114 678 q 120 869 114 825 q 140 963 127 913 l 252 963 q 238 865 244 914 q 232 768 232 817 q 265 626 232 675 q 371 577 298 577 q 476 626 443 577 q 510 768 510 675 q 503 865 510 817 q 489 963 497 914 l 605 963 q 623 869 618 913 q 628 763 628 825 "},"᾿":{"x_min":127,"x_max":325,"ha":436,"o":"m 127 845 q 178 896 154 869 q 216 947 202 923 q 182 974 194 955 q 171 1016 171 992 q 191 1068 171 1048 q 244 1089 212 1089 q 301 1068 277 1089 q 325 1007 325 1047 q 311 947 325 976 q 275 891 297 918 q 228 841 254 865 q 177 800 201 818 l 127 845 "},"ǘ":{"x_min":99,"x_max":560,"ha":667,"o":"m 560 21 q 516 7 541 14 q 462 -3 490 1 q 405 -11 433 -8 q 353 -15 376 -15 q 248 -1 296 -15 q 168 44 201 11 q 117 135 135 78 q 99 280 99 193 l 99 729 l 218 729 l 218 285 q 250 134 218 178 q 350 91 283 91 q 395 93 372 91 q 441 102 417 95 l 441 729 l 560 729 l 560 21 m 219 822 q 167 842 188 822 q 147 895 147 862 q 167 948 147 928 q 219 969 188 969 q 270 948 249 969 q 291 895 291 928 q 270 842 291 862 q 219 822 249 822 m 449 822 q 397 842 418 822 q 377 895 377 862 q 397 948 377 928 q 449 969 418 969 q 500 948 479 969 q 521 895 521 928 q 500 842 521 862 q 449 822 479 822 m 492 1150 l 338 976 l 279 1023 l 411 1219 l 492 1150 "},"ˆ":{"x_min":59,"x_max":378,"ha":436,"o":"m 117 807 l 59 855 l 218 1067 l 378 855 l 319 807 l 218 925 l 117 807 "},"ū":{"x_min":99,"x_max":560,"ha":667,"o":"m 560 21 q 516 7 541 14 q 462 -3 490 1 q 405 -11 433 -8 q 353 -15 376 -15 q 248 -1 296 -15 q 168 44 201 11 q 117 135 135 78 q 99 280 99 193 l 99 729 l 218 729 l 218 285 q 250 134 218 178 q 350 91 283 91 q 395 93 372 91 q 441 102 417 95 l 441 729 l 560 729 l 560 21 m 186 987 l 482 987 l 482 893 l 186 893 l 186 987 "},"č":{"x_min":67,"x_max":469,"ha":490,"o":"m 330 -18 q 205 11 255 -18 q 124 90 155 40 q 80 211 93 141 q 67 362 67 280 q 132 644 67 542 q 331 747 198 747 q 403 737 371 747 q 463 712 435 727 l 432 613 q 337 641 389 641 q 227 573 262 641 q 192 362 192 505 q 198 252 192 302 q 223 165 205 201 q 268 108 240 129 q 341 88 297 88 q 396 95 372 88 q 442 115 420 103 l 469 22 q 410 -5 446 7 q 330 -18 373 -18 m 400 1067 l 459 1018 l 299 807 l 140 1018 l 198 1067 l 299 948 l 400 1067 "},"’":{"x_min":54,"x_max":232,"ha":310,"o":"m 230 1042 q 232 1022 232 1030 q 232 1003 232 1014 q 207 851 232 923 q 139 711 182 779 l 54 736 q 99 862 88 798 q 111 983 111 926 q 110 1013 111 998 q 108 1042 109 1028 l 230 1042 "},"Ν":{"x_min":117,"x_max":690,"ha":807,"o":"m 588 0 q 512 177 554 82 q 424 368 470 272 q 329 560 377 465 q 234 737 281 655 l 234 0 l 117 0 l 117 963 l 221 963 q 323 786 274 876 q 416 607 372 696 q 500 434 460 519 q 573 272 539 348 l 573 963 l 690 963 l 690 0 l 588 0 "},"Q":{"x_min":78,"x_max":762,"ha":840,"o":"m 762 480 q 746 298 762 382 q 698 151 730 215 q 616 45 666 87 q 500 -12 566 2 q 562 -103 502 -70 q 716 -153 621 -136 l 686 -250 q 580 -222 631 -237 q 489 -181 530 -206 q 419 -118 448 -156 q 379 -18 391 -79 q 245 29 301 -9 q 151 134 188 69 q 96 287 114 200 q 78 480 78 375 q 98 686 78 593 q 161 845 119 779 q 268 948 204 911 q 420 985 333 985 q 572 948 508 985 q 679 845 637 911 q 741 686 721 779 q 762 480 762 593 m 629 480 q 617 640 629 568 q 581 764 606 712 q 517 845 556 816 q 420 875 477 875 q 324 845 363 875 q 259 764 284 816 q 222 640 234 712 q 211 480 211 568 q 222 320 211 393 q 259 197 234 248 q 324 117 284 145 q 420 89 363 89 q 517 117 477 89 q 581 197 556 145 q 617 320 606 248 q 629 480 629 393 "},"ȝ":{"x_min":14,"x_max":447,"ha":490,"o":"m 299 288 q 358 252 331 275 q 405 197 385 228 q 435 129 424 166 q 447 52 447 92 q 415 -82 447 -25 q 331 -178 384 -140 q 206 -234 277 -215 q 52 -253 134 -253 l 26 -253 l 22 -152 q 36 -153 28 -153 q 51 -153 44 -153 q 155 -141 106 -153 q 241 -104 204 -129 q 299 -40 277 -79 q 321 52 321 -2 q 307 130 321 96 q 271 187 294 164 q 218 222 248 210 q 154 234 187 234 l 113 234 l 113 333 l 149 333 q 258 379 223 333 q 293 505 293 426 q 263 599 293 562 q 179 636 233 636 q 112 624 145 636 q 50 595 79 613 l 14 692 q 93 727 50 712 q 190 742 137 742 q 284 724 241 742 q 356 675 326 707 q 402 602 386 644 q 418 508 418 559 q 387 377 418 435 q 299 288 356 318 "},"ᾅ":{"x_min":67,"x_max":629,"ha":654,"o":"m 541 181 q 560 114 541 137 q 629 86 580 91 l 613 -14 q 560 -9 581 -12 q 522 0 538 -5 q 494 15 506 6 q 470 36 483 25 q 402 -3 438 11 q 324 -18 366 -18 q 130 81 194 -18 q 67 361 67 180 q 139 647 67 547 q 362 747 212 747 q 455 735 406 747 q 541 709 504 724 l 541 181 m 343 88 q 391 97 370 88 q 427 121 412 107 q 423 153 424 136 q 422 189 422 169 l 422 631 q 391 638 406 635 q 361 641 376 641 q 235 577 279 641 q 192 362 192 513 q 230 155 192 222 q 343 88 268 88 m 375 -87 q 393 -163 375 -142 q 445 -184 411 -184 q 462 -182 457 -184 l 462 -254 q 443 -258 455 -257 q 415 -260 430 -260 q 312 -222 354 -260 q 271 -98 271 -185 q 271 -84 271 -93 q 272 -69 271 -75 l 375 -69 l 375 -87 m 254 800 q 207 841 231 818 q 164 891 183 865 q 132 947 145 918 q 120 1007 120 976 q 142 1068 120 1047 q 196 1089 164 1089 q 246 1068 226 1089 q 267 1016 267 1048 q 254 974 267 992 q 219 947 242 955 q 252 896 231 923 q 298 845 274 869 l 254 800 m 546 1038 l 401 797 l 336 834 l 453 1086 l 546 1038 "},"Ҋ":{"x_min":117,"x_max":792,"ha":814,"o":"m 117 0 l 117 963 l 234 963 l 234 272 q 392 607 306 440 q 591 963 478 775 l 691 963 l 691 107 l 792 107 l 792 91 q 753 -96 792 -2 q 636 -271 715 -190 l 545 -212 q 613 -118 583 -173 q 659 0 643 -62 l 574 0 l 574 737 q 478 560 526 655 q 383 368 429 465 q 294 177 336 272 q 219 0 252 82 l 117 0 m 417 1143 q 475 1166 454 1143 q 504 1243 495 1190 l 592 1223 q 530 1093 578 1132 q 417 1055 483 1055 q 303 1093 350 1055 q 242 1223 255 1132 l 330 1243 q 359 1166 338 1190 q 417 1143 379 1143 "},"œ":{"x_min":68,"x_max":918,"ha":990,"o":"m 571 330 q 580 233 572 277 q 607 156 589 189 q 657 106 626 124 q 737 88 688 88 q 811 99 777 88 q 860 119 845 111 l 883 23 q 822 -3 864 11 q 722 -18 780 -18 q 595 12 647 -18 q 512 101 544 43 q 434 12 480 43 q 323 -18 387 -18 q 209 9 258 -18 q 129 87 161 37 q 83 207 98 137 q 68 363 68 277 q 83 519 68 448 q 129 640 98 590 q 209 719 161 691 q 323 747 258 747 q 434 715 387 747 q 512 623 480 683 q 691 747 577 747 q 797 722 754 747 q 867 651 840 697 q 906 539 894 605 q 918 393 918 474 q 918 362 918 378 q 916 330 918 346 l 571 330 m 453 363 q 446 475 453 424 q 423 562 439 526 q 383 619 408 599 q 323 640 358 640 q 263 619 287 640 q 222 562 238 599 q 199 475 206 526 q 193 363 193 424 q 199 252 193 302 q 222 165 206 201 q 263 109 238 129 q 323 89 287 89 q 383 109 358 89 q 423 165 408 129 q 446 252 439 201 q 453 363 453 302 m 691 646 q 641 629 662 646 q 605 582 619 612 q 583 512 591 553 q 572 427 575 472 l 793 427 q 788 512 793 472 q 772 581 783 551 q 740 628 761 611 q 691 646 720 646 "},"ӗ":{"x_min":68,"x_max":538,"ha":606,"o":"m 190 330 q 199 233 191 277 q 226 156 208 189 q 276 106 245 124 q 356 88 308 88 q 431 99 397 88 q 480 119 465 111 l 503 23 q 442 -3 484 11 q 341 -18 400 -18 q 213 9 265 -18 q 128 87 161 37 q 81 206 95 137 q 68 359 68 276 q 134 653 68 560 q 311 747 201 747 q 486 654 435 747 q 538 393 538 561 q 538 362 538 378 q 536 330 538 346 l 190 330 m 311 646 q 224 586 251 646 q 191 427 196 526 l 413 427 q 392 587 413 528 q 311 646 371 646 m 322 934 q 380 957 360 934 q 410 1034 401 981 l 498 1014 q 436 884 484 923 q 322 846 389 846 q 208 884 255 846 q 147 1014 160 923 l 235 1034 q 264 957 243 981 q 322 934 285 934 "},"Ὲ":{"x_min":-58,"x_max":699,"ha":763,"o":"m 246 0 l 246 963 l 677 963 l 677 856 l 371 856 l 371 557 l 648 557 l 648 453 l 371 453 l 371 107 l 699 107 l 699 0 l 246 0 m 26 980 l 191 759 l 131 708 l -58 907 l 26 980 "},"Ɵ":{"x_min":78,"x_max":762,"ha":840,"o":"m 762 480 q 741 275 762 368 q 679 117 721 183 q 572 15 637 51 q 420 -21 508 -21 q 268 15 333 -21 q 161 117 204 51 q 98 275 119 183 q 78 480 78 368 q 98 686 78 593 q 161 845 119 779 q 268 948 204 911 q 420 985 333 985 q 572 948 508 985 q 679 845 637 911 q 741 686 721 779 q 762 480 762 593 m 420 89 q 511 113 474 89 q 574 184 549 138 q 611 293 599 229 q 627 436 624 356 l 211 436 q 226 293 213 356 q 265 184 240 229 q 328 113 290 138 q 420 89 367 89 m 420 875 q 329 850 367 875 q 265 779 291 825 q 226 669 240 733 q 211 528 213 605 l 627 528 q 611 669 624 605 q 574 779 599 733 q 511 850 549 825 q 420 875 473 875 "},"ș":{"x_min":50,"x_max":438,"ha":474,"o":"m 209 85 q 289 114 262 85 q 317 193 317 144 q 305 245 317 223 q 276 283 294 266 q 234 313 258 300 q 187 341 211 326 q 141 374 164 355 q 102 417 119 393 q 74 472 84 441 q 64 545 64 504 q 120 691 64 635 q 272 747 176 747 q 349 736 313 747 q 409 713 385 726 l 382 618 q 332 639 357 632 q 278 646 307 646 q 207 620 233 646 q 181 545 181 594 q 190 498 181 518 q 216 461 200 477 q 252 431 232 445 q 294 405 272 418 q 347 372 321 390 q 392 329 372 354 q 425 272 413 305 q 438 194 438 240 q 381 40 438 98 q 216 -18 325 -18 q 116 -2 161 -18 q 50 25 72 12 l 75 123 q 131 98 95 112 q 209 85 166 85 m 207 -69 l 310 -69 q 311 -85 311 -75 q 311 -98 311 -94 q 269 -223 311 -185 q 166 -261 227 -261 q 138 -259 151 -261 q 119 -255 125 -258 l 119 -183 q 135 -184 124 -184 q 188 -163 170 -184 q 207 -87 207 -142 l 207 -69 "},"ἱ":{"x_min":69,"x_max":313,"ha":338,"o":"m 297 -14 q 150 33 194 -11 q 106 183 106 79 l 106 729 l 225 729 l 225 181 q 242 111 225 133 q 313 82 259 90 l 297 -14 m 217 800 q 165 841 192 818 q 118 891 139 865 q 82 947 96 918 q 69 1007 69 976 q 92 1068 69 1047 q 149 1089 116 1089 q 202 1068 181 1089 q 223 1016 223 1048 q 210 974 223 992 q 175 947 198 955 q 215 896 191 923 q 267 845 239 869 l 217 800 "},"Ѵ":{"x_min":11,"x_max":801,"ha":779,"o":"m 469 763 q 535 927 488 870 q 669 985 582 985 q 741 972 710 985 q 801 940 773 960 l 756 849 q 724 868 742 860 q 682 877 706 877 q 619 847 642 877 q 584 762 596 818 q 532 532 556 636 q 485 336 508 428 q 440 162 462 244 q 395 0 418 80 l 260 0 q 197 210 228 104 q 133 433 165 316 q 72 680 102 550 q 11 963 41 810 l 141 963 q 181 748 159 855 q 228 536 204 640 q 279 334 253 432 q 330 148 305 236 q 402 442 364 286 q 469 763 439 599 "},"Ȫ":{"x_min":78,"x_max":762,"ha":840,"o":"m 762 480 q 741 275 762 368 q 679 117 721 183 q 572 15 637 51 q 420 -21 508 -21 q 268 15 333 -21 q 161 117 204 51 q 98 275 119 183 q 78 480 78 368 q 98 686 78 593 q 161 845 119 779 q 268 948 204 911 q 420 985 333 985 q 572 948 508 985 q 679 845 637 911 q 741 686 721 779 q 762 480 762 593 m 629 480 q 617 640 629 568 q 581 764 606 712 q 517 845 556 816 q 420 875 477 875 q 324 845 363 875 q 259 764 284 816 q 222 640 234 712 q 211 480 211 568 q 222 320 211 393 q 259 197 234 248 q 324 117 284 145 q 420 89 363 89 q 517 117 477 89 q 581 197 556 145 q 617 320 606 248 q 629 480 629 393 m 272 1344 l 568 1344 l 568 1252 l 272 1252 l 272 1344 m 306 1044 q 254 1064 275 1044 q 234 1117 234 1084 q 254 1170 234 1150 q 306 1191 275 1191 q 357 1170 336 1191 q 378 1117 378 1150 q 357 1064 378 1084 q 306 1044 336 1044 m 536 1044 q 484 1064 505 1044 q 464 1117 464 1084 q 484 1170 464 1150 q 536 1191 505 1191 q 587 1170 566 1191 q 608 1117 608 1150 q 587 1064 608 1084 q 536 1044 566 1044 "},"ǎ":{"x_min":57,"x_max":503,"ha":603,"o":"m 120 713 q 196 737 156 728 q 283 747 236 747 q 441 686 380 747 q 503 498 503 626 l 503 15 q 400 -6 452 1 q 298 -15 348 -15 q 204 -2 248 -15 q 128 37 161 9 q 76 107 95 65 q 57 211 57 150 q 74 310 57 268 q 122 381 91 352 q 194 424 152 409 q 284 439 236 439 q 386 427 330 439 l 386 494 q 354 607 386 575 q 265 639 323 639 q 205 632 233 639 q 144 612 176 626 l 120 713 m 176 212 q 209 118 176 148 q 303 88 242 88 q 386 97 341 88 l 386 328 q 303 340 344 340 q 253 333 277 340 q 212 313 230 327 q 185 274 195 298 q 176 212 176 250 m 405 1067 l 464 1018 l 304 807 l 145 1018 l 203 1067 l 304 948 l 405 1067 "},"₈":{"x_min":35,"x_max":353,"ha":389,"o":"m 339 408 q 316 330 339 363 q 265 274 294 298 q 325 221 298 253 q 353 136 353 188 q 340 77 353 103 q 305 31 328 50 q 254 1 283 11 q 191 -9 225 -9 q 78 32 121 -9 q 35 135 35 74 q 114 273 35 216 q 64 326 86 294 q 42 405 42 359 q 83 506 42 466 q 191 547 125 547 q 299 506 259 547 q 339 408 339 466 m 261 138 q 234 198 261 174 q 173 238 208 221 q 138 191 149 214 q 127 145 127 169 q 146 94 127 113 q 194 76 165 76 q 241 91 222 76 q 261 138 261 106 m 134 406 q 153 353 134 376 q 200 312 172 330 q 235 352 221 331 q 249 401 249 373 q 235 445 249 426 q 192 464 221 464 q 150 449 167 464 q 134 406 134 434 "},"Ǖ":{"x_min":108,"x_max":655,"ha":763,"o":"m 378 -21 q 175 55 243 -21 q 108 297 108 131 l 108 963 l 233 963 l 233 308 q 265 143 233 198 q 380 89 297 89 q 498 145 467 89 q 530 308 530 201 l 530 963 l 655 963 l 655 297 q 585 56 655 134 q 378 -21 515 -21 m 233 1337 l 529 1337 l 529 1245 l 233 1245 l 233 1337 m 267 1037 q 215 1057 236 1037 q 195 1110 195 1077 q 215 1163 195 1143 q 267 1184 236 1184 q 318 1163 297 1184 q 339 1110 339 1143 q 318 1057 339 1077 q 267 1037 297 1037 m 497 1037 q 445 1057 466 1037 q 425 1110 425 1077 q 445 1163 425 1143 q 497 1184 466 1184 q 548 1163 527 1184 q 569 1110 569 1143 q 548 1057 569 1077 q 497 1037 527 1037 "},"д":{"x_min":14,"x_max":653,"ha":667,"o":"m 14 97 l 88 97 q 140 223 121 155 q 170 369 160 291 q 182 536 180 447 q 187 729 185 626 l 564 729 l 564 97 l 653 97 l 653 -201 l 536 -201 l 536 0 l 131 0 l 131 -201 l 14 -201 l 14 97 m 298 626 q 293 480 296 551 q 281 344 291 409 q 256 217 272 278 q 213 97 240 155 l 447 97 l 447 626 l 298 626 "},"Ⱥ":{"x_min":28,"x_max":671,"ha":699,"o":"m 191 -119 l 274 246 l 195 246 q 170 123 182 184 q 148 0 159 62 l 28 0 q 90 282 58 151 q 153 529 122 412 q 217 752 184 646 q 283 963 250 858 l 400 963 q 411 933 405 950 q 424 899 416 916 l 474 1117 l 546 1100 l 474 782 q 524 610 499 699 q 573 426 549 522 q 621 225 597 330 q 671 0 646 119 l 545 0 q 523 123 534 62 q 498 246 511 184 l 352 246 l 266 -136 l 191 -119 m 347 821 q 281 588 313 705 q 220 350 249 472 l 298 350 l 377 696 l 347 821 m 473 350 q 446 441 460 396 q 417 532 432 486 l 376 350 l 473 350 "},"ӥ":{"x_min":108,"x_max":571,"ha":679,"o":"m 571 733 l 571 0 l 458 0 l 458 527 q 392 403 428 473 q 320 262 356 334 q 254 121 285 190 q 202 0 222 52 l 108 0 l 108 733 l 219 733 l 219 252 q 277 375 244 309 q 345 506 310 441 q 414 629 380 570 q 477 733 448 688 l 571 733 m 214 858 q 158 879 181 858 q 136 937 136 900 q 158 994 136 973 q 214 1016 181 1016 q 269 994 246 1016 q 292 937 292 973 q 269 879 292 900 q 214 858 246 858 m 445 858 q 389 879 412 858 q 367 937 367 900 q 389 994 367 973 q 445 1016 412 1016 q 500 994 477 1016 q 523 937 523 973 q 500 879 523 900 q 445 858 477 858 "},"¯":{"x_min":69,"x_max":365,"ha":436,"o":"m 69 987 l 365 987 l 365 893 l 69 893 l 69 987 "},"ƕ":{"x_min":108,"x_max":931,"ha":1031,"o":"m 457 430 q 427 588 457 537 q 320 639 398 639 q 227 625 278 639 l 227 -1 l 108 -1 l 108 1057 l 227 1078 l 227 725 q 286 739 254 733 q 350 745 317 745 q 439 730 398 745 q 510 681 480 715 q 558 587 541 646 q 576 440 576 528 l 576 238 q 603 130 576 170 q 693 91 630 91 q 784 130 757 91 q 812 239 812 170 l 812 728 l 931 728 l 931 239 q 693 -15 931 -15 q 516 44 575 -15 q 457 239 457 104 l 457 430 "},"З":{"x_min":32,"x_max":532,"ha":593,"o":"m 372 515 q 487 426 442 488 q 532 271 532 364 q 508 143 532 198 q 444 52 484 88 q 349 -2 404 16 q 232 -21 294 -21 q 126 -7 177 -21 q 32 30 75 6 l 62 130 q 145 95 104 108 q 231 83 187 83 q 302 94 269 83 q 358 128 334 105 q 397 186 383 150 q 411 272 411 222 q 353 410 411 361 q 201 460 295 460 l 135 460 l 135 559 l 201 559 q 332 599 281 559 q 384 725 384 640 q 344 838 384 800 q 237 877 304 877 q 151 862 193 877 q 82 829 109 847 l 46 927 q 141 968 89 953 q 246 983 193 983 q 350 964 302 983 q 431 914 397 946 q 484 836 465 882 q 503 734 503 789 q 470 604 503 661 q 372 515 437 547 "},"⅝":{"x_min":74,"x_max":943,"ha":1008,"o":"m 375 588 q 363 522 375 554 q 330 467 352 491 q 275 428 308 442 q 198 415 241 415 q 131 423 164 415 q 74 444 98 431 l 89 525 q 178 505 136 505 q 246 527 219 505 q 274 595 274 549 q 242 665 274 637 q 131 694 210 694 q 116 693 124 694 q 102 693 108 693 q 113 829 108 758 q 120 963 117 900 l 358 963 l 358 877 l 200 877 q 198 822 199 850 q 194 767 196 793 q 327 712 279 758 q 375 588 375 666 m 750 963 l 357 0 l 253 0 l 645 963 l 750 963 m 929 410 q 906 332 929 365 q 855 276 884 300 q 915 223 888 255 q 943 138 943 190 q 930 79 943 105 q 895 33 918 52 q 844 3 873 13 q 781 -7 815 -7 q 668 34 711 -7 q 625 137 625 76 q 704 275 625 218 q 654 328 676 296 q 632 407 632 361 q 673 508 632 468 q 781 549 715 549 q 889 508 849 549 q 929 410 929 468 m 851 140 q 824 200 851 176 q 763 240 798 223 q 728 193 739 216 q 717 147 717 171 q 736 96 717 115 q 784 78 755 78 q 831 93 812 78 q 851 140 851 108 m 724 408 q 743 355 724 378 q 790 314 762 332 q 825 354 811 333 q 839 403 839 375 q 825 447 839 428 q 782 466 811 466 q 740 451 757 466 q 724 408 724 436 "},"é":{"x_min":68,"x_max":538,"ha":606,"o":"m 190 330 q 199 233 191 277 q 226 156 208 189 q 276 106 245 124 q 356 88 308 88 q 431 99 397 88 q 480 119 465 111 l 503 23 q 442 -3 484 11 q 341 -18 400 -18 q 213 9 265 -18 q 128 87 161 37 q 81 206 95 137 q 68 359 68 276 q 134 653 68 560 q 311 747 201 747 q 486 654 435 747 q 538 393 538 561 q 538 362 538 378 q 536 330 538 346 l 190 330 m 311 646 q 224 586 251 646 q 191 427 196 526 l 413 427 q 392 587 413 528 q 311 646 371 646 m 472 1007 l 282 808 l 223 859 l 387 1080 l 472 1007 "},"Ş":{"x_min":35,"x_max":524,"ha":556,"o":"m 236 87 q 352 128 311 87 q 393 240 393 170 q 380 307 393 278 q 347 360 368 336 q 301 402 327 383 q 247 441 275 422 q 180 489 215 464 q 117 547 145 514 q 71 625 89 580 q 53 729 53 669 q 73 834 53 787 q 128 915 93 882 q 213 966 164 948 q 319 985 262 985 q 422 971 375 985 q 502 937 470 957 l 463 838 q 399 868 433 858 q 328 879 365 879 q 219 842 260 879 q 178 734 178 805 q 191 666 178 696 q 225 614 204 637 q 275 571 247 590 q 336 531 304 551 q 401 485 368 510 q 462 427 435 460 q 506 351 489 395 q 524 247 524 307 q 510 156 524 199 q 470 77 497 112 q 401 17 443 42 q 305 -14 360 -6 q 294 -35 299 -25 q 287 -55 289 -45 q 344 -94 327 -70 q 361 -151 361 -119 q 319 -233 361 -204 q 216 -263 277 -263 q 170 -259 195 -263 q 122 -247 145 -256 l 136 -171 q 165 -177 149 -174 q 197 -181 180 -181 q 239 -173 221 -181 q 258 -143 258 -165 q 242 -116 258 -127 q 186 -97 227 -105 q 199 -58 191 -78 q 216 -19 208 -38 q 114 -2 158 -16 q 35 35 69 11 l 73 135 q 148 100 109 113 q 236 87 186 87 "},"ὂ":{"x_min":67,"x_max":576,"ha":643,"o":"m 576 363 q 560 207 576 277 q 514 87 545 137 q 435 9 483 37 q 322 -18 387 -18 q 208 9 257 -18 q 128 87 159 37 q 82 207 97 137 q 67 363 67 277 q 82 519 67 448 q 128 640 97 590 q 208 719 159 691 q 322 747 257 747 q 435 719 387 747 q 514 640 483 691 q 560 519 545 590 q 576 363 576 448 m 451 363 q 444 475 451 424 q 421 562 437 526 q 381 619 406 599 q 322 640 356 640 q 261 619 286 640 q 221 562 237 599 q 198 475 205 526 q 192 363 192 424 q 198 252 192 302 q 221 165 205 201 q 261 109 237 129 q 322 89 286 89 q 381 109 356 89 q 421 165 406 129 q 444 252 437 201 q 451 363 451 302 m 118 845 q 162 896 141 869 q 196 947 183 923 q 160 974 172 955 q 149 1016 149 992 q 169 1068 149 1048 q 219 1089 189 1089 q 273 1068 251 1089 q 296 1007 296 1047 q 283 947 296 976 q 251 891 270 918 q 207 841 232 865 q 161 800 183 818 l 118 845 m 432 1086 l 549 834 l 484 797 l 339 1038 l 432 1086 "},"H":{"x_min":117,"x_max":683,"ha":800,"o":"m 558 963 l 683 963 l 683 0 l 558 0 l 558 448 l 242 448 l 242 0 l 117 0 l 117 963 l 242 963 l 242 556 l 558 556 l 558 963 "},"î":{"x_min":8,"x_max":327,"ha":336,"o":"m 227 0 l 108 0 l 108 729 l 227 729 l 227 0 m 66 807 l 8 855 l 167 1067 l 327 855 l 268 807 l 167 925 l 66 807 "},"ύ":{"x_min":100,"x_max":574,"ha":674,"o":"m 219 729 l 219 244 q 246 131 219 171 q 336 91 273 91 q 427 131 400 91 q 455 246 455 171 l 455 729 l 574 729 l 574 245 q 514 54 574 123 q 337 -15 455 -15 q 159 50 219 -15 q 100 245 100 115 l 100 729 l 219 729 m 527 980 l 275 810 l 227 874 l 460 1068 l 527 980 "},"ӎ":{"x_min":101,"x_max":835,"ha":850,"o":"m 376 97 q 343 215 362 149 q 305 345 324 280 q 266 472 286 410 q 230 577 247 533 q 223 438 226 515 q 218 281 220 361 q 216 128 216 202 q 214 0 215 54 l 101 0 q 106 177 102 84 q 115 365 110 270 q 126 552 120 459 q 139 729 132 645 l 271 729 q 351 502 313 620 q 423 259 388 384 q 495 502 457 384 q 575 729 533 620 l 706 729 q 718 578 712 656 q 728 418 723 500 q 736 256 733 337 q 743 99 740 175 l 835 99 l 835 86 q 800 -77 835 4 q 701 -217 765 -158 l 617 -162 q 673 -88 648 -129 q 710 0 697 -47 l 633 0 q 630 128 631 54 q 628 281 630 202 q 623 438 626 361 q 616 577 620 515 q 580 472 599 533 q 541 345 560 410 q 503 215 521 280 q 470 97 484 149 l 376 97 "},"ǰ":{"x_min":-48,"x_max":328,"ha":336,"o":"m 227 -35 q 174 -206 227 -155 q 33 -258 121 -258 q -48 -244 -11 -258 l -31 -143 q -6 -147 -18 -145 q 21 -150 6 -150 q 57 -145 41 -150 q 84 -126 73 -140 q 101 -88 95 -112 q 108 -29 108 -65 l 108 729 l 227 729 l 227 -35 m 269 1067 l 328 1018 l 168 807 l 9 1018 l 67 1067 l 168 948 l 269 1067 "},"Ἕ":{"x_min":-58,"x_max":878,"ha":942,"o":"m 425 0 l 425 963 l 856 963 l 856 856 l 550 856 l 550 557 l 827 557 l 827 453 l 550 453 l 550 107 l 878 107 l 878 0 l 425 0 m 76 700 q 29 741 53 718 q -13 791 5 765 q -45 847 -32 818 q -58 907 -58 876 q -35 968 -58 947 q 18 989 -13 989 q 68 968 48 989 q 89 916 89 948 q 76 874 89 892 q 41 847 64 855 q 74 796 53 823 q 120 745 96 769 l 76 700 m 368 938 l 223 697 l 158 734 l 275 986 l 368 938 "},"ǫ":{"x_min":67,"x_max":576,"ha":643,"o":"m 576 363 q 564 224 576 281 q 535 126 553 166 q 489 57 516 85 q 434 5 463 28 q 405 -19 420 -7 q 378 -44 391 -30 q 358 -72 366 -57 q 351 -107 351 -87 q 368 -153 351 -139 q 410 -167 385 -167 q 461 -157 437 -167 l 468 -244 q 381 -260 429 -260 q 281 -227 320 -260 q 243 -136 243 -194 q 293 -17 243 -71 q 192 19 234 -11 q 121 98 150 49 q 80 215 93 148 q 67 363 67 283 q 82 519 67 448 q 128 640 97 590 q 208 719 159 691 q 322 747 257 747 q 435 719 387 747 q 514 640 483 691 q 560 519 545 590 q 576 363 576 448 m 451 363 q 444 475 451 424 q 421 562 437 526 q 381 619 406 599 q 322 640 356 640 q 261 619 286 640 q 221 562 237 599 q 198 475 205 526 q 192 363 192 424 q 198 252 192 302 q 221 165 205 201 q 261 109 237 129 q 322 89 286 89 q 381 109 356 89 q 421 165 406 129 q 444 252 437 201 q 451 363 451 302 "},"†":{"x_min":51,"x_max":482,"ha":533,"o":"m 318 560 l 318 197 q 314 -14 318 79 q 301 -201 311 -107 l 231 -201 q 219 -13 223 -106 q 215 197 215 79 l 215 560 l 51 560 l 51 660 l 215 660 l 215 963 l 318 963 l 318 660 l 482 660 l 482 560 l 318 560 "},"°":{"x_min":33,"x_max":366,"ha":400,"o":"m 366 885 q 352 815 366 846 q 315 763 338 785 q 262 731 292 742 q 199 720 232 720 q 135 731 166 720 q 82 763 105 742 q 46 815 59 785 q 33 885 33 846 q 46 955 33 924 q 82 1007 59 985 q 135 1039 105 1028 q 199 1051 166 1051 q 262 1039 232 1051 q 315 1007 292 1028 q 352 955 338 985 q 366 885 366 924 m 280 885 q 256 947 280 925 q 199 970 232 970 q 142 947 166 970 q 119 885 119 925 q 142 823 119 845 q 199 801 166 801 q 256 823 232 801 q 280 885 280 845 "},"Ξ":{"x_min":63,"x_max":562,"ha":625,"o":"m 554 850 l 70 850 l 70 963 l 554 963 l 554 850 m 63 113 l 562 113 l 562 0 l 63 0 l 63 113 m 117 560 l 508 560 l 508 449 l 117 449 l 117 560 "},"΄":{"x_min":161,"x_max":397,"ha":436,"o":"m 397 1034 l 228 801 l 161 844 l 304 1094 l 397 1034 "},"ŵ":{"x_min":28,"x_max":768,"ha":796,"o":"m 300 0 l 179 0 q 98 329 136 143 q 28 729 59 515 l 146 729 q 162 589 151 669 q 187 425 173 509 q 214 263 200 341 q 240 129 228 184 q 268 265 252 184 q 300 430 284 345 q 330 595 316 515 q 352 729 344 674 l 465 729 q 482 595 470 674 q 507 431 494 516 q 534 265 520 345 q 559 129 548 184 q 585 263 572 184 q 613 426 599 343 q 637 589 626 509 q 654 729 648 669 l 768 729 q 697 329 736 515 q 616 0 659 143 l 499 0 q 475 110 488 43 q 449 254 462 177 q 424 407 436 330 q 405 548 413 484 q 383 407 397 484 q 354 254 369 330 q 324 110 339 177 q 300 0 310 43 m 295 807 l 237 855 l 396 1067 l 556 855 l 497 807 l 396 925 l 295 807 "},"ǁ":{"x_min":131,"x_max":491,"ha":621,"o":"m 378 1088 l 491 1088 l 491 -257 l 378 -257 l 378 1088 m 131 1088 l 244 1088 l 244 -257 l 131 -257 l 131 1088 "},"ᾚ":{"x_min":-58,"x_max":1424,"ha":1449,"o":"m 869 963 l 994 963 l 994 0 l 869 0 l 869 448 l 553 448 l 553 0 l 428 0 l 428 963 l 553 963 l 553 556 l 869 556 l 869 963 m -58 745 q -13 796 -34 769 q 20 847 7 823 q -15 874 -3 855 q -27 916 -27 892 q -6 968 -27 948 q 43 989 13 989 q 97 968 75 989 q 120 907 120 947 q 107 847 120 876 q 75 791 94 818 q 31 741 56 765 q -14 700 7 718 l -58 745 m 256 986 l 373 734 l 308 697 l 163 938 l 256 986 m 1408 -14 q 1261 33 1305 -11 q 1217 183 1217 79 l 1217 729 l 1336 729 l 1336 181 q 1353 111 1336 133 q 1424 82 1370 90 l 1408 -14 "},"№":{"x_min":117,"x_max":1197,"ha":1272,"o":"m 815 308 l 1183 308 l 1183 211 l 815 211 l 815 308 m 588 0 q 512 177 554 82 q 424 368 470 272 q 329 560 377 465 q 234 737 281 655 l 234 0 l 117 0 l 117 963 l 221 963 q 323 786 274 876 q 416 607 372 696 q 500 434 460 519 q 573 272 539 348 l 573 963 l 690 963 l 690 0 l 588 0 m 1197 723 q 1142 526 1197 591 q 1001 461 1087 461 q 859 525 914 461 q 805 723 805 590 q 859 922 805 858 q 1001 986 914 986 q 1142 922 1087 986 q 1197 723 1197 858 m 1100 723 q 1074 857 1100 815 q 1001 900 1048 900 q 928 857 954 900 q 902 723 902 815 q 927 590 902 633 q 1001 547 953 547 q 1074 590 1048 547 q 1100 723 1100 633 "},"ƫ":{"x_min":100,"x_max":408,"ha":446,"o":"m 219 729 l 402 729 l 402 626 l 219 626 l 219 225 q 246 120 219 150 q 319 91 273 91 q 362 94 339 91 q 401 103 385 97 q 405 54 403 85 q 408 0 408 22 q 401 -107 408 -59 q 376 -189 395 -155 q 324 -241 358 -223 q 237 -260 291 -260 q 197 -256 219 -260 q 161 -248 176 -253 l 170 -154 q 193 -158 177 -156 q 217 -161 209 -161 q 284 -129 268 -161 q 300 -28 300 -98 q 299 -21 300 -26 q 298 -15 298 -17 q 148 44 197 -12 q 100 233 100 100 l 100 925 l 219 946 l 219 729 "},"ί":{"x_min":98,"x_max":334,"ha":338,"o":"m 297 -14 q 150 33 194 -11 q 106 183 106 79 l 106 729 l 225 729 l 225 181 q 242 111 225 133 q 313 82 259 90 l 297 -14 m 334 1034 l 165 801 l 98 844 l 241 1094 l 334 1034 "},"ť":{"x_min":100,"x_max":429,"ha":446,"o":"m 219 729 l 402 729 l 402 626 l 219 626 l 219 225 q 246 120 219 150 q 319 91 273 91 q 364 97 342 91 q 401 114 386 104 l 425 18 q 304 -15 368 -15 q 150 42 201 -15 q 100 233 100 100 l 100 925 l 219 946 l 219 729 m 429 1077 l 391 808 l 312 808 l 312 1077 l 429 1077 "},"5":{"x_min":69,"x_max":503,"ha":597,"o":"m 265 859 q 255 691 258 758 q 250 586 252 625 q 441 491 380 567 q 503 284 503 415 q 482 154 503 210 q 424 58 461 97 q 337 0 387 19 q 228 -21 287 -21 q 146 -9 188 -21 q 69 22 105 1 l 102 120 q 225 87 162 87 q 338 135 292 87 q 384 284 384 184 q 321 442 384 394 q 133 496 259 490 q 144 623 139 565 q 151 735 148 680 q 155 845 153 790 q 159 963 158 900 l 485 963 l 485 859 l 265 859 "},"ῃ":{"x_min":108,"x_max":570,"ha":670,"o":"m 108 710 q 219 736 159 726 q 329 747 279 747 q 428 732 383 747 q 503 683 472 717 q 552 589 535 648 q 570 442 570 530 l 570 -257 l 451 -257 l 451 432 q 423 591 451 541 q 318 641 395 641 q 227 627 277 641 l 227 0 l 108 0 l 108 710 m 219 -87 q 237 -163 219 -142 q 289 -184 255 -184 q 306 -182 301 -184 l 306 -254 q 287 -258 299 -257 q 259 -260 274 -260 q 156 -222 198 -260 q 115 -98 115 -185 q 115 -84 115 -93 q 116 -69 115 -75 l 219 -69 l 219 -87 "},"Ӊ":{"x_min":117,"x_max":785,"ha":807,"o":"m 559 963 l 684 963 l 684 107 l 785 107 l 785 91 q 746 -96 785 -2 q 629 -271 708 -190 l 538 -212 q 606 -118 576 -173 q 652 0 636 -62 l 559 0 l 559 448 l 242 448 l 242 0 l 117 0 l 117 963 l 242 963 l 242 556 l 559 556 l 559 963 "},"Ѕ":{"x_min":35,"x_max":524,"ha":556,"o":"m 236 86 q 352 127 311 86 q 393 240 393 169 q 380 306 393 277 q 347 359 368 335 q 301 402 327 383 q 247 441 275 422 q 180 488 215 463 q 117 547 145 513 q 71 624 89 580 q 53 729 53 669 q 73 834 53 787 q 128 915 93 882 q 213 966 164 948 q 319 985 262 985 q 422 971 375 985 q 502 937 470 957 l 463 838 q 399 868 433 858 q 328 879 365 879 q 219 842 260 879 q 178 734 178 805 q 191 666 178 695 q 225 613 204 637 q 275 570 247 590 q 336 530 304 551 q 401 484 368 509 q 462 427 435 459 q 506 350 489 394 q 524 247 524 306 q 507 144 524 192 q 455 58 490 95 q 366 0 419 22 q 240 -21 312 -21 q 123 -5 173 -21 q 35 34 73 9 l 73 134 q 148 99 109 112 q 236 86 186 86 "},"ῳ":{"x_min":76,"x_max":825,"ha":901,"o":"m 608 -14 q 519 7 559 -14 q 450 73 478 29 q 293 -14 394 -14 q 190 15 231 -14 q 123 93 148 44 q 87 207 98 143 q 76 344 76 272 q 106 553 76 450 q 190 745 137 657 l 301 707 q 225 535 253 626 q 198 347 198 443 q 202 251 198 297 q 219 171 207 205 q 252 117 231 137 q 305 97 273 97 q 392 220 392 97 l 392 567 l 510 567 l 510 220 q 596 97 510 97 q 648 117 628 97 q 681 171 669 137 q 698 251 693 205 q 703 347 703 297 q 675 535 703 443 q 600 707 647 626 l 711 745 q 794 553 763 657 q 825 344 825 450 q 813 207 825 272 q 777 93 802 143 q 711 15 752 44 q 608 -14 669 -14 m 502 -87 q 520 -163 502 -142 q 572 -184 538 -184 q 589 -182 584 -184 l 589 -254 q 570 -258 582 -257 q 542 -260 557 -260 q 439 -222 481 -260 q 398 -98 398 -185 q 398 -84 398 -93 q 399 -69 398 -75 l 502 -69 l 502 -87 "},",":{"x_min":53,"x_max":231,"ha":322,"o":"m 229 158 q 231 136 231 146 q 231 114 231 126 q 206 -55 231 26 q 138 -214 181 -137 l 53 -189 q 98 -45 87 -118 q 110 91 110 27 q 109 126 110 109 q 107 158 108 142 l 229 158 "},"\"":{"x_min":97,"x_max":428,"ha":525,"o":"m 211 1056 l 211 986 q 204 844 211 918 q 184 696 197 771 l 123 696 q 103 844 110 771 q 97 987 97 917 l 97 1056 l 211 1056 m 428 1056 l 428 986 q 421 844 428 918 q 401 696 414 771 l 340 696 q 320 844 327 771 q 314 987 314 917 l 314 1056 l 428 1056 "},"Ӳ":{"x_min":42,"x_max":632,"ha":660,"o":"m 632 963 q 538 639 597 828 q 389 212 480 450 q 290 42 344 94 q 146 -10 235 -10 q 107 -5 131 -10 q 56 8 83 -1 l 78 113 q 108 103 93 106 q 141 100 123 100 q 220 134 192 100 q 271 227 247 168 l 287 270 q 140 651 203 472 q 42 963 77 830 l 166 963 q 243 707 196 844 q 348 421 290 569 q 439 707 398 569 q 506 963 480 844 l 632 963 m 415 1240 l 259 1022 l 196 1060 l 328 1297 l 415 1240 m 605 1240 l 449 1022 l 386 1060 l 518 1297 l 605 1240 "},"ҙ":{"x_min":42,"x_max":455,"ha":508,"o":"m 328 388 q 418 317 382 369 q 455 202 455 266 q 405 53 455 107 q 274 -14 356 0 l 259 -55 q 316 -94 299 -70 q 333 -151 333 -119 q 291 -233 333 -204 q 188 -263 249 -263 q 142 -259 167 -263 q 94 -247 117 -256 l 107 -171 q 137 -177 121 -174 q 168 -181 152 -181 q 211 -173 193 -181 q 230 -143 230 -165 q 214 -116 230 -127 q 158 -97 199 -105 q 171 -58 163 -78 q 188 -19 180 -38 q 111 -6 148 -16 q 42 22 73 3 l 61 121 q 132 95 90 106 q 213 84 173 84 q 260 90 238 84 q 299 109 282 96 q 326 145 316 122 q 337 202 337 168 q 323 265 337 239 q 285 306 309 291 q 230 329 262 322 q 165 336 199 336 l 118 336 l 118 430 l 156 430 q 277 459 238 430 q 316 536 316 488 q 283 612 316 589 q 206 636 251 636 q 143 626 176 636 q 76 597 110 616 l 52 698 q 130 730 89 718 q 218 742 172 742 q 374 690 315 742 q 433 553 433 639 q 403 451 433 493 q 328 388 373 409 "},"ė":{"x_min":68,"x_max":538,"ha":606,"o":"m 190 330 q 199 233 191 277 q 226 156 208 189 q 276 106 245 124 q 356 88 308 88 q 431 99 397 88 q 480 119 465 111 l 503 23 q 442 -3 484 11 q 341 -18 400 -18 q 213 9 265 -18 q 128 87 161 37 q 81 206 95 137 q 68 359 68 276 q 134 653 68 560 q 311 747 201 747 q 486 654 435 747 q 538 393 538 561 q 538 362 538 378 q 536 330 538 346 l 190 330 m 311 646 q 224 586 251 646 q 191 427 196 526 l 413 427 q 392 587 413 528 q 311 646 371 646 m 310 858 q 254 879 277 858 q 232 937 232 900 q 254 994 232 973 q 310 1016 277 1016 q 365 994 342 1016 q 388 937 388 973 q 365 879 388 900 q 310 858 342 858 "},"ῴ":{"x_min":76,"x_max":825,"ha":901,"o":"m 608 -14 q 519 7 559 -14 q 450 73 478 29 q 293 -14 394 -14 q 190 15 231 -14 q 123 93 148 44 q 87 207 98 143 q 76 344 76 272 q 106 553 76 450 q 190 745 137 657 l 301 707 q 225 535 253 626 q 198 347 198 443 q 202 251 198 297 q 219 171 207 205 q 252 117 231 137 q 305 97 273 97 q 392 220 392 97 l 392 567 l 510 567 l 510 220 q 596 97 510 97 q 648 117 628 97 q 681 171 669 137 q 698 251 693 205 q 703 347 703 297 q 675 535 703 443 q 600 707 647 626 l 711 745 q 794 553 763 657 q 825 344 825 450 q 813 207 825 272 q 777 93 802 143 q 711 15 752 44 q 608 -14 669 -14 m 501 -87 q 519 -163 501 -142 q 571 -184 537 -184 q 588 -182 583 -184 l 588 -254 q 569 -258 581 -257 q 541 -260 556 -260 q 438 -222 480 -260 q 397 -98 397 -185 q 397 -84 397 -93 q 398 -69 397 -75 l 501 -69 l 501 -87 m 656 980 l 404 810 l 356 874 l 589 1068 l 656 980 "},"Í":{"x_min":111,"x_max":360,"ha":358,"o":"m 117 963 l 242 963 l 242 0 l 117 0 l 117 963 m 360 1215 l 170 1016 l 111 1067 l 275 1288 l 360 1215 "},"Ú":{"x_min":108,"x_max":655,"ha":763,"o":"m 378 -21 q 175 55 243 -21 q 108 297 108 131 l 108 963 l 233 963 l 233 308 q 265 143 233 198 q 380 89 297 89 q 498 145 467 89 q 530 308 530 201 l 530 963 l 655 963 l 655 297 q 585 56 655 134 q 378 -21 515 -21 m 560 1215 l 370 1016 l 311 1067 l 475 1288 l 560 1215 "},"ἠ":{"x_min":108,"x_max":570,"ha":670,"o":"m 108 710 q 219 736 159 726 q 329 747 279 747 q 428 732 383 747 q 503 683 472 717 q 552 589 535 648 q 570 442 570 530 l 570 -257 l 451 -257 l 451 432 q 423 591 451 541 q 318 641 395 641 q 227 627 277 641 l 227 0 l 108 0 l 108 710 m 244 845 q 295 896 271 869 q 333 947 319 923 q 299 974 311 955 q 288 1016 288 992 q 308 1068 288 1048 q 361 1089 329 1089 q 418 1068 394 1089 q 442 1007 442 1047 q 428 947 442 976 q 392 891 414 918 q 345 841 371 865 q 294 800 318 818 l 244 845 "},"":{"x_min":21,"x_max":472,"ha":510,"o":"m 21 903 q 221 985 102 985 q 393 925 333 985 q 453 741 453 866 q 433 630 453 683 q 385 528 414 577 q 321 430 355 479 q 254 331 286 381 q 199 225 222 280 q 170 108 175 170 l 472 108 l 472 0 l 42 0 l 42 26 q 63 191 42 119 q 116 322 85 263 q 185 430 147 380 q 253 528 222 480 q 306 627 284 576 q 328 739 328 677 q 298 845 328 812 q 211 878 269 878 q 138 862 171 878 q 79 821 105 846 l 21 903 "},"Ý":{"x_min":4,"x_max":622,"ha":626,"o":"m 622 963 q 570 824 598 897 q 509 674 541 750 q 444 523 477 598 q 378 380 411 448 l 378 0 l 253 0 l 253 372 q 184 516 219 440 q 118 669 150 593 q 56 821 86 746 q 4 963 27 896 l 138 963 q 220 731 174 853 q 315 504 266 610 q 409 731 364 610 q 491 963 455 853 l 622 963 m 492 1215 l 302 1016 l 243 1067 l 407 1288 l 492 1215 "},"ǧ":{"x_min":67,"x_max":542,"ha":649,"o":"m 542 20 q 521 -110 542 -56 q 467 -197 501 -163 q 385 -245 432 -230 q 286 -261 339 -261 q 197 -251 242 -261 q 116 -222 153 -241 l 141 -121 q 202 -146 166 -135 q 277 -158 238 -158 q 384 -119 345 -158 q 423 13 423 -80 l 423 48 q 375 32 400 38 q 318 26 350 26 q 127 115 187 26 q 67 369 67 205 q 82 526 67 456 q 132 646 98 596 q 221 721 167 695 q 353 747 275 747 q 453 736 404 747 q 542 709 503 726 l 542 20 m 423 631 q 385 638 403 636 q 352 641 367 641 q 230 577 268 641 q 192 369 192 513 q 229 185 192 238 q 336 132 267 132 q 381 137 360 132 q 423 152 403 143 l 423 631 m 426 1067 l 485 1018 l 325 807 l 166 1018 l 224 1067 l 325 948 l 426 1067 "},"Ƀ":{"x_min":24,"x_max":664,"ha":725,"o":"m 24 320 l 118 320 l 118 948 q 217 965 166 959 q 318 972 268 972 q 437 960 380 972 q 536 919 493 948 q 605 845 579 891 q 631 729 631 798 q 594 588 631 643 q 502 507 558 533 q 618 422 572 479 q 664 265 664 365 q 639 138 664 190 q 570 54 615 87 q 464 7 526 22 q 329 -7 402 -7 q 227 -1 280 -7 q 118 15 174 4 l 118 228 l 24 228 l 24 320 m 243 453 l 243 320 l 386 320 l 386 228 l 243 228 l 243 105 q 295 98 269 101 q 345 96 320 96 q 419 104 384 96 q 480 132 454 112 q 520 185 505 151 q 535 269 535 219 q 488 404 535 355 q 343 453 441 453 l 243 453 m 243 553 l 329 553 q 502 708 502 553 q 487 788 502 756 q 449 836 472 819 q 394 861 425 854 q 327 868 362 868 q 285 866 307 868 q 243 862 263 865 l 243 553 "},"ᾶ":{"x_min":67,"x_max":629,"ha":654,"o":"m 541 181 q 560 114 541 137 q 629 86 580 91 l 613 -14 q 560 -9 581 -12 q 522 0 538 -5 q 494 15 506 6 q 470 36 483 25 q 402 -3 438 11 q 324 -18 366 -18 q 130 81 194 -18 q 67 361 67 180 q 139 647 67 547 q 362 747 212 747 q 455 735 406 747 q 541 709 504 724 l 541 181 m 343 88 q 391 97 370 88 q 427 121 412 107 q 423 153 424 136 q 422 189 422 169 l 422 631 q 391 638 406 635 q 361 641 376 641 q 235 577 279 641 q 192 362 192 513 q 230 155 192 222 q 343 88 268 88 m 338 1055 q 456 1004 414 1055 q 498 861 498 953 l 417 861 q 398 940 414 907 q 338 974 382 974 q 277 940 293 974 q 259 861 261 907 l 178 861 q 219 1004 178 953 q 338 1055 260 1055 "},"ȍ":{"x_min":67,"x_max":576,"ha":643,"o":"m 576 363 q 560 207 576 277 q 514 87 545 137 q 435 9 483 37 q 322 -18 387 -18 q 208 9 257 -18 q 128 87 159 37 q 82 207 97 137 q 67 363 67 277 q 82 519 67 448 q 128 640 97 590 q 208 719 159 691 q 322 747 257 747 q 435 719 387 747 q 514 640 483 691 q 560 519 545 590 q 576 363 576 448 m 451 363 q 444 475 451 424 q 421 562 437 526 q 381 619 406 599 q 322 640 356 640 q 261 619 286 640 q 221 562 237 599 q 198 475 205 526 q 192 363 192 424 q 198 252 192 302 q 221 165 205 201 q 261 109 237 129 q 322 89 286 89 q 381 109 356 89 q 421 165 406 129 q 444 252 437 201 q 451 363 451 302 m 350 1089 l 483 852 l 419 814 l 264 1032 l 350 1089 m 160 1089 l 293 852 l 229 814 l 74 1032 l 160 1089 "},"ã":{"x_min":57,"x_max":503,"ha":603,"o":"m 120 713 q 196 737 156 728 q 283 747 236 747 q 441 686 380 747 q 503 498 503 626 l 503 15 q 400 -6 452 1 q 298 -15 348 -15 q 204 -2 248 -15 q 128 37 161 9 q 76 107 95 65 q 57 211 57 150 q 74 310 57 268 q 122 381 91 352 q 194 424 152 409 q 284 439 236 439 q 386 427 330 439 l 386 494 q 354 607 386 575 q 265 639 323 639 q 205 632 233 639 q 144 612 176 626 l 120 713 m 176 212 q 209 118 176 148 q 303 88 242 88 q 386 97 341 88 l 386 328 q 303 340 344 340 q 253 333 277 340 q 212 313 230 327 q 185 274 195 298 q 176 212 176 250 m 479 1001 q 439 899 466 934 q 371 864 412 864 q 327 873 348 864 q 290 896 307 883 q 259 918 274 908 q 231 928 244 928 q 209 914 218 928 q 192 864 200 900 l 123 887 q 162 989 134 954 q 230 1025 189 1025 q 274 1015 255 1025 q 311 993 294 1005 q 341 970 327 980 q 370 961 355 961 q 392 974 383 961 q 410 1025 401 988 l 479 1001 "},"Ɗ":{"x_min":0,"x_max":802,"ha":878,"o":"m 393 -10 q 193 15 298 -10 l 193 849 q 120 809 140 836 q 101 733 101 782 q 101 710 101 722 q 102 690 102 698 l 6 678 q 2 707 4 687 q 0 746 0 726 q 36 871 0 826 q 129 939 73 917 q 253 968 186 962 q 380 974 321 974 q 558 947 479 974 q 690 862 636 921 q 773 710 745 804 q 802 482 802 616 q 774 256 802 349 q 694 103 746 162 q 566 17 642 44 q 393 -10 490 -10 m 375 863 q 345 863 359 863 q 318 861 330 863 l 318 106 q 358 102 338 103 q 396 101 377 101 q 524 122 472 101 q 609 190 577 144 q 655 309 641 237 q 669 482 669 381 q 654 655 669 583 q 605 774 639 728 q 515 841 571 819 q 375 863 458 863 "},"Ҵ":{"x_min":19,"x_max":829,"ha":850,"o":"m 474 963 l 474 856 l 316 856 l 316 107 l 612 107 l 612 963 l 737 963 l 737 107 l 829 107 l 829 -257 l 710 -257 l 710 0 l 191 0 l 191 856 l 19 856 l 19 963 l 474 963 "},"ĩ":{"x_min":-9,"x_max":347,"ha":336,"o":"m 227 0 l 108 0 l 108 729 l 227 729 l 227 0 m 347 1001 q 307 899 334 934 q 239 864 280 864 q 195 873 216 864 q 158 896 175 883 q 127 918 142 908 q 99 928 112 928 q 77 914 86 928 q 60 864 68 900 l -9 887 q 30 989 2 954 q 98 1025 57 1025 q 142 1015 123 1025 q 179 993 162 1005 q 209 970 195 980 q 238 961 223 961 q 260 974 251 961 q 278 1025 269 988 l 347 1001 "},"ŀ":{"x_min":106,"x_max":473,"ha":460,"o":"m 297 -14 q 150 36 194 -11 q 106 188 106 84 l 106 1057 l 225 1078 l 225 186 q 244 115 225 137 q 312 86 263 94 l 297 -14 m 473 504 q 450 447 473 472 q 389 423 427 423 q 330 447 352 423 q 308 504 308 472 q 330 563 308 538 q 389 588 352 588 q 450 563 427 588 q 473 504 473 538 "},"῾":{"x_min":111,"x_max":309,"ha":436,"o":"m 259 800 q 207 841 234 818 q 160 891 181 865 q 124 947 138 918 q 111 1007 111 976 q 134 1068 111 1047 q 191 1089 158 1089 q 244 1068 223 1089 q 265 1016 265 1048 q 252 974 265 992 q 217 947 240 955 q 257 896 233 923 q 309 845 281 869 l 259 800 "}}}
